{
DisplayStrings = (
"\U00BF",
"?"
);
copyright = "Copyright (c) 2016 ResearchGate";
customParameters = (
{
name = license;
value = "This Font Software is licensed under the SIL Open Font License, Version 1.1. This license is available with a FAQ at: http://scripts.sil.org/OFL";
},
{
name = licenseURL;
value = "http://scripts.sil.org/OFL";
},
{
name = vendorID;
value = "STC ";
},
{
name = glyphOrder;
value = (
    ".notdef",
    uni0000,
    uni000D,
    NULL,
    space,
    exclam,
    quotedbl,
    numbersign,
    dollar,
    percent,
    ampersand,
    quotesingle,
    parenleft,
    parenright,
    asterisk,
    plus,
    comma,
    hyphen,
    period,
    slash,
    zero,
    one,
    two,
    three,
    four,
    five,
    six,
    seven,
    eight,
    nine,
    colon,
    semicolon,
    less,
    equal,
    greater,
    question,
    at,
    A,
    B,
    C,
    D,
    E,
    F,
    G,
    H,
    I,
    J,
    K,
    L,
    M,
    N,
    O,
    P,
    Q,
    R,
    S,
    T,
    U,
    V,
    W,
    X,
    Y,
    Z,
    bracketleft,
    backslash,
    bracketright,
    asciicircum,
    underscore,
    grave,
    a,
    b,
    c,
    d,
    e,
    f,
    g,
    h,
    i,
    j,
    k,
    l,
    m,
    n,
    o,
    p,
    q,
    r,
    s,
    t,
    u,
    v,
    w,
    x,
    y,
    z,
    braceleft,
    bar,
    braceright,
    asciitilde,
    uni00A0,
    exclamdown,
    cent,
    sterling,
    currency,
    yen,
    brokenbar,
    section,
    dieresis,
    copyright,
    ordfeminine,
    guillemotleft,
    logicalnot,
    uni00AD,
    registered,
    macron,
    degree,
    plusminus,
    acute,
    uni00B5,
    paragraph,
    periodcentered,
    cedilla,
    ordmasculine,
    guillemotright,
    onequarter,
    onehalf,
    threequarters,
    questiondown,
    Agrave,
    Aacute,
    Acircumflex,
    Atilde,
    Adieresis,
    Aring,
    AE,
    Ccedilla,
    Egrave,
    Eacute,
    Ecircumflex,
    Edieresis,
    Igrave,
    Iacute,
    Icircumflex,

glyphs = (
{
glyphname = A;
layers = (
{
layerId = "ED003BF4-EB5B-4214-9209-77B039A8E9AA";
name = Bold;
paths = (
{
closed = 1;
nodes = (
"62 155 LINE",
"446 1342 LINE",
"835 1342 LINE",
"1221 154 LINE",
"1315 134 LINE",
"1315 0 LINE",
"701 0 LINE",
"701 134 LINE",
"818 154 LINE",
"767 345 LINE",
"384 345 LINE",
"334 150 LINE",
"468 134 LINE",
"468 0 LINE",
"-37 0 LINE",
"-40 134 LINE"
);
},
{
closed = 1;
nodes = (
"728 497 LINE",
"591 1015 LINE",
"572 1126 LINE",
"551 1015 LINE",
"422 497 LINE"
);
}
);
width = 1289;
}
);
note = A;
unicode = 0041;
},
{
glyphname = Aacute;
layers = (
{
layerId = "ED003BF4-EB5B-4214-9209-77B039A8E9AA";
name = Bold;
paths = (
{
closed = 1;
nodes = (
"62 155 LINE",
"446 1342 LINE",
"835 1342 LINE",
"1221 154 LINE",
"1315 134 LINE",
"1315 0 LINE",
"701 0 LINE",
"701 134 LINE",
"818 154 LINE",
"767 345 LINE",
"384 345 LINE",
"334 150 LINE",
"468 134 LINE",
"468 0 LINE",
"-37 0 LINE",
"-40 134 LINE"
);
},
{
closed = 1;
nodes = (
"728 497 LINE",
"591 1015 LINE",
"572 1126 LINE",
"551 1015 LINE",
"422 497 LINE"
);
},
{
closed = 1;
nodes = (
"758 1772 LINE",
"758 1772 LINE",
"971 1632 LINE",
"903 1559 OFFCURVE",
"803 1489 OFFCURVE",
"720 1445 CURVE SMOOTH",
"679 1422 OFFCURVE",
"647 1408 OFFCURVE",
"626 1402 CURVE",
"625 1402 LINE",
"498 1492 LINE"
);
}
);
width = 1289;
}
);
note = Aacute;
unicode = 00C1;
},
{
glyphname = Abreve;
layers = (
{
layerId = "ED003BF4-EB5B-4214-9209-77B039A8E9AA";
name = Bold;
paths = (
{
closed = 1;
nodes = (
"62 155 LINE",
"446 1342 LINE",
"835 1342 LINE",
"1221 154 LINE",
"1315 134 LINE",
"1315 0 LINE",
"701 0 LINE",
"701 134 LINE",
"818 154 LINE",
"767 345 LINE",
"384 345 LINE",
"334 150 LINE",
"468 134 LINE",
"468 0 LINE",
"-37 0 LINE",
"-40 134 LINE"
);
},
{
closed = 1;
nodes = (
"728 497 LINE",
"591 1015 LINE",
"572 1126 LINE",
"551 1015 LINE",
"422 497 LINE"
);
},
{
closed = 1;
nodes = (
"286 1746 OFFCURVE",
"287 1759 OFFCURVE",
"288 1768 CURVE",
"450 1768 LINE",
"452 1749 LINE",
"463 1685 OFFCURVE",
"516 1625 OFFCURVE",
"644 1625 CURVE SMOOTH",
"771 1625 OFFCURVE",
"818 1684 OFFCURVE",
"826 1749 CURVE",
"827 1754 OFFCURVE",
"827 1761 OFFCURVE",
"827 1768 CURVE",
"995 1768 LINE",
"996 1759 OFFCURVE",
"997 1746 OFFCURVE",
"997 1728 CURVE SMOOTH",
"997 1619 OFFCURVE",
"943 1521 OFFCURVE",
"836 1464 CURVE SMOOTH",
"783 1435 OFFCURVE",
"718 1421 OFFCURVE",
"642 1421 CURVE SMOOTH",
"486 1421 OFFCURVE",
"378 1483 OFFCURVE",
"326 1575 CURVE SMOOTH",
"299 1621 OFFCURVE",
"286 1672 OFFCURVE",
"286 1727 CURVE SMOOTH"
);
}
);
width = 1289;
}
);
note = Abreve;
unicode = 0102;
},
{
glyphname = Acircumflex;
layers = (
{
layerId = "ED003BF4-EB5B-4214-9209-77B039A8E9AA";
name = Bold;
paths = (
{
closed = 1;
nodes = (
"62 155 LINE",
"446 1342 LINE",
"835 1342 LINE",
"1221 154 LINE",
"1315 134 LINE",
"1315 0 LINE",
"701 0 LINE",
"701 134 LINE",
"818 154 LINE",
"767 345 LINE",
"384 345 LINE",
"334 150 LINE",
"468 134 LINE",
"468 0 LINE",
"-37 0 LINE",
"-40 134 LINE"
);
},
{
closed = 1;
nodes = (
"728 497 LINE",
"591 1015 LINE",
"572 1126 LINE",
"551 1015 LINE",
"422 497 LINE"
);
},
{
closed = 1;
nodes = (
"546 1764 LINE",
"730 1764 LINE",
"1014 1500 LINE",
"903 1404 LINE",
"637 1567 LINE",
"371 1404 LINE",
"260 1500 LINE"
);
}
);
width = 1289;
}
);
note = Acircumflex;
unicode = 00C2;
},
{
glyphname = Adieresis;
layers = (
{
layerId = "ED003BF4-EB5B-4214-9209-77B039A8E9AA";
name = Bold;
paths = (
{
closed = 1;
nodes = (
"62 155 LINE",
"446 1342 LINE",
"835 1342 LINE",
"1221 154 LINE",
"1315 134 LINE",
"1315 0 LINE",
"701 0 LINE",
"701 134 LINE",
"818 154 LINE",
"767 345 LINE",
"384 345 LINE",
"334 150 LINE",
"468 134 LINE",
"468 0 LINE",
"-37 0 LINE",
"-40 134 LINE"
);
},
{
closed = 1;
nodes = (
"728 497 LINE",
"591 1015 LINE",
"572 1126 LINE",
"551 1015 LINE",
"422 497 LINE"
);
},
{
closed = 1;
nodes = (
"230 1689 OFFCURVE",
"290 1761 OFFCURVE",
"403 1761 CURVE SMOOTH",
"404 1761 LINE SMOOTH",
"511 1761 OFFCURVE",
"564 1698 OFFCURVE",
"564 1611 CURVE SMOOTH",
"564 1503 OFFCURVE",
"501 1431 OFFCURVE",
"373 1431 CURVE SMOOTH",
"372 1431 LINE SMOOTH",
"319 1431 OFFCURVE",
"273 1460 OFFCURVE",
"249 1507 CURVE",
"236 1530 OFFCURVE",
"230 1555 OFFCURVE",
"230 1582 CURVE SMOOTH"
);
},
{
closed = 1;
nodes = (
"714 1689 OFFCURVE",
"773 1761 OFFCURVE",
"886 1761 CURVE SMOOTH",
"887 1761 LINE SMOOTH",
"994 1761 OFFCURVE",
"1048 1698 OFFCURVE",
"1048 1611 CURVE SMOOTH",
"1048 1503 OFFCURVE",
"985 1431 OFFCURVE",
"857 1431 CURVE SMOOTH",
"856 1431 LINE SMOOTH",
"804 1431 OFFCURVE",
"757 1465 OFFCURVE",
"733 1512 CURVE",
"720 1535 OFFCURVE",
"714 1559 OFFCURVE",
"714 1582 CURVE SMOOTH"
);
}
);
width = 1289;
}
);
note = Adieresis;
unicode = 00C4;
},
{
glyphname = Agrave;
layers = (
{
layerId = "ED003BF4-EB5B-4214-9209-77B039A8E9AA";
name = Bold;
paths = (
{
closed = 1;
nodes = (
"62 155 LINE",
"446 1342 LINE",
"835 1342 LINE",
"1221 154 LINE",
"1315 134 LINE",
"1315 0 LINE",
"701 0 LINE",
"701 134 LINE",
"818 154 LINE",
"767 345 LINE",
"384 345 LINE",
"334 150 LINE",
"468 134 LINE",
"468 0 LINE",
"-37 0 LINE",
"-40 134 LINE"
);
},
{
closed = 1;
nodes = (
"728 497 LINE",
"591 1015 LINE",
"572 1126 LINE",
"551 1015 LINE",
"422 497 LINE"
);
},
{
closed = 1;
nodes = (
"524 1772 LINE",
"525 1772 LINE",
"785 1492 LINE",
"657 1402 LINE",
"656 1402 LINE",
"607 1415 OFFCURVE",
"507 1469 OFFCURVE",
"418 1535 CURVE SMOOTH",
"373 1568 OFFCURVE",
"338 1600 OFFCURVE",
"311 1632 CURVE"
);
}
);
width = 1289;
}
);
note = Agrave;
unicode = 00C0;
},
{
glyphname = Amacron;
layers = (
{
layerId = "ED003BF4-EB5B-4214-9209-77B039A8E9AA";
name = Bold;
paths = (
{
closed = 1;
nodes = (
"62 155 LINE",
"446 1342 LINE",
"835 1342 LINE",
"1221 154 LINE",
"1315 134 LINE",
"1315 0 LINE",
"701 0 LINE",
"701 134 LINE",
"818 154 LINE",
"767 345 LINE",
"384 345 LINE",
"334 150 LINE",
"468 134 LINE",
"468 0 LINE",
"-37 0 LINE",
"-40 134 LINE"
);
},
{
closed = 1;
nodes = (
"728 497 LINE",
"591 1015 LINE",
"572 1126 LINE",
"551 1015 LINE",
"422 497 LINE"
);
},
{
closed = 1;
nodes = (
"945 1688 LINE",
"945 1494 LINE",
"333 1494 LINE",
"333 1688 LINE"
);
}
);
width = 1289;
}
);
note = Amacron;
unicode = 0100;
},
{
glyphname = Aogonek;
layers = (
{
layerId = "ED003BF4-EB5B-4214-9209-77B039A8E9AA";
name = Bold;
paths = (
{
closed = 1;
nodes = (
"62 155 LINE",
"446 1342 LINE",
"835 1342 LINE",
"1221 154 LINE",
"1315 134 LINE",
"1315 0 LINE",
"1224 0 LINE",
"1148 -25 OFFCURVE",
"1090 -70 OFFCURVE",
"1060 -117 CURVE SMOOTH",
"1045 -141 OFFCURVE",
"1037 -164 OFFCURVE",
"1037 -187 CURVE SMOOTH",
"1037 -238 OFFCURVE",
"1086 -270 OFFCURVE",
"1163 -270 CURVE SMOOTH",
"1206 -270 OFFCURVE",
"1226 -266 OFFCURVE",
"1265 -251 CURVE",
"1265 -394 LINE",
"1218 -430 OFFCURVE",
"1112 -453 OFFCURVE",
"1032 -453 CURVE SMOOTH",
"927 -453 OFFCURVE",
"846 -421 OFFCURVE",
"803 -365 CURVE SMOOTH",
"782 -337 OFFCURVE",
"771 -305 OFFCURVE",
"771 -268 CURVE SMOOTH",
"771 -197 OFFCURVE",
"819 -122 OFFCURVE",
"900 -65 CURVE SMOOTH",
"941 -36 OFFCURVE",
"987 -15 OFFCURVE",
"1039 0 CURVE",
"701 0 LINE",
"701 134 LINE",
"818 154 LINE",
"767 345 LINE",
"384 345 LINE",
"334 150 LINE",
"468 134 LINE",
"468 0 LINE",
"-37 0 LINE",
"-40 134 LINE"
);
},
{
closed = 1;
nodes = (
"728 497 LINE",
"591 1015 LINE",
"572 1126 LINE",
"551 1015 LINE",
"422 497 LINE"
);
}
);
width = 1289;
}
);
note = Aogonek;
unicode = 0104;
},
{
glyphname = Aring;
layers = (
{
layerId = "ED003BF4-EB5B-4214-9209-77B039A8E9AA";
name = Bold;
paths = (
{
closed = 1;
nodes = (
"1315 134 LINE",
"1315 0 LINE",
"701 0 LINE",
"701 134 LINE",
"818 154 LINE",
"767 345 LINE",
"384 345 LINE",
"334 150 LINE",
"468 134 LINE",
"468 0 LINE",
"-37 0 LINE",
"-40 134 LINE",
"62 155 LINE",
"440 1324 LINE",
"353 1361 OFFCURVE",
"310 1430 OFFCURVE",
"310 1529 CURVE SMOOTH",
"310 1628 OFFCURVE",
"368 1703 OFFCURVE",
"470 1743 CURVE SMOOTH",
"521 1762 OFFCURVE",
"580 1772 OFFCURVE",
"649 1772 CURVE SMOOTH",
"650 1772 LINE SMOOTH",
"875 1772 OFFCURVE",
"969 1676 OFFCURVE",
"969 1532 CURVE SMOOTH",
"969 1443 OFFCURVE",
"923 1373 OFFCURVE",
"839 1332 CURVE",
"1221 154 LINE"
);
},
{
closed = 1;
nodes = (
"640 1656 LINE SMOOTH",
"543 1656 OFFCURVE",
"507 1611 OFFCURVE",
"507 1534 CURVE SMOOTH",
"507 1463 OFFCURVE",
"547 1406 OFFCURVE",
"639 1406 CURVE SMOOTH",
"640 1406 LINE SMOOTH",
"739 1406 OFFCURVE",
"772 1447 OFFCURVE",
"772 1523 CURVE SMOOTH",
"772 1602 OFFCURVE",
"734 1656 OFFCURVE",
"641 1656 CURVE SMOOTH"
);
},
{
closed = 1;
nodes = (
"728 497 LINE",
"591 1015 LINE",
"572 1126 LINE",
"551 1015 LINE",
"422 497 LINE"
);
}
);
width = 1289;
}
);
note = Aring;
unicode = 00C5;
},
{
glyphname = Atilde;
layers = (
{
layerId = "ED003BF4-EB5B-4214-9209-77B039A8E9AA";
name = Bold;
paths = (
{
closed = 1;
nodes = (
"62 155 LINE",
"446 1342 LINE",
"835 1342 LINE",
"1221 154 LINE",
"1315 134 LINE",
"1315 0 LINE",
"701 0 LINE",
"701 134 LINE",
"818 154 LINE",
"767 345 LINE",
"384 345 LINE",
"334 150 LINE",
"468 134 LINE",
"468 0 LINE",
"-37 0 LINE",
"-40 134 LINE"
);
},
{
closed = 1;
nodes = (
"728 497 LINE",
"591 1015 LINE",
"572 1126 LINE",
"551 1015 LINE",
"422 497 LINE"
);
},
{
closed = 1;
nodes = (
"401 1566 OFFCURVE",
"364 1544 OFFCURVE",
"344 1525 CURVE SMOOTH",
"333 1515 OFFCURVE",
"319 1500 OFFCURVE",
"301 1481 CURVE",
"208 1578 LINE",
"264 1679 OFFCURVE",
"356 1767 OFFCURVE",
"496 1767 CURVE SMOOTH",
"573 1767 OFFCURVE",
"625 1740 OFFCURVE",
"698 1691 CURVE SMOOTH",
"757 1652 OFFCURVE",
"789 1634 OFFCURVE",
"832 1634 CURVE SMOOTH",
"896 1634 OFFCURVE",
"928 1664 OFFCURVE",
"952 1692 CURVE SMOOTH",
"964 1706 OFFCURVE",
"972 1715 OFFCURVE",
"975 1720 CURVE",
"1069 1624 LINE",
"1006 1511 OFFCURVE",
"922 1433 OFFCURVE",
"795 1433 CURVE SMOOTH",
"722 1433 OFFCURVE",
"672 1458 OFFCURVE",
"593 1507 CURVE SMOOTH",
"530 1546 OFFCURVE",
"492 1566 OFFCURVE",
"444 1566 CURVE SMOOTH"
);
}
);
width = 1289;
}
);
note = Atilde;
unicode = 00C3;
},
{
glyphname = AE;
layers = (
{
layerId = "ED003BF4-EB5B-4214-9209-77B039A8E9AA";
name = Bold;
paths = (
{
closed = 1;
nodes = (
"719 153 LINE",
"719 361 LINE",
"335 361 LINE",
"263 153 LINE",
"395 132 LINE",
"395 0 LINE",
"-140 0 LINE",
"-140 132 LINE",
"-14 154 LINE",
"396 1170 LINE",
"172 1197 LINE",
"172 1339 LINE",
"1602 1339 LINE",
"1627 1001 LINE",
"1464 1001 LINE",
"1399 1186 LINE",
"1083 1209 LINE",
"1083 759 LINE",
"1265 766 LINE",
"1298 910 LINE",
"1434 910 LINE",
"1434 440 LINE",
"1299 440 LINE",
"1266 596 LINE",
"1083 602 LINE",
"1083 137 LINE",
"1426 165 LINE",
"1544 400 LINE",
"1742 345 LINE",
"1684 0 LINE",
"586 0 LINE",
"586 132 LINE"
);
},
{
closed = 1;
nodes = (
"719 519 LINE",
"719 1192 LINE",
"621 1192 LINE",
"535 933 LINE",
"391 519 LINE"
);
}
);
width = 1729;
}
);
note = AE;
unicode = 00C6;
},
{
glyphname = AEacute;
layers = (
{
layerId = "ED003BF4-EB5B-4214-9209-77B039A8E9AA";
name = Bold;
paths = (
{
closed = 1;
nodes = (
"1019 1772 LINE",
"1019 1772 LINE",
"1232 1632 LINE",
"1164 1559 OFFCURVE",
"1064 1489 OFFCURVE",
"981 1445 CURVE SMOOTH",
"940 1422 OFFCURVE",
"908 1408 OFFCURVE",
"887 1402 CURVE",
"886 1402 LINE",
"759 1492 LINE"
);
},
{
closed = 1;
nodes = (
"719 153 LINE",
"719 361 LINE",
"335 361 LINE",
"263 153 LINE",
"395 132 LINE",
"395 0 LINE",
"-140 0 LINE",
"-140 132 LINE",
"-14 154 LINE",
"396 1170 LINE",
"172 1197 LINE",
"172 1339 LINE",
"1602 1339 LINE",
"1627 1001 LINE",
"1464 1001 LINE",
"1399 1186 LINE",
"1083 1209 LINE",
"1083 759 LINE",
"1265 766 LINE",
"1298 910 LINE",
"1434 910 LINE",
"1434 440 LINE",
"1299 440 LINE",
"1266 596 LINE",
"1083 602 LINE",
"1083 137 LINE",
"1426 165 LINE",
"1544 400 LINE",
"1742 345 LINE",
"1684 0 LINE",
"586 0 LINE",
"586 132 LINE"
);
},
{
closed = 1;
nodes = (
"719 519 LINE",
"719 1192 LINE",
"621 1192 LINE",
"535 933 LINE",
"391 519 LINE"
);
}
);
width = 1729;
}
);
note = AEacute;
unicode = 01FC;
},
{
glyphname = B;
layers = (
{
layerId = "ED003BF4-EB5B-4214-9209-77B039A8E9AA";
name = Bold;
paths = (
{
closed = 1;
nodes = (
"184 155 LINE",
"184 1170 LINE",
"54 1197 LINE",
"54 1339 LINE",
"360 1339 LINE SMOOTH",
"403 1339 OFFCURVE",
"457 1341 OFFCURVE",
"524 1345 CURVE SMOOTH",
"574 1348 OFFCURVE",
"618 1349 OFFCURVE",
"656 1349 CURVE SMOOTH",
"936 1349 OFFCURVE",
"1082 1299 OFFCURVE",
"1141 1211 CURVE SMOOTH",
"1170 1167 OFFCURVE",
"1185 1111 OFFCURVE",
"1185 1043 CURVE SMOOTH",
"1185 919 OFFCURVE",
"1126 822 OFFCURVE",
"1033 767 CURVE SMOOTH",
"986 739 OFFCURVE",
"935 722 OFFCURVE",
"878 715 CURVE",
"1039 715 OFFCURVE",
"1162 668 OFFCURVE",
"1228 577 CURVE SMOOTH",
"1261 531 OFFCURVE",
"1277 474 OFFCURVE",
"1277 407 CURVE SMOOTH",
"1277 236 OFFCURVE",
"1211 113 OFFCURVE",
"1035 42 CURVE SMOOTH",
"946 7 OFFCURVE",
"827 -11 OFFCURVE",
"678 -11 CURVE SMOOTH",
"614 -11 OFFCURVE",
"554 -9 OFFCURVE",
"497 -4 CURVE",
"487 -4 OFFCURVE",
"469 -3 OFFCURVE",
"444 -2 CURVE SMOOTH",
"419 -1 OFFCURVE",
"393 0 OFFCURVE",
"367 0 CURVE SMOOTH",
"53 0 LINE",
"53 134 LINE"
);
},
{
closed = 1;
nodes = (
"545 766 LINE",
"566 763 OFFCURVE",
"605 762 OFFCURVE",
"663 762 CURVE SMOOTH",
"779 762 OFFCURVE",
"825 853 OFFCURVE",
"825 1014 CURVE SMOOTH",
"825 1155 OFFCURVE",
"768 1219 OFFCURVE",
"648 1219 CURVE",
"637 1218 OFFCURVE",
"619 1217 OFFCURVE",
"594 1216 CURVE SMOOTH",
"569 1215 OFFCURVE",
"552 1213 OFFCURVE",
"545 1211 CURVE"
);
},
{
closed = 1;
nodes = (
"544 142 LINE",
"564 133 OFFCURVE",
"617 126 OFFCURVE",
"665 126 CURVE SMOOTH",
"812 126 OFFCURVE",
"874 221 OFFCURVE",
"874 392 CURVE SMOOTH",
"874 553 OFFCURVE",
"810 612 OFFCURVE",
"673 612 CURVE SMOOTH",
"630 612 OFFCURVE",
"587 611 OFFCURVE",
"544 608 CURVE"
);
}
);
width = 1320;
}
);
note = B;
unicode = 0042;
},
{
glyphname = C;
layers = (
{
layerId = "ED003BF4-EB5B-4214-9209-77B039A8E9AA";
name = Bold;
paths = (
{
closed = 1;
nodes = (
"40 943 OFFCURVE",
"163 1161 OFFCURVE",
"368 1271 CURVE SMOOTH",
"470 1326 OFFCURVE",
"587 1353 OFFCURVE",
"718 1353 CURVE SMOOTH",
"815 1353 OFFCURVE",
"896 1343 OFFCURVE",
"1024 1327 CURVE SMOOTH",
"1076 1320 OFFCURVE",
"1126 1314 OFFCURVE",
"1153 1314 CURVE",
"1129 872 LINE",
"901 872 LINE",
"832 1174 LINE",
"809 1199 OFFCURVE",
"766 1211 OFFCURVE",
"703 1211 CURVE SMOOTH",
"623 1211 OFFCURVE",
"561 1167 OFFCURVE",
"517 1079 CURVE SMOOTH",
"473 990 OFFCURVE",
"451 857 OFFCURVE",
"451 679 CURVE SMOOTH",
"451 454 OFFCURVE",
"491 283 OFFCURVE",
"568 192 CURVE SMOOTH",
"606 147 OFFCURVE",
"653 124 OFFCURVE",
"708 124 CURVE SMOOTH",
"792 124 OFFCURVE",
"826 143 OFFCURVE",
"857 176 CURVE",
"943 378 LINE",
"1149 361 LINE",
"1120 49 LINE",
"1079 45 OFFCURVE",
"1045 37 OFFCURVE",
"988 22 CURVE SMOOTH",
"888 -5 OFFCURVE",
"813 -20 OFFCURVE",
"685 -20 CURVE SMOOTH",
"398 -20 OFFCURVE",
"206 94 OFFCURVE",
"111 295 CURVE SMOOTH",
"64 395 OFFCURVE",
"40 514 OFFCURVE",
"40 651 CURVE SMOOTH"
);
}
);
width = 1200;
}
);
note = C;
unicode = 0043;
},
{
glyphname = Cacute;
layers = (
{
layerId = "ED003BF4-EB5B-4214-9209-77B039A8E9AA";
name = Bold;
paths = (
{
closed = 1;
nodes = (
"40 943 OFFCURVE",
"163 1161 OFFCURVE",
"368 1271 CURVE SMOOTH",
"470 1326 OFFCURVE",
"587 1353 OFFCURVE",
"718 1353 CURVE SMOOTH",
"815 1353 OFFCURVE",
"896 1343 OFFCURVE",
"1024 1327 CURVE SMOOTH",
"1076 1320 OFFCURVE",
"1126 1314 OFFCURVE",
"1153 1314 CURVE",
"1129 872 LINE",
"901 872 LINE",
"832 1174 LINE",
"809 1199 OFFCURVE",
"766 1211 OFFCURVE",
"703 1211 CURVE SMOOTH",
"623 1211 OFFCURVE",
"561 1167 OFFCURVE",
"517 1079 CURVE SMOOTH",
"473 990 OFFCURVE",
"451 857 OFFCURVE",
"451 679 CURVE SMOOTH",
"451 454 OFFCURVE",
"491 283 OFFCURVE",
"568 192 CURVE SMOOTH",
"606 147 OFFCURVE",
"653 124 OFFCURVE",
"708 124 CURVE SMOOTH",
"792 124 OFFCURVE",
"826 143 OFFCURVE",
"857 176 CURVE",
"943 378 LINE",
"1149 361 LINE",
"1120 49 LINE",
"1079 45 OFFCURVE",
"1045 37 OFFCURVE",
"988 22 CURVE SMOOTH",
"888 -5 OFFCURVE",
"813 -20 OFFCURVE",
"685 -20 CURVE SMOOTH",
"398 -20 OFFCURVE",
"206 94 OFFCURVE",
"111 295 CURVE SMOOTH",
"64 395 OFFCURVE",
"40 514 OFFCURVE",
"40 651 CURVE SMOOTH"
);
},
{
closed = 1;
nodes = (
"819 1772 LINE",
"819 1772 LINE",
"1032 1632 LINE",
"964 1559 OFFCURVE",
"864 1489 OFFCURVE",
"781 1445 CURVE SMOOTH",
"740 1422 OFFCURVE",
"708 1408 OFFCURVE",
"687 1402 CURVE",
"686 1402 LINE",
"559 1492 LINE"
);
}
);
width = 1200;
}
);
note = Cacute;
unicode = 0106;
},
{
glyphname = Ccaron;
layers = (
{
layerId = "ED003BF4-EB5B-4214-9209-77B039A8E9AA";
name = Bold;
paths = (
{
closed = 1;
nodes = (
"40 943 OFFCURVE",
"163 1161 OFFCURVE",
"368 1271 CURVE SMOOTH",
"470 1326 OFFCURVE",
"587 1353 OFFCURVE",
"718 1353 CURVE SMOOTH",
"815 1353 OFFCURVE",
"896 1343 OFFCURVE",
"1024 1327 CURVE SMOOTH",
"1076 1320 OFFCURVE",
"1126 1314 OFFCURVE",
"1153 1314 CURVE",
"1129 872 LINE",
"901 872 LINE",
"832 1174 LINE",
"809 1199 OFFCURVE",
"766 1211 OFFCURVE",
"703 1211 CURVE SMOOTH",
"623 1211 OFFCURVE",
"561 1167 OFFCURVE",
"517 1079 CURVE SMOOTH",
"473 990 OFFCURVE",
"451 857 OFFCURVE",
"451 679 CURVE SMOOTH",
"451 454 OFFCURVE",
"491 283 OFFCURVE",
"568 192 CURVE SMOOTH",
"606 147 OFFCURVE",
"653 124 OFFCURVE",
"708 124 CURVE SMOOTH",
"792 124 OFFCURVE",
"826 143 OFFCURVE",
"857 176 CURVE",
"943 378 LINE",
"1149 361 LINE",
"1120 49 LINE",
"1079 45 OFFCURVE",
"1045 37 OFFCURVE",
"988 22 CURVE SMOOTH",
"888 -5 OFFCURVE",
"813 -20 OFFCURVE",
"685 -20 CURVE SMOOTH",
"398 -20 OFFCURVE",
"206 94 OFFCURVE",
"111 295 CURVE SMOOTH",
"64 395 OFFCURVE",
"40 514 OFFCURVE",
"40 651 CURVE SMOOTH"
);
},
{
closed = 1;
nodes = (
"449 1772 LINE",
"698 1619 LINE",
"964 1772 LINE",
"1075 1676 LINE",
"791 1422 LINE",
"607 1422 LINE",
"338 1677 LINE"
);
}
);
width = 1200;
}
);
note = Ccaron;
unicode = 010C;
},
{
glyphname = Ccedilla;
layers = (
{
layerId = "ED003BF4-EB5B-4214-9209-77B039A8E9AA";
name = Bold;
paths = (
{
closed = 1;
nodes = (
"943 378 LINE",
"1149 361 LINE",
"1120 49 LINE",
"1079 45 OFFCURVE",
"1044 37 OFFCURVE",
"989 22 CURVE SMOOTH",
"909 1 OFFCURVE",
"859 -10 OFFCURVE",
"779 -17 CURVE",
"838 -80 OFFCURVE",
"888 -169 OFFCURVE",
"884 -261 CURVE SMOOTH",
"877 -369 OFFCURVE",
"831 -429 OFFCURVE",
"750 -455 CURVE SMOOTH",
"709 -468 OFFCURVE",
"658 -475 OFFCURVE",
"596 -475 CURVE SMOOTH",
"595 -475 LINE SMOOTH",
"555 -475 OFFCURVE",
"500 -462 OFFCURVE",
"468 -449 CURVE",
"469 -260 LINE",
"492 -268 OFFCURVE",
"526 -272 OFFCURVE",
"541 -272 CURVE SMOOTH",
"542 -272 LINE SMOOTH",
"601 -272 OFFCURVE",
"631 -265 OFFCURVE",
"649 -229 CURVE SMOOTH",
"658 -212 OFFCURVE",
"662 -185 OFFCURVE",
"662 -150 CURVE SMOOTH",
"662 -109 OFFCURVE",
"644 -58 OFFCURVE",
"621 -18 CURVE",
"364 -2 OFFCURVE",
"189 115 OFFCURVE",
"104 310 CURVE SMOOTH",
"61 407 OFFCURVE",
"40 521 OFFCURVE",
"40 651 CURVE SMOOTH",
"40 943 OFFCURVE",
"163 1161 OFFCURVE",
"368 1271 CURVE SMOOTH",
"470 1326 OFFCURVE",
"587 1353 OFFCURVE",
"718 1353 CURVE SMOOTH",
"815 1353 OFFCURVE",
"896 1343 OFFCURVE",
"1024 1327 CURVE SMOOTH",
"1076 1320 OFFCURVE",
"1126 1314 OFFCURVE",
"1153 1314 CURVE",
"1129 872 LINE",
"901 872 LINE",
"832 1174 LINE",
"809 1199 OFFCURVE",
"766 1211 OFFCURVE",
"703 1211 CURVE SMOOTH",
"623 1211 OFFCURVE",
"561 1167 OFFCURVE",
"517 1079 CURVE SMOOTH",
"473 990 OFFCURVE",
"451 857 OFFCURVE",
"451 679 CURVE SMOOTH",
"451 454 OFFCURVE",
"491 283 OFFCURVE",
"568 192 CURVE SMOOTH",
"606 147 OFFCURVE",
"653 124 OFFCURVE",
"708 124 CURVE SMOOTH",
"792 124 OFFCURVE",
"826 143 OFFCURVE",
"857 176 CURVE"
);
}
);
width = 1200;
}
);
note = Ccedilla;
unicode = 00C7;
},
{
glyphname = Ccircumflex;
layers = (
{
layerId = "ED003BF4-EB5B-4214-9209-77B039A8E9AA";
name = Bold;
paths = (
{
closed = 1;
nodes = (
"40 943 OFFCURVE",
"163 1161 OFFCURVE",
"368 1271 CURVE SMOOTH",
"470 1326 OFFCURVE",
"587 1353 OFFCURVE",
"718 1353 CURVE SMOOTH",
"815 1353 OFFCURVE",
"896 1343 OFFCURVE",
"1024 1327 CURVE SMOOTH",
"1076 1320 OFFCURVE",
"1126 1314 OFFCURVE",
"1153 1314 CURVE",
"1129 872 LINE",
"901 872 LINE",
"832 1174 LINE",
"809 1199 OFFCURVE",
"766 1211 OFFCURVE",
"703 1211 CURVE SMOOTH",
"623 1211 OFFCURVE",
"561 1167 OFFCURVE",
"517 1079 CURVE SMOOTH",
"473 990 OFFCURVE",
"451 857 OFFCURVE",
"451 679 CURVE SMOOTH",
"451 454 OFFCURVE",
"491 283 OFFCURVE",
"568 192 CURVE SMOOTH",
"606 147 OFFCURVE",
"653 124 OFFCURVE",
"708 124 CURVE SMOOTH",
"792 124 OFFCURVE",
"826 143 OFFCURVE",
"857 176 CURVE",
"943 378 LINE",
"1149 361 LINE",
"1120 49 LINE",
"1079 45 OFFCURVE",
"1045 37 OFFCURVE",
"988 22 CURVE SMOOTH",
"888 -5 OFFCURVE",
"813 -20 OFFCURVE",
"685 -20 CURVE SMOOTH",
"398 -20 OFFCURVE",
"206 94 OFFCURVE",
"111 295 CURVE SMOOTH",
"64 395 OFFCURVE",
"40 514 OFFCURVE",
"40 651 CURVE SMOOTH"
);
},
{
closed = 1;
nodes = (
"606 1764 LINE",
"790 1764 LINE",
"1074 1500 LINE",
"963 1404 LINE",
"697 1567 LINE",
"431 1404 LINE",
"320 1500 LINE"
);
}
);
width = 1200;
}
);
note = Ccircumflex;
unicode = 0108;
},
{
glyphname = Cdotaccent;
layers = (
{
layerId = "ED003BF4-EB5B-4214-9209-77B039A8E9AA";
name = Bold;
paths = (
{
closed = 1;
nodes = (
"516 1697 OFFCURVE",
"583 1761 OFFCURVE",
"702 1761 CURVE",
"702 1761 LINE",
"815 1761 OFFCURVE",
"883 1702 OFFCURVE",
"883 1614 CURVE SMOOTH",
"883 1505 OFFCURVE",
"817 1441 OFFCURVE",
"685 1441 CURVE SMOOTH",
"684 1441 LINE SMOOTH",
"620 1441 OFFCURVE",
"566 1469 OFFCURVE",
"538 1514 CURVE SMOOTH",
"523 1537 OFFCURVE",
"516 1562 OFFCURVE",
"516 1590 CURVE SMOOTH"
);
},
{
closed = 1;
nodes = (
"40 943 OFFCURVE",
"163 1161 OFFCURVE",
"368 1271 CURVE SMOOTH",
"470 1326 OFFCURVE",
"587 1353 OFFCURVE",
"718 1353 CURVE SMOOTH",
"815 1353 OFFCURVE",
"896 1343 OFFCURVE",
"1024 1327 CURVE SMOOTH",
"1076 1320 OFFCURVE",
"1126 1314 OFFCURVE",
"1153 1314 CURVE",
"1129 872 LINE",
"901 872 LINE",
"832 1174 LINE",
"809 1199 OFFCURVE",
"766 1211 OFFCURVE",
"703 1211 CURVE SMOOTH",
"623 1211 OFFCURVE",
"561 1167 OFFCURVE",
"517 1079 CURVE SMOOTH",
"473 990 OFFCURVE",
"451 857 OFFCURVE",
"451 679 CURVE SMOOTH",
"451 454 OFFCURVE",
"491 283 OFFCURVE",
"568 192 CURVE SMOOTH",
"606 147 OFFCURVE",
"653 124 OFFCURVE",
"708 124 CURVE SMOOTH",
"792 124 OFFCURVE",
"826 143 OFFCURVE",
"857 176 CURVE",
"943 378 LINE",
"1149 361 LINE",
"1120 49 LINE",
"1079 45 OFFCURVE",
"1045 37 OFFCURVE",
"988 22 CURVE SMOOTH",
"888 -5 OFFCURVE",
"813 -20 OFFCURVE",
"685 -20 CURVE SMOOTH",
"398 -20 OFFCURVE",
"206 94 OFFCURVE",
"111 295 CURVE SMOOTH",
"64 395 OFFCURVE",
"40 514 OFFCURVE",
"40 651 CURVE SMOOTH"
);
}
);
width = 1200;
}
);
note = Cdotaccent;
unicode = 010A;
},
{
glyphname = D;
layers = (
{
layerId = "ED003BF4-EB5B-4214-9209-77B039A8E9AA";
name = Bold;
paths = (
{
closed = 1;
nodes = (
"184 155 LINE",
"184 1170 LINE",
"56 1197 LINE",
"56 1339 LINE",
"361 1339 LINE SMOOTH",
"402 1339 OFFCURVE",
"455 1341 OFFCURVE",
"520 1345 CURVE SMOOTH",
"544 1346 OFFCURVE",
"616 1349 OFFCURVE",
"675 1349 CURVE SMOOTH",
"1111 1349 OFFCURVE",
"1337 1130 OFFCURVE",
"1337 719 CURVE SMOOTH",
"1337 440 OFFCURVE",
"1227 209 OFFCURVE",
"1026 82 CURVE SMOOTH",
"925 18 OFFCURVE",
"806 -14 OFFCURVE",
"667 -14 CURVE SMOOTH",
"634 -14 OFFCURVE",
"571 -11 OFFCURVE",
"480 -6 CURVE SMOOTH",
"425 -2 OFFCURVE",
"387 0 OFFCURVE",
"364 0 CURVE SMOOTH",
"53 0 LINE",
"53 134 LINE"
);
},
{
closed = 1;
nodes = (
"544 150 LINE",
"568 138 OFFCURVE",
"605 132 OFFCURVE",
"654 132 CURVE SMOOTH",
"839 133 OFFCURVE",
"936 295 OFFCURVE",
"936 671 CURVE SMOOTH",
"936 1031 OFFCURVE",
"837 1211 OFFCURVE",
"640 1211 CURVE SMOOTH",
"610 1211 OFFCURVE",
"587 1209 OFFCURVE",
"571 1204 CURVE SMOOTH",
"555 1199 OFFCURVE",
"546 1197 OFFCURVE",
"544 1196 CURVE"
);
}
);
width = 1379;
}
);
note = D;
unicode = 0044;
},
{
glyphname = Eth;
layers = (
{
layerId = "ED003BF4-EB5B-4214-9209-77B039A8E9AA";
name = Bold;
paths = (
{
closed = 1;
nodes = (
"184 760 LINE",
"184 1170 LINE",
"56 1197 LINE",
"56 1339 LINE",
"361 1339 LINE SMOOTH",
"402 1339 OFFCURVE",
"455 1341 OFFCURVE",
"520 1345 CURVE SMOOTH",
"544 1346 OFFCURVE",
"616 1349 OFFCURVE",
"675 1349 CURVE SMOOTH",
"1111 1349 OFFCURVE",
"1337 1130 OFFCURVE",
"1337 719 CURVE SMOOTH",
"1337 440 OFFCURVE",
"1227 209 OFFCURVE",
"1026 82 CURVE SMOOTH",
"925 18 OFFCURVE",
"806 -14 OFFCURVE",
"667 -14 CURVE SMOOTH",
"634 -14 OFFCURVE",
"571 -11 OFFCURVE",
"480 -6 CURVE SMOOTH",
"425 -2 OFFCURVE",
"387 0 OFFCURVE",
"364 0 CURVE SMOOTH",
"53 0 LINE",
"53 134 LINE",
"184 155 LINE",
"184 621 LINE",
"64 621 LINE",
"64 760 LINE"
);
},
{
closed = 1;
nodes = (
"764 760 LINE",
"764 621 LINE",
"544 621 LINE",
"544 150 LINE",
"568 138 OFFCURVE",
"605 132 OFFCURVE",
"654 132 CURVE SMOOTH",
"839 133 OFFCURVE",
"936 295 OFFCURVE",
"936 671 CURVE SMOOTH",
"936 1031 OFFCURVE",
"837 1211 OFFCURVE",
"640 1211 CURVE SMOOTH",
"610 1211 OFFCURVE",
"587 1209 OFFCURVE",
"571 1204 CURVE SMOOTH",
"555 1199 OFFCURVE",
"546 1197 OFFCURVE",
"544 1196 CURVE",
"544 760 LINE"
);
}
);
width = 1379;
}
);
note = Eth;
unicode = 00D0;
},
{
glyphname = Dcaron;
layers = (
{
layerId = "ED003BF4-EB5B-4214-9209-77B039A8E9AA";
name = Bold;
paths = (
{
closed = 1;
nodes = (
"443 1772 LINE",
"692 1619 LINE",
"958 1772 LINE",
"1069 1676 LINE",
"785 1422 LINE",
"601 1422 LINE",
"332 1677 LINE"
);
},
{
closed = 1;
nodes = (
"184 155 LINE",
"184 1170 LINE",
"56 1197 LINE",
"56 1339 LINE",
"361 1339 LINE SMOOTH",
"402 1339 OFFCURVE",
"455 1341 OFFCURVE",
"520 1345 CURVE SMOOTH",
"544 1346 OFFCURVE",
"616 1349 OFFCURVE",
"675 1349 CURVE SMOOTH",
"1111 1349 OFFCURVE",
"1337 1130 OFFCURVE",
"1337 719 CURVE SMOOTH",
"1337 440 OFFCURVE",
"1227 209 OFFCURVE",
"1026 82 CURVE SMOOTH",
"925 18 OFFCURVE",
"806 -14 OFFCURVE",
"667 -14 CURVE SMOOTH",
"634 -14 OFFCURVE",
"571 -11 OFFCURVE",
"480 -6 CURVE SMOOTH",
"425 -2 OFFCURVE",
"387 0 OFFCURVE",
"364 0 CURVE SMOOTH",
"53 0 LINE",
"53 134 LINE"
);
},
{
closed = 1;
nodes = (
"544 150 LINE",
"568 138 OFFCURVE",
"605 132 OFFCURVE",
"654 132 CURVE SMOOTH",
"839 133 OFFCURVE",
"936 295 OFFCURVE",
"936 671 CURVE SMOOTH",
"936 1031 OFFCURVE",
"837 1211 OFFCURVE",
"640 1211 CURVE SMOOTH",
"610 1211 OFFCURVE",
"587 1209 OFFCURVE",
"571 1204 CURVE SMOOTH",
"555 1199 OFFCURVE",
"546 1197 OFFCURVE",
"544 1196 CURVE"
);
}
);
width = 1379;
}
);
note = Dcaron;
unicode = 010E;
},
{
glyphname = Dcroat;
layers = (
{
layerId = "ED003BF4-EB5B-4214-9209-77B039A8E9AA";
name = Bold;
paths = (
{
closed = 1;
nodes = (
"184 759 LINE",
"184 1170 LINE",
"56 1197 LINE",
"56 1339 LINE",
"361 1339 LINE SMOOTH",
"402 1339 OFFCURVE",
"455 1341 OFFCURVE",
"520 1345 CURVE SMOOTH",
"544 1346 OFFCURVE",
"616 1349 OFFCURVE",
"675 1349 CURVE SMOOTH",
"1111 1349 OFFCURVE",
"1337 1130 OFFCURVE",
"1337 719 CURVE SMOOTH",
"1337 440 OFFCURVE",
"1227 209 OFFCURVE",
"1026 82 CURVE SMOOTH",
"925 18 OFFCURVE",
"806 -14 OFFCURVE",
"667 -14 CURVE SMOOTH",
"634 -14 OFFCURVE",
"571 -11 OFFCURVE",
"480 -6 CURVE SMOOTH",
"425 -2 OFFCURVE",
"387 0 OFFCURVE",
"364 0 CURVE SMOOTH",
"53 0 LINE",
"53 134 LINE",
"184 155 LINE",
"184 615 LINE",
"45 615 LINE",
"45 759 LINE"
);
},
{
closed = 1;
nodes = (
"744 759 LINE",
"744 615 LINE",
"544 615 LINE",
"544 150 LINE",
"568 138 OFFCURVE",
"605 132 OFFCURVE",
"654 132 CURVE SMOOTH",
"839 133 OFFCURVE",
"936 295 OFFCURVE",
"936 671 CURVE SMOOTH",
"936 1031 OFFCURVE",
"837 1211 OFFCURVE",
"640 1211 CURVE SMOOTH",
"610 1211 OFFCURVE",
"587 1209 OFFCURVE",
"571 1204 CURVE SMOOTH",
"555 1199 OFFCURVE",
"546 1197 OFFCURVE",
"544 1196 CURVE",
"544 759 LINE"
);
}
);
width = 1379;
}
);
note = Dcroat;
unicode = 0110;
},
{
glyphname = E;
layers = (
{
layerId = "ED003BF4-EB5B-4214-9209-77B039A8E9AA";
name = Bold;
paths = (
{
closed = 1;
nodes = (
"184 154 LINE",
"184 1170 LINE",
"48 1197 LINE",
"48 1339 LINE",
"1065 1339 LINE",
"1089 1001 LINE",
"927 1001 LINE",
"859 1186 LINE",
"550 1208 LINE",
"550 759 LINE",
"730 764 LINE",
"765 910 LINE",
"900 910 LINE",
"900 440 LINE",
"765 440 LINE",
"732 598 LINE",
"550 602 LINE",
"550 137 LINE",
"888 165 LINE",
"1004 400 LINE",
"1181 351 LINE",
"1142 0 LINE",
"53 0 LINE",
"53 134 LINE"
);
}
);
width = 1188;
}
);
note = E;
unicode = 0045;
},
{
glyphname = Eacute;
layers = (
{
layerId = "ED003BF4-EB5B-4214-9209-77B039A8E9AA";
name = Bold;
paths = (
{
closed = 1;
nodes = (
"714 1772 LINE",
"714 1772 LINE",
"927 1632 LINE",
"859 1559 OFFCURVE",
"759 1489 OFFCURVE",
"676 1445 CURVE SMOOTH",
"635 1422 OFFCURVE",
"603 1408 OFFCURVE",
"582 1402 CURVE",
"581 1402 LINE",
"454 1492 LINE"
);
},
{
closed = 1;
nodes = (
"184 154 LINE",
"184 1170 LINE",
"48 1197 LINE",
"48 1339 LINE",
"1065 1339 LINE",
"1089 1001 LINE",
"927 1001 LINE",
"859 1186 LINE",
"550 1208 LINE",
"550 759 LINE",
"730 764 LINE",
"765 910 LINE",
"900 910 LINE",
"900 440 LINE",
"765 440 LINE",
"732 598 LINE",
"550 602 LINE",
"550 137 LINE",
"888 165 LINE",
"1004 400 LINE",
"1181 351 LINE",
"1142 0 LINE",
"53 0 LINE",
"53 134 LINE"
);
}
);
width = 1188;
}
);
note = Eacute;
unicode = 00C9;
},
{
glyphname = Ebreve;
layers = (
{
layerId = "ED003BF4-EB5B-4214-9209-77B039A8E9AA";
name = Bold;
paths = (
{
closed = 1;
nodes = (
"263 1746 OFFCURVE",
"264 1759 OFFCURVE",
"265 1768 CURVE",
"427 1768 LINE",
"429 1749 LINE",
"440 1685 OFFCURVE",
"493 1625 OFFCURVE",
"621 1625 CURVE SMOOTH",
"748 1625 OFFCURVE",
"795 1684 OFFCURVE",
"803 1749 CURVE",
"804 1754 OFFCURVE",
"804 1761 OFFCURVE",
"804 1768 CURVE",
"972 1768 LINE",
"973 1759 OFFCURVE",
"974 1746 OFFCURVE",
"974 1728 CURVE SMOOTH",
"974 1619 OFFCURVE",
"920 1521 OFFCURVE",
"813 1464 CURVE SMOOTH",
"760 1435 OFFCURVE",
"695 1421 OFFCURVE",
"619 1421 CURVE SMOOTH",
"463 1421 OFFCURVE",
"355 1483 OFFCURVE",
"303 1575 CURVE SMOOTH",
"276 1621 OFFCURVE",
"263 1672 OFFCURVE",
"263 1727 CURVE SMOOTH"
);
},
{
closed = 1;
nodes = (
"184 154 LINE",
"184 1170 LINE",
"48 1197 LINE",
"48 1339 LINE",
"1065 1339 LINE",
"1089 1001 LINE",
"927 1001 LINE",
"859 1186 LINE",
"550 1208 LINE",
"550 759 LINE",
"730 764 LINE",
"765 910 LINE",
"900 910 LINE",
"900 440 LINE",
"765 440 LINE",
"732 598 LINE",
"550 602 LINE",
"550 137 LINE",
"888 165 LINE",
"1004 400 LINE",
"1181 351 LINE",
"1142 0 LINE",
"53 0 LINE",
"53 134 LINE"
);
}
);
width = 1188;
}
);
note = Ebreve;
unicode = 0114;
},
{
glyphname = Ecaron;
layers = (
{
layerId = "ED003BF4-EB5B-4214-9209-77B039A8E9AA";
name = Bold;
paths = (
{
closed = 1;
nodes = (
"366 1772 LINE",
"615 1619 LINE",
"881 1772 LINE",
"992 1676 LINE",
"708 1422 LINE",
"524 1422 LINE",
"255 1677 LINE"
);
},
{
closed = 1;
nodes = (
"184 154 LINE",
"184 1170 LINE",
"48 1197 LINE",
"48 1339 LINE",
"1065 1339 LINE",
"1089 1001 LINE",
"927 1001 LINE",
"859 1186 LINE",
"550 1208 LINE",
"550 759 LINE",
"730 764 LINE",
"765 910 LINE",
"900 910 LINE",
"900 440 LINE",
"765 440 LINE",
"732 598 LINE",
"550 602 LINE",
"550 137 LINE",
"888 165 LINE",
"1004 400 LINE",
"1181 351 LINE",
"1142 0 LINE",
"53 0 LINE",
"53 134 LINE"
);
}
);
width = 1188;
}
);
note = Ecaron;
unicode = 011A;
},
{
glyphname = Ecircumflex;
layers = (
{
layerId = "ED003BF4-EB5B-4214-9209-77B039A8E9AA";
name = Bold;
paths = (
{
closed = 1;
nodes = (
"184 154 LINE",
"184 1170 LINE",
"48 1197 LINE",
"48 1339 LINE",
"1065 1339 LINE",
"1089 1001 LINE",
"927 1001 LINE",
"859 1186 LINE",
"550 1208 LINE",
"550 759 LINE",
"730 764 LINE",
"765 910 LINE",
"900 910 LINE",
"900 440 LINE",
"765 440 LINE",
"732 598 LINE",
"550 602 LINE",
"550 137 LINE",
"888 165 LINE",
"1004 400 LINE",
"1181 351 LINE",
"1142 0 LINE",
"53 0 LINE",
"53 134 LINE"
);
},
{
closed = 1;
nodes = (
"524 1764 LINE",
"708 1764 LINE",
"992 1500 LINE",
"881 1404 LINE",
"615 1567 LINE",
"349 1404 LINE",
"238 1500 LINE"
);
}
);
width = 1188;
}
);
note = Ecircumflex;
unicode = 00CA;
},
{
glyphname = Edieresis;
layers = (
{
layerId = "ED003BF4-EB5B-4214-9209-77B039A8E9AA";
name = Bold;
paths = (
{
closed = 1;
nodes = (
"207 1689 OFFCURVE",
"267 1761 OFFCURVE",
"380 1761 CURVE SMOOTH",
"381 1761 LINE SMOOTH",
"488 1761 OFFCURVE",
"541 1698 OFFCURVE",
"541 1611 CURVE SMOOTH",
"541 1503 OFFCURVE",
"478 1431 OFFCURVE",
"350 1431 CURVE SMOOTH",
"349 1431 LINE SMOOTH",
"296 1431 OFFCURVE",
"250 1460 OFFCURVE",
"226 1507 CURVE",
"213 1530 OFFCURVE",
"207 1555 OFFCURVE",
"207 1582 CURVE SMOOTH"
);
},
{
closed = 1;
nodes = (
"691 1689 OFFCURVE",
"750 1761 OFFCURVE",
"863 1761 CURVE SMOOTH",
"864 1761 LINE SMOOTH",
"971 1761 OFFCURVE",
"1025 1698 OFFCURVE",
"1025 1611 CURVE SMOOTH",
"1025 1503 OFFCURVE",
"962 1431 OFFCURVE",
"834 1431 CURVE SMOOTH",
"833 1431 LINE SMOOTH",
"781 1431 OFFCURVE",
"734 1465 OFFCURVE",
"710 1512 CURVE",
"697 1535 OFFCURVE",
"691 1559 OFFCURVE",
"691 1582 CURVE SMOOTH"
);
},
{
closed = 1;
nodes = (
"184 154 LINE",
"184 1170 LINE",
"48 1197 LINE",
"48 1339 LINE",
"1065 1339 LINE",
"1089 1001 LINE",
"927 1001 LINE",
"859 1186 LINE",
"550 1208 LINE",
"550 759 LINE",
"730 764 LINE",
"765 910 LINE",
"900 910 LINE",
"900 440 LINE",
"765 440 LINE",
"732 598 LINE",
"550 602 LINE",
"550 137 LINE",
"888 165 LINE",
"1004 400 LINE",
"1181 351 LINE",
"1142 0 LINE",
"53 0 LINE",
"53 134 LINE"
);
}
);
width = 1188;
}
);
note = Edieresis;
unicode = 00CB;
},
{
glyphname = Edotaccent;
layers = (
{
layerId = "ED003BF4-EB5B-4214-9209-77B039A8E9AA";
name = Bold;
paths = (
{
closed = 1;
nodes = (
"433 1697 OFFCURVE",
"500 1761 OFFCURVE",
"619 1761 CURVE",
"619 1761 LINE",
"732 1761 OFFCURVE",
"800 1702 OFFCURVE",
"800 1614 CURVE SMOOTH",
"800 1505 OFFCURVE",
"734 1441 OFFCURVE",
"602 1441 CURVE SMOOTH",
"601 1441 LINE SMOOTH",
"537 1441 OFFCURVE",
"483 1469 OFFCURVE",
"455 1514 CURVE SMOOTH",
"440 1537 OFFCURVE",
"433 1562 OFFCURVE",
"433 1590 CURVE SMOOTH"
);
},
{
closed = 1;
nodes = (
"184 154 LINE",
"184 1170 LINE",
"48 1197 LINE",
"48 1339 LINE",
"1065 1339 LINE",
"1089 1001 LINE",
"927 1001 LINE",
"859 1186 LINE",
"550 1208 LINE",
"550 759 LINE",
"730 764 LINE",
"765 910 LINE",
"900 910 LINE",
"900 440 LINE",
"765 440 LINE",
"732 598 LINE",
"550 602 LINE",
"550 137 LINE",
"888 165 LINE",
"1004 400 LINE",
"1181 351 LINE",
"1142 0 LINE",
"53 0 LINE",
"53 134 LINE"
);
}
);
width = 1188;
}
);
note = Edotaccent;
unicode = 0116;
},
{
glyphname = Egrave;
layers = (
{
layerId = "ED003BF4-EB5B-4214-9209-77B039A8E9AA";
name = Bold;
paths = (
{
closed = 1;
nodes = (
"481 1772 LINE",
"482 1772 LINE",
"742 1492 LINE",
"614 1402 LINE",
"613 1402 LINE",
"564 1415 OFFCURVE",
"464 1469 OFFCURVE",
"375 1535 CURVE SMOOTH",
"330 1568 OFFCURVE",
"295 1600 OFFCURVE",
"268 1632 CURVE"
);
},
{
closed = 1;
nodes = (
"184 154 LINE",
"184 1170 LINE",
"48 1197 LINE",
"48 1339 LINE",
"1065 1339 LINE",
"1089 1001 LINE",
"927 1001 LINE",
"859 1186 LINE",
"550 1208 LINE",
"550 759 LINE",
"730 764 LINE",
"765 910 LINE",
"900 910 LINE",
"900 440 LINE",
"765 440 LINE",
"732 598 LINE",
"550 602 LINE",
"550 137 LINE",
"888 165 LINE",
"1004 400 LINE",
"1181 351 LINE",
"1142 0 LINE",
"53 0 LINE",
"53 134 LINE"
);
}
);
width = 1188;
}
);
note = Egrave;
unicode = 00C8;
},
{
glyphname = Emacron;
layers = (
{
layerId = "ED003BF4-EB5B-4214-9209-77B039A8E9AA";
name = Bold;
paths = (
{
closed = 1;
nodes = (
"922 1688 LINE",
"922 1494 LINE",
"310 1494 LINE",
"310 1688 LINE"
);
},
{
closed = 1;
nodes = (
"184 154 LINE",
"184 1170 LINE",
"48 1197 LINE",
"48 1339 LINE",
"1065 1339 LINE",
"1089 1001 LINE",
"927 1001 LINE",
"859 1186 LINE",
"550 1208 LINE",
"550 759 LINE",
"730 764 LINE",
"765 910 LINE",
"900 910 LINE",
"900 440 LINE",
"765 440 LINE",
"732 598 LINE",
"550 602 LINE",
"550 137 LINE",
"888 165 LINE",
"1004 400 LINE",
"1181 351 LINE",
"1142 0 LINE",
"53 0 LINE",
"53 134 LINE"
);
}
);
width = 1188;
}
);
note = Emacron;
unicode = 0112;
},
{
glyphname = Eogonek;
layers = (
{
layerId = "ED003BF4-EB5B-4214-9209-77B039A8E9AA";
name = Bold;
paths = (
{
closed = 1;
nodes = (
"184 154 LINE",
"184 1170 LINE",
"48 1197 LINE",
"48 1339 LINE",
"1065 1339 LINE",
"1089 1001 LINE",
"927 1001 LINE",
"859 1186 LINE",
"550 1208 LINE",
"550 759 LINE",
"730 764 LINE",
"765 910 LINE",
"900 910 LINE",
"900 440 LINE",
"765 440 LINE",
"732 598 LINE",
"550 602 LINE",
"550 137 LINE",
"888 165 LINE",
"1004 400 LINE",
"1181 351 LINE",
"1142 0 LINE",
"1130 0 LINE",
"1054 -20 OFFCURVE",
"986 -66 OFFCURVE",
"949 -114 CURVE SMOOTH",
"930 -139 OFFCURVE",
"921 -161 OFFCURVE",
"921 -180 CURVE SMOOTH",
"921 -235 OFFCURVE",
"959 -270 OFFCURVE",
"1030 -270 CURVE SMOOTH",
"1070 -270 OFFCURVE",
"1086 -267 OFFCURVE",
"1126 -251 CURVE",
"1126 -394 LINE",
"1077 -431 OFFCURVE",
"978 -453 OFFCURVE",
"898 -453 CURVE SMOOTH",
"794 -453 OFFCURVE",
"718 -421 OFFCURVE",
"679 -365 CURVE SMOOTH",
"660 -337 OFFCURVE",
"650 -305 OFFCURVE",
"650 -268 CURVE SMOOTH",
"650 -157 OFFCURVE",
"743 -57 OFFCURVE",
"915 0 CURVE",
"53 0 LINE",
"53 134 LINE"
);
}
);
width = 1188;
}
);
note = Eogonek;
unicode = 0118;
},
{
glyphname = F;
layers = (
{
layerId = "ED003BF4-EB5B-4214-9209-77B039A8E9AA";
name = Bold;
paths = (
{
closed = 1;
nodes = (
"184 155 LINE",
"184 1170 LINE",
"46 1197 LINE",
"46 1339 LINE",
"1082 1339 LINE",
"1104 987 LINE",
"919 987 LINE",
"838 1180 LINE",
"550 1208 LINE",
"550 722 LINE",
"740 726 LINE",
"779 893 LINE",
"921 893 LINE",
"921 384 LINE",
"781 384 LINE",
"740 555 LINE",
"550 562 LINE",
"550 155 LINE",
"822 134 LINE",
"822 0 LINE",
"52 0 LINE",
"52 134 LINE"
);
}
);
width = 1129;
}
);
note = F;
unicode = 0046;
},
{
glyphname = G;
layers = (
{
layerId = "ED003BF4-EB5B-4214-9209-77B039A8E9AA";
name = Bold;
paths = (
{
closed = 1;
nodes = (
"42 961 OFFCURVE",
"155 1171 OFFCURVE",
"366 1278 CURVE SMOOTH",
"471 1331 OFFCURVE",
"600 1358 OFFCURVE",
"751 1358 CURVE SMOOTH",
"918 1358 OFFCURVE",
"1119 1326 OFFCURVE",
"1223 1302 CURVE",
"1199 935 LINE",
"940 935 LINE",
"884 1184 LINE",
"877 1194 OFFCURVE",
"862 1203 OFFCURVE",
"839 1212 CURVE",
"816 1220 OFFCURVE",
"785 1224 OFFCURVE",
"747 1224 CURVE SMOOTH",
"559 1224 OFFCURVE",
"467 1038 OFFCURVE",
"467 679 CURVE SMOOTH",
"467 498 OFFCURVE",
"487 359 OFFCURVE",
"526 263 CURVE SMOOTH",
"565 167 OFFCURVE",
"630 119 OFFCURVE",
"721 119 CURVE SMOOTH",
"792 119 OFFCURVE",
"850 140 OFFCURVE",
"877 171 CURVE",
"877 535 LINE",
"738 554 LINE",
"738 698 LINE",
"1317 698 LINE",
"1317 554 LINE",
"1235 540 LINE",
"1235 72 LINE",
"1204 71 OFFCURVE",
"1169 63 OFFCURVE",
"1090 43 CURVE SMOOTH",
"938 4 OFFCURVE",
"823 -20 OFFCURVE",
"686 -20 CURVE SMOOTH",
"413 -20 OFFCURVE",
"216 107 OFFCURVE",
"117 313 CURVE SMOOTH",
"67 416 OFFCURVE",
"42 532 OFFCURVE",
"42 662 CURVE SMOOTH"
);
}
);
width = 1351;
}
);
note = G;
unicode = 0047;
},
{
glyphname = Gbreve;
layers = (
{
layerId = "ED003BF4-EB5B-4214-9209-77B039A8E9AA";
name = Bold;
paths = (
{
closed = 1;
nodes = (
"370 1746 OFFCURVE",
"371 1759 OFFCURVE",
"372 1768 CURVE",
"534 1768 LINE",
"536 1749 LINE",
"547 1685 OFFCURVE",
"600 1625 OFFCURVE",
"728 1625 CURVE SMOOTH",
"855 1625 OFFCURVE",
"902 1684 OFFCURVE",
"910 1749 CURVE",
"911 1754 OFFCURVE",
"911 1761 OFFCURVE",
"911 1768 CURVE",
"1079 1768 LINE",
"1080 1759 OFFCURVE",
"1081 1746 OFFCURVE",
"1081 1728 CURVE SMOOTH",
"1081 1619 OFFCURVE",
"1027 1521 OFFCURVE",
"920 1464 CURVE SMOOTH",
"867 1435 OFFCURVE",
"802 1421 OFFCURVE",
"726 1421 CURVE SMOOTH",
"570 1421 OFFCURVE",
"462 1483 OFFCURVE",
"410 1575 CURVE SMOOTH",
"383 1621 OFFCURVE",
"370 1672 OFFCURVE",
"370 1727 CURVE SMOOTH"
);
},
{
closed = 1;
nodes = (
"40 961 OFFCURVE",
"153 1171 OFFCURVE",
"364 1278 CURVE SMOOTH",
"469 1331 OFFCURVE",
"598 1358 OFFCURVE",
"749 1358 CURVE SMOOTH",
"916 1358 OFFCURVE",
"1117 1326 OFFCURVE",
"1221 1302 CURVE",
"1197 935 LINE",
"938 935 LINE",
"882 1184 LINE",
"875 1194 OFFCURVE",
"860 1203 OFFCURVE",
"837 1212 CURVE",
"814 1220 OFFCURVE",
"783 1224 OFFCURVE",
"745 1224 CURVE SMOOTH",
"557 1224 OFFCURVE",
"465 1038 OFFCURVE",
"465 679 CURVE SMOOTH",
"465 498 OFFCURVE",
"485 359 OFFCURVE",
"524 263 CURVE SMOOTH",
"563 167 OFFCURVE",
"628 119 OFFCURVE",
"719 119 CURVE SMOOTH",
"790 119 OFFCURVE",
"848 140 OFFCURVE",
"875 171 CURVE",
"875 535 LINE",
"736 554 LINE",
"736 698 LINE",
"1315 698 LINE",
"1315 554 LINE",
"1233 540 LINE",
"1233 72 LINE",
"1202 71 OFFCURVE",
"1167 63 OFFCURVE",
"1088 43 CURVE SMOOTH",
"936 4 OFFCURVE",
"821 -20 OFFCURVE",
"684 -20 CURVE SMOOTH",
"411 -20 OFFCURVE",
"214 107 OFFCURVE",
"115 313 CURVE SMOOTH",
"65 416 OFFCURVE",
"40 532 OFFCURVE",
"40 662 CURVE SMOOTH"
);
}
);
width = 1354;
}
);
note = Gbreve;
unicode = 011E;
},
{
glyphname = Gcaron;
layers = (
{
layerId = "ED003BF4-EB5B-4214-9209-77B039A8E9AA";
name = Bold;
paths = (
{
closed = 1;
nodes = (
"42 961 OFFCURVE",
"155 1171 OFFCURVE",
"366 1278 CURVE SMOOTH",
"471 1331 OFFCURVE",
"600 1358 OFFCURVE",
"751 1358 CURVE SMOOTH",
"918 1358 OFFCURVE",
"1119 1326 OFFCURVE",
"1223 1302 CURVE",
"1199 935 LINE",
"940 935 LINE",
"884 1184 LINE",
"877 1194 OFFCURVE",
"862 1203 OFFCURVE",
"839 1212 CURVE",
"816 1220 OFFCURVE",
"785 1224 OFFCURVE",
"747 1224 CURVE SMOOTH",
"559 1224 OFFCURVE",
"467 1038 OFFCURVE",
"467 679 CURVE SMOOTH",
"467 498 OFFCURVE",
"487 359 OFFCURVE",
"526 263 CURVE SMOOTH",
"565 167 OFFCURVE",
"630 119 OFFCURVE",
"721 119 CURVE SMOOTH",
"792 119 OFFCURVE",
"850 140 OFFCURVE",
"877 171 CURVE",
"877 535 LINE",
"738 554 LINE",
"738 698 LINE",
"1317 698 LINE",
"1317 554 LINE",
"1235 540 LINE",
"1235 72 LINE",
"1204 71 OFFCURVE",
"1169 63 OFFCURVE",
"1090 43 CURVE SMOOTH",
"938 4 OFFCURVE",
"823 -20 OFFCURVE",
"686 -20 CURVE SMOOTH",
"413 -20 OFFCURVE",
"216 107 OFFCURVE",
"117 313 CURVE SMOOTH",
"67 416 OFFCURVE",
"42 532 OFFCURVE",
"42 662 CURVE SMOOTH"
);
},
{
closed = 1;
nodes = (
"514 1772 LINE",
"763 1619 LINE",
"1029 1772 LINE",
"1140 1676 LINE",
"856 1422 LINE",
"672 1422 LINE",
"403 1677 LINE"
);
}
);
width = 1351;
}
);
note = Gcaron;
unicode = 01E6;
},
{
glyphname = Gcircumflex;
layers = (
{
layerId = "ED003BF4-EB5B-4214-9209-77B039A8E9AA";
name = Bold;
paths = (
{
closed = 1;
nodes = (
"42 961 OFFCURVE",
"155 1171 OFFCURVE",
"366 1278 CURVE SMOOTH",
"471 1331 OFFCURVE",
"600 1358 OFFCURVE",
"751 1358 CURVE SMOOTH",
"918 1358 OFFCURVE",
"1119 1326 OFFCURVE",
"1223 1302 CURVE",
"1199 935 LINE",
"940 935 LINE",
"884 1184 LINE",
"877 1194 OFFCURVE",
"862 1203 OFFCURVE",
"839 1212 CURVE",
"816 1220 OFFCURVE",
"785 1224 OFFCURVE",
"747 1224 CURVE SMOOTH",
"559 1224 OFFCURVE",
"467 1038 OFFCURVE",
"467 679 CURVE SMOOTH",
"467 498 OFFCURVE",
"487 359 OFFCURVE",
"526 263 CURVE SMOOTH",
"565 167 OFFCURVE",
"630 119 OFFCURVE",
"721 119 CURVE SMOOTH",
"792 119 OFFCURVE",
"850 140 OFFCURVE",
"877 171 CURVE",
"877 535 LINE",
"738 554 LINE",
"738 698 LINE",
"1317 698 LINE",
"1317 554 LINE",
"1235 540 LINE",
"1235 72 LINE",
"1204 71 OFFCURVE",
"1169 63 OFFCURVE",
"1090 43 CURVE SMOOTH",
"938 4 OFFCURVE",
"823 -20 OFFCURVE",
"686 -20 CURVE SMOOTH",
"413 -20 OFFCURVE",
"216 107 OFFCURVE",
"117 313 CURVE SMOOTH",
"67 416 OFFCURVE",
"42 532 OFFCURVE",
"42 662 CURVE SMOOTH"
);
},
{
closed = 1;
nodes = (
"671 1764 LINE",
"855 1764 LINE",
"1139 1500 LINE",
"1028 1404 LINE",
"762 1567 LINE",
"496 1404 LINE",
"385 1500 LINE"
);
}
);
width = 1351;
}
);
note = Gcircumflex;
unicode = 011C;
},
{
glyphname = Gcommaaccent;
layers = (
{
layerId = "ED003BF4-EB5B-4214-9209-77B039A8E9AA";
name = Bold;
paths = (
{
closed = 1;
nodes = (
"701 -493 LINE",
"593 -468 LINE",
"588 -454 LINE",
"611 -446 OFFCURVE",
"626 -392 OFFCURVE",
"626 -348 CURVE SMOOTH",
"626 -313 OFFCURVE",
"612 -296 OFFCURVE",
"592 -284 CURVE",
"569 -267 OFFCURVE",
"549 -235 OFFCURVE",
"549 -194 CURVE SMOOTH",
"549 -137 OFFCURVE",
"586 -102 OFFCURVE",
"635 -86 CURVE SMOOTH",
"659 -79 OFFCURVE",
"683 -75 OFFCURVE",
"707 -75 CURVE SMOOTH",
"713 -75 LINE SMOOTH",
"804 -75 OFFCURVE",
"864 -129 OFFCURVE",
"864 -222 CURVE SMOOTH",
"863 -302 OFFCURVE",
"821 -386 OFFCURVE",
"770 -441 CURVE SMOOTH",
"745 -469 OFFCURVE",
"723 -486 OFFCURVE",
"705 -493 CURVE"
);
},
{
closed = 1;
nodes = (
"40 961 OFFCURVE",
"153 1171 OFFCURVE",
"364 1278 CURVE SMOOTH",
"469 1331 OFFCURVE",
"598 1358 OFFCURVE",
"749 1358 CURVE SMOOTH",
"916 1358 OFFCURVE",
"1117 1326 OFFCURVE",
"1221 1302 CURVE",
"1197 935 LINE",
"938 935 LINE",
"882 1184 LINE",
"875 1194 OFFCURVE",
"860 1203 OFFCURVE",
"837 1212 CURVE",
"814 1220 OFFCURVE",
"783 1224 OFFCURVE",
"745 1224 CURVE SMOOTH",
"557 1224 OFFCURVE",
"465 1038 OFFCURVE",
"465 679 CURVE SMOOTH",
"465 498 OFFCURVE",
"485 359 OFFCURVE",
"524 263 CURVE SMOOTH",
"563 167 OFFCURVE",
"628 119 OFFCURVE",
"719 119 CURVE SMOOTH",
"790 119 OFFCURVE",
"848 140 OFFCURVE",
"875 171 CURVE",
"875 535 LINE",
"736 554 LINE",
"736 698 LINE",
"1315 698 LINE",
"1315 554 LINE",
"1233 540 LINE",
"1233 72 LINE",
"1202 71 OFFCURVE",
"1167 63 OFFCURVE",
"1088 43 CURVE SMOOTH",
"936 4 OFFCURVE",
"821 -20 OFFCURVE",
"684 -20 CURVE SMOOTH",
"411 -20 OFFCURVE",
"214 107 OFFCURVE",
"115 313 CURVE SMOOTH",
"65 416 OFFCURVE",
"40 532 OFFCURVE",
"40 662 CURVE SMOOTH"
);
}
);
width = 1354;
}
);
note = Gcommaaccent;
unicode = 0122;
},
{
glyphname = Gdotaccent;
layers = (
{
layerId = "ED003BF4-EB5B-4214-9209-77B039A8E9AA";
name = Bold;
paths = (
{
closed = 1;
nodes = (
"544 1697 OFFCURVE",
"611 1761 OFFCURVE",
"730 1761 CURVE",
"730 1761 LINE",
"843 1761 OFFCURVE",
"911 1702 OFFCURVE",
"911 1614 CURVE SMOOTH",
"911 1505 OFFCURVE",
"845 1441 OFFCURVE",
"713 1441 CURVE SMOOTH",
"712 1441 LINE SMOOTH",
"648 1441 OFFCURVE",
"594 1469 OFFCURVE",
"566 1514 CURVE SMOOTH",
"551 1537 OFFCURVE",
"544 1562 OFFCURVE",
"544 1590 CURVE SMOOTH"
);
},
{
closed = 1;
nodes = (
"40 961 OFFCURVE",
"153 1171 OFFCURVE",
"364 1278 CURVE SMOOTH",
"469 1331 OFFCURVE",
"598 1358 OFFCURVE",
"749 1358 CURVE SMOOTH",
"916 1358 OFFCURVE",
"1117 1326 OFFCURVE",
"1221 1302 CURVE",
"1197 935 LINE",
"938 935 LINE",
"882 1184 LINE",
"875 1194 OFFCURVE",
"860 1203 OFFCURVE",
"837 1212 CURVE",
"814 1220 OFFCURVE",
"783 1224 OFFCURVE",
"745 1224 CURVE SMOOTH",
"557 1224 OFFCURVE",
"465 1038 OFFCURVE",
"465 679 CURVE SMOOTH",
"465 498 OFFCURVE",
"485 359 OFFCURVE",
"524 263 CURVE SMOOTH",
"563 167 OFFCURVE",
"628 119 OFFCURVE",
"719 119 CURVE SMOOTH",
"790 119 OFFCURVE",
"848 140 OFFCURVE",
"875 171 CURVE",
"875 535 LINE",
"736 554 LINE",
"736 698 LINE",
"1315 698 LINE",
"1315 554 LINE",
"1233 540 LINE",
"1233 72 LINE",
"1202 71 OFFCURVE",
"1167 63 OFFCURVE",
"1088 43 CURVE SMOOTH",
"936 4 OFFCURVE",
"821 -20 OFFCURVE",
"684 -20 CURVE SMOOTH",
"411 -20 OFFCURVE",
"214 107 OFFCURVE",
"115 313 CURVE SMOOTH",
"65 416 OFFCURVE",
"40 532 OFFCURVE",
"40 662 CURVE SMOOTH"
);
}
);
width = 1354;
}
);
note = Gdotaccent;
unicode = 0120;
},
{
glyphname = H;
layers = (
{
layerId = "ED003BF4-EB5B-4214-9209-77B039A8E9AA";
name = Bold;
paths = (
{
closed = 1;
nodes = (
"184 154 LINE",
"184 1171 LINE",
"62 1197 LINE",
"62 1339 LINE",
"692 1339 LINE",
"692 1197 LINE",
"548 1171 LINE",
"548 766 LINE",
"973 766 LINE",
"973 1170 LINE",
"841 1197 LINE",
"841 1339 LINE",
"1466 1339 LINE",
"1466 1197 LINE",
"1338 1171 LINE",
"1338 154 LINE",
"1466 134 LINE",
"1466 0 LINE",
"842 0 LINE",
"842 134 LINE",
"973 155 LINE",
"973 593 LINE",
"548 593 LINE",
"548 154 LINE",
"692 134 LINE",
"692 0 LINE",
"60 0 LINE",
"60 134 LINE"
);
}
);
width = 1521;
}
);
note = H;
unicode = 0048;
},
{
glyphname = Hbar;
layers = (
{
layerId = "ED003BF4-EB5B-4214-9209-77B039A8E9AA";
name = Bold;
paths = (
{
closed = 1;
nodes = (
"184 999 LINE",
"184 1170 LINE",
"48 1197 LINE",
"48 1339 LINE",
"693 1339 LINE",
"693 1197 LINE",
"549 1170 LINE",
"549 999 LINE",
"972 999 LINE",
"972 1170 LINE",
"840 1197 LINE",
"840 1339 LINE",
"1474 1339 LINE",
"1474 1197 LINE",
"1338 1171 LINE",
"1338 999 LINE",
"1500 999 LINE",
"1500 870 LINE",
"1338 870 LINE",
"1338 154 LINE",
"1472 134 LINE",
"1472 0 LINE",
"840 0 LINE",
"840 134 LINE",
"972 155 LINE",
"972 503 LINE",
"549 503 LINE",
"549 155 LINE",
"693 134 LINE",
"693 0 LINE",
"50 0 LINE",
"50 134 LINE",
"184 154 LINE",
"184 870 LINE",
"49 870 LINE",
"49 999 LINE"
);
},
{
closed = 1;
nodes = (
"972 870 LINE",
"549 870 LINE",
"549 675 LINE",
"972 675 LINE"
);
}
);
width = 1521;
}
);
note = Hbar;
unicode = 0126;
},
{
glyphname = Hcircumflex;
layers = (
{
layerId = "ED003BF4-EB5B-4214-9209-77B039A8E9AA";
name = Bold;
paths = (
{
closed = 1;
nodes = (
"184 154 LINE",
"184 1171 LINE",
"62 1197 LINE",
"62 1339 LINE",
"692 1339 LINE",
"692 1197 LINE",
"548 1171 LINE",
"548 766 LINE",
"973 766 LINE",
"973 1170 LINE",
"841 1197 LINE",
"841 1339 LINE",
"1466 1339 LINE",
"1466 1197 LINE",
"1338 1171 LINE",
"1338 154 LINE",
"1466 134 LINE",
"1466 0 LINE",
"842 0 LINE",
"842 134 LINE",
"973 155 LINE",
"973 593 LINE",
"548 593 LINE",
"548 154 LINE",
"692 134 LINE",
"692 0 LINE",
"60 0 LINE",
"60 134 LINE"
);
},
{
closed = 1;
nodes = (
"671 1764 LINE",
"855 1764 LINE",
"1139 1500 LINE",
"1028 1404 LINE",
"762 1567 LINE",
"496 1404 LINE",
"385 1500 LINE"
);
}
);
width = 1521;
}
);
note = Hcircumflex;
unicode = 0124;
},
{
glyphname = I;
layers = (
{
layerId = "ED003BF4-EB5B-4214-9209-77B039A8E9AA";
name = Bold;
paths = (
{
closed = 1;
nodes = (
"200 155 LINE",
"200 1170 LINE",
"62 1197 LINE",
"62 1339 LINE",
"708 1339 LINE",
"708 1197 LINE",
"566 1170 LINE",
"566 154 LINE",
"708 132 LINE",
"708 0 LINE",
"65 0 LINE",
"65 134 LINE"
);
}
);
width = 765;
}
);
note = I;
unicode = 0049;
},
{
glyphname = IJ;
layers = (
{
layerId = "ED003BF4-EB5B-4214-9209-77B039A8E9AA";
name = Bold;
paths = (
{
closed = 1;
nodes = (
"200 155 LINE",
"200 1170 LINE",
"62 1197 LINE",
"62 1339 LINE",
"708 1339 LINE",
"708 1197 LINE",
"566 1170 LINE",
"566 154 LINE",
"708 132 LINE",
"708 0 LINE",
"65 0 LINE",
"65 134 LINE"
);
},
{
closed = 1;
nodes = (
"723 -244 LINE",
"810 -211 OFFCURVE",
"895 -130 OFFCURVE",
"938 -9 CURVE SMOOTH",
"963 62 OFFCURVE",
"975 167 OFFCURVE",
"975 305 CURVE SMOOTH",
"975 1170 LINE",
"830 1197 LINE",
"830 1339 LINE",
"1470 1339 LINE",
"1470 1197 LINE",
"1337 1171 LINE",
"1337 495 LINE SMOOTH",
"1337 246 OFFCURVE",
"1327 89 OFFCURVE",
"1308 22 CURVE SMOOTH",
"1247 -175 OFFCURVE",
"1080 -318 OFFCURVE",
"801 -362 CURVE"
);
}
);
width = 1496;
}
);
note = IJ;
unicode = 0132;
},
{
glyphname = Iacute;
layers = (
{
layerId = "ED003BF4-EB5B-4214-9209-77B039A8E9AA";
name = Bold;
paths = (
{
closed = 1;
nodes = (
"200 155 LINE",
"200 1170 LINE",
"62 1197 LINE",
"62 1339 LINE",
"708 1339 LINE",
"708 1197 LINE",
"566 1170 LINE",
"566 154 LINE",
"708 132 LINE",
"708 0 LINE",
"65 0 LINE",
"65 134 LINE"
);
},
{
closed = 1;
nodes = (
"498 1772 LINE",
"498 1772 LINE",
"711 1632 LINE",
"643 1559 OFFCURVE",
"543 1489 OFFCURVE",
"460 1445 CURVE SMOOTH",
"419 1422 OFFCURVE",
"387 1408 OFFCURVE",
"366 1402 CURVE",
"365 1402 LINE",
"238 1492 LINE"
);
}
);
width = 765;
}
);
note = Iacute;
unicode = 00CD;
},
{
glyphname = Ibreve;
layers = (
{
layerId = "ED003BF4-EB5B-4214-9209-77B039A8E9AA";
name = Bold;
paths = (
{
closed = 1;
nodes = (
"200 155 LINE",
"200 1170 LINE",
"62 1197 LINE",
"62 1339 LINE",
"708 1339 LINE",
"708 1197 LINE",
"566 1170 LINE",
"566 154 LINE",
"708 132 LINE",
"708 0 LINE",
"65 0 LINE",
"65 134 LINE"
);
},
{
closed = 1;
nodes = (
"26 1746 OFFCURVE",
"27 1759 OFFCURVE",
"28 1768 CURVE",
"190 1768 LINE",
"192 1749 LINE",
"203 1685 OFFCURVE",
"256 1625 OFFCURVE",
"384 1625 CURVE SMOOTH",
"511 1625 OFFCURVE",
"558 1684 OFFCURVE",
"566 1749 CURVE",
"567 1754 OFFCURVE",
"567 1761 OFFCURVE",
"567 1768 CURVE",
"735 1768 LINE",
"736 1759 OFFCURVE",
"737 1746 OFFCURVE",
"737 1728 CURVE SMOOTH",
"737 1619 OFFCURVE",
"683 1521 OFFCURVE",
"576 1464 CURVE SMOOTH",
"523 1435 OFFCURVE",
"458 1421 OFFCURVE",
"382 1421 CURVE SMOOTH",
"226 1421 OFFCURVE",
"118 1483 OFFCURVE",
"66 1575 CURVE SMOOTH",
"39 1621 OFFCURVE",
"26 1672 OFFCURVE",
"26 1727 CURVE SMOOTH"
);
}
);
width = 765;
}
);
note = Ibreve;
unicode = 012C;
},
{
glyphname = Icircumflex;
layers = (
{
layerId = "ED003BF4-EB5B-4214-9209-77B039A8E9AA";
name = Bold;
paths = (
{
closed = 1;
nodes = (
"200 155 LINE",
"200 1170 LINE",
"62 1197 LINE",
"62 1339 LINE",
"708 1339 LINE",
"708 1197 LINE",
"566 1170 LINE",
"566 154 LINE",
"708 132 LINE",
"708 0 LINE",
"65 0 LINE",
"65 134 LINE"
);
},
{
closed = 1;
nodes = (
"286 1764 LINE",
"470 1764 LINE",
"754 1500 LINE",
"643 1404 LINE",
"377 1567 LINE",
"111 1404 LINE",
"0 1500 LINE"
);
}
);
width = 765;
}
);
note = Icircumflex;
unicode = 00CE;
},
{
glyphname = Idieresis;
layers = (
{
layerId = "ED003BF4-EB5B-4214-9209-77B039A8E9AA";
name = Bold;
paths = (
{
closed = 1;
nodes = (
"200 155 LINE",
"200 1170 LINE",
"62 1197 LINE",
"62 1339 LINE",
"708 1339 LINE",
"708 1197 LINE",
"566 1170 LINE",
"566 154 LINE",
"708 132 LINE",
"708 0 LINE",
"65 0 LINE",
"65 134 LINE"
);
},
{
closed = 1;
nodes = (
"-30 1689 OFFCURVE",
"30 1761 OFFCURVE",
"143 1761 CURVE SMOOTH",
"144 1761 LINE SMOOTH",
"251 1761 OFFCURVE",
"304 1698 OFFCURVE",
"304 1611 CURVE SMOOTH",
"304 1503 OFFCURVE",
"241 1431 OFFCURVE",
"113 1431 CURVE SMOOTH",
"112 1431 LINE SMOOTH",
"59 1431 OFFCURVE",
"13 1460 OFFCURVE",
"-11 1507 CURVE",
"-24 1530 OFFCURVE",
"-30 1555 OFFCURVE",
"-30 1582 CURVE SMOOTH"
);
},
{
closed = 1;
nodes = (
"454 1689 OFFCURVE",
"513 1761 OFFCURVE",
"626 1761 CURVE SMOOTH",
"627 1761 LINE SMOOTH",
"734 1761 OFFCURVE",
"788 1698 OFFCURVE",
"788 1611 CURVE SMOOTH",
"788 1503 OFFCURVE",
"725 1431 OFFCURVE",
"597 1431 CURVE SMOOTH",
"596 1431 LINE SMOOTH",
"544 1431 OFFCURVE",
"497 1465 OFFCURVE",
"473 1512 CURVE",
"460 1535 OFFCURVE",
"454 1559 OFFCURVE",
"454 1582 CURVE SMOOTH"
);
}
);
width = 765;
}
);
note = Idieresis;
unicode = 00CF;
},
{
glyphname = Idotaccent;
layers = (
{
layerId = "ED003BF4-EB5B-4214-9209-77B039A8E9AA";
name = Bold;
paths = (
{
closed = 1;
nodes = (
"200 155 LINE",
"200 1170 LINE",
"62 1197 LINE",
"62 1339 LINE",
"708 1339 LINE",
"708 1197 LINE",
"566 1170 LINE",
"566 154 LINE",
"708 132 LINE",
"708 0 LINE",
"65 0 LINE",
"65 134 LINE"
);
},
{
closed = 1;
nodes = (
"196 1697 OFFCURVE",
"263 1761 OFFCURVE",
"382 1761 CURVE",
"382 1761 LINE",
"495 1761 OFFCURVE",
"563 1702 OFFCURVE",
"563 1614 CURVE SMOOTH",
"563 1505 OFFCURVE",
"497 1441 OFFCURVE",
"365 1441 CURVE SMOOTH",
"364 1441 LINE SMOOTH",
"300 1441 OFFCURVE",
"246 1469 OFFCURVE",
"218 1514 CURVE SMOOTH",
"203 1537 OFFCURVE",
"196 1562 OFFCURVE",
"196 1590 CURVE SMOOTH"
);
}
);
width = 765;
}
);
note = Idotaccent;
unicode = 0130;
},
{
glyphname = Igrave;
layers = (
{
layerId = "ED003BF4-EB5B-4214-9209-77B039A8E9AA";
name = Bold;
paths = (
{
closed = 1;
nodes = (
"200 155 LINE",
"200 1170 LINE",
"62 1197 LINE",
"62 1339 LINE",
"708 1339 LINE",
"708 1197 LINE",
"566 1170 LINE",
"566 154 LINE",
"708 132 LINE",
"708 0 LINE",
"65 0 LINE",
"65 134 LINE"
);
},
{
closed = 1;
nodes = (
"265 1772 LINE",
"266 1772 LINE",
"526 1492 LINE",
"398 1402 LINE",
"397 1402 LINE",
"348 1415 OFFCURVE",
"248 1469 OFFCURVE",
"159 1535 CURVE SMOOTH",
"114 1568 OFFCURVE",
"79 1600 OFFCURVE",
"52 1632 CURVE"
);
}
);
width = 765;
}
);
note = Igrave;
unicode = 00CC;
},
{
glyphname = Imacron;
layers = (
{
layerId = "ED003BF4-EB5B-4214-9209-77B039A8E9AA";
name = Bold;
paths = (
{
closed = 1;
nodes = (
"200 155 LINE",
"200 1170 LINE",
"62 1197 LINE",
"62 1339 LINE",
"708 1339 LINE",
"708 1197 LINE",
"566 1170 LINE",
"566 154 LINE",
"708 132 LINE",
"708 0 LINE",
"65 0 LINE",
"65 134 LINE"
);
},
{
closed = 1;
nodes = (
"685 1688 LINE",
"685 1494 LINE",
"73 1494 LINE",
"73 1688 LINE"
);
}
);
width = 765;
}
);
note = Imacron;
unicode = 012A;
},
{
glyphname = Iogonek;
layers = (
{
layerId = "ED003BF4-EB5B-4214-9209-77B039A8E9AA";
name = Bold;
paths = (
{
closed = 1;
nodes = (
"200 155 LINE",
"200 1170 LINE",
"62 1197 LINE",
"62 1339 LINE",
"708 1339 LINE",
"708 1197 LINE",
"566 1170 LINE",
"566 154 LINE",
"708 132 LINE",
"708 0 LINE",
"567 0 LINE",
"494 -25 OFFCURVE",
"436 -71 OFFCURVE",
"407 -117 CURVE SMOOTH",
"392 -140 OFFCURVE",
"385 -161 OFFCURVE",
"385 -180 CURVE SMOOTH",
"385 -235 OFFCURVE",
"428 -270 OFFCURVE",
"512 -270 CURVE SMOOTH",
"553 -270 OFFCURVE",
"568 -267 OFFCURVE",
"608 -251 CURVE",
"608 -394 LINE",
"560 -430 OFFCURVE",
"454 -453 OFFCURVE",
"374 -453 CURVE SMOOTH",
"270 -453 OFFCURVE",
"189 -421 OFFCURVE",
"146 -365 CURVE SMOOTH",
"125 -337 OFFCURVE",
"114 -305 OFFCURVE",
"114 -268 CURVE SMOOTH",
"114 -161 OFFCURVE",
"215 -60 OFFCURVE",
"371 0 CURVE",
"65 0 LINE",
"65 134 LINE"
);
}
);
width = 765;
}
);
note = Iogonek;
unicode = 012E;
},
{
glyphname = Itilde;
layers = (
{
layerId = "ED003BF4-EB5B-4214-9209-77B039A8E9AA";
name = Bold;
paths = (
{
closed = 1;
nodes = (
"200 155 LINE",
"200 1170 LINE",
"62 1197 LINE",
"62 1339 LINE",
"708 1339 LINE",
"708 1197 LINE",
"566 1170 LINE",
"566 154 LINE",
"708 132 LINE",
"708 0 LINE",
"65 0 LINE",
"65 134 LINE"
);
},
{
closed = 1;
nodes = (
"141 1566 OFFCURVE",
"104 1544 OFFCURVE",
"84 1525 CURVE SMOOTH",
"73 1515 OFFCURVE",
"59 1500 OFFCURVE",
"41 1481 CURVE",
"-52 1578 LINE",
"4 1679 OFFCURVE",
"96 1767 OFFCURVE",
"236 1767 CURVE SMOOTH",
"313 1767 OFFCURVE",
"365 1740 OFFCURVE",
"438 1691 CURVE SMOOTH",
"497 1652 OFFCURVE",
"529 1634 OFFCURVE",
"572 1634 CURVE SMOOTH",
"636 1634 OFFCURVE",
"668 1664 OFFCURVE",
"692 1692 CURVE SMOOTH",
"704 1706 OFFCURVE",
"712 1715 OFFCURVE",
"715 1720 CURVE",
"809 1624 LINE",
"746 1511 OFFCURVE",
"662 1433 OFFCURVE",
"535 1433 CURVE SMOOTH",
"462 1433 OFFCURVE",
"412 1458 OFFCURVE",
"333 1507 CURVE SMOOTH",
"270 1546 OFFCURVE",
"232 1566 OFFCURVE",
"184 1566 CURVE SMOOTH"
);
}
);
width = 765;
}
);
note = Itilde;
unicode = 0128;
},
{
glyphname = J;
layers = (
{
layerId = "ED003BF4-EB5B-4214-9209-77B039A8E9AA";
name = Bold;
paths = (
{
closed = 1;
nodes = (
"-43 -244 LINE",
"44 -211 OFFCURVE",
"129 -130 OFFCURVE",
"172 -9 CURVE SMOOTH",
"197 62 OFFCURVE",
"209 167 OFFCURVE",
"209 305 CURVE SMOOTH",
"209 1170 LINE",
"64 1197 LINE",
"64 1339 LINE",
"704 1339 LINE",
"704 1197 LINE",
"571 1171 LINE",
"571 495 LINE SMOOTH",
"571 246 OFFCURVE",
"561 89 OFFCURVE",
"542 22 CURVE SMOOTH",
"481 -175 OFFCURVE",
"314 -318 OFFCURVE",
"35 -362 CURVE"
);
}
);
width = 730;
}
);
note = J;
unicode = 004A;
},
{
glyphname = Jcircumflex;
layers = (
{
layerId = "ED003BF4-EB5B-4214-9209-77B039A8E9AA";
name = Bold;
paths = (
{
closed = 1;
nodes = (
"-43 -244 LINE",
"44 -211 OFFCURVE",
"129 -130 OFFCURVE",
"172 -9 CURVE SMOOTH",
"197 62 OFFCURVE",
"209 167 OFFCURVE",
"209 305 CURVE SMOOTH",
"209 1170 LINE",
"64 1197 LINE",
"64 1339 LINE",
"704 1339 LINE",
"704 1197 LINE",
"571 1171 LINE",
"571 495 LINE SMOOTH",
"571 246 OFFCURVE",
"561 89 OFFCURVE",
"542 22 CURVE SMOOTH",
"481 -175 OFFCURVE",
"314 -318 OFFCURVE",
"35 -362 CURVE"
);
},
{
closed = 1;
nodes = (
"296 1764 LINE",
"480 1764 LINE",
"764 1500 LINE",
"653 1404 LINE",
"387 1567 LINE",
"121 1404 LINE",
"10 1500 LINE"
);
}
);
width = 730;
}
);
note = Jcircumflex;
unicode = 0134;
},
{
glyphname = K;
layers = (
{
layerId = "ED003BF4-EB5B-4214-9209-77B039A8E9AA";
name = Bold;
paths = (
{
closed = 1;
nodes = (
"991 0 LINE SMOOTH",
"976 0 OFFCURVE",
"956 22 OFFCURVE",
"933 66 CURVE SMOOTH",
"910 109 OFFCURVE",
"877 177 OFFCURVE",
"835 269 CURVE SMOOTH",
"767 420 OFFCURVE",
"720 518 OFFCURVE",
"673 587 CURVE",
"548 437 LINE",
"548 154 LINE",
"691 133 LINE",
"691 0 LINE",
"50 0 LINE",
"50 134 LINE",
"184 155 LINE",
"184 1170 LINE",
"50 1197 LINE",
"50 1339 LINE",
"671 1339 LINE",
"671 1197 LINE",
"548 1170 LINE",
"548 642 LINE",
"943 1170 LINE",
"799 1197 LINE",
"798 1339 LINE",
"1346 1339 LINE",
"1346 1198 LINE",
"1178 1171 LINE",
"887 839 LINE",
"971 760 OFFCURVE",
"1055 614 OFFCURVE",
"1179 385 CURVE SMOOTH",
"1218 313 OFFCURVE",
"1249 259 OFFCURVE",
"1270 223 CURVE SMOOTH",
"1291 186 OFFCURVE",
"1309 163 OFFCURVE",
"1322 154 CURVE",
"1407 134 LINE",
"1407 0 LINE"
);
}
);
width = 1395;
}
);
note = K;
unicode = 004B;
},
{
glyphname = Kcommaaccent;
layers = (
{
layerId = "ED003BF4-EB5B-4214-9209-77B039A8E9AA";
name = Bold;
paths = (
{
closed = 1;
nodes = (
"701 -493 LINE",
"593 -468 LINE",
"588 -454 LINE",
"611 -446 OFFCURVE",
"626 -392 OFFCURVE",
"626 -348 CURVE SMOOTH",
"626 -313 OFFCURVE",
"612 -296 OFFCURVE",
"592 -284 CURVE",
"569 -267 OFFCURVE",
"549 -235 OFFCURVE",
"549 -194 CURVE SMOOTH",
"549 -137 OFFCURVE",
"586 -102 OFFCURVE",
"635 -86 CURVE SMOOTH",
"659 -79 OFFCURVE",
"683 -75 OFFCURVE",
"707 -75 CURVE SMOOTH",
"713 -75 LINE SMOOTH",
"804 -75 OFFCURVE",
"864 -129 OFFCURVE",
"864 -222 CURVE SMOOTH",
"863 -302 OFFCURVE",
"821 -386 OFFCURVE",
"770 -441 CURVE SMOOTH",
"745 -469 OFFCURVE",
"723 -486 OFFCURVE",
"705 -493 CURVE"
);
},
{
closed = 1;
nodes = (
"991 0 LINE SMOOTH",
"976 0 OFFCURVE",
"956 22 OFFCURVE",
"933 66 CURVE SMOOTH",
"910 109 OFFCURVE",
"877 177 OFFCURVE",
"835 269 CURVE SMOOTH",
"767 420 OFFCURVE",
"720 518 OFFCURVE",
"673 587 CURVE",
"548 437 LINE",
"548 154 LINE",
"691 133 LINE",
"691 0 LINE",
"50 0 LINE",
"50 134 LINE",
"184 155 LINE",
"184 1170 LINE",
"50 1197 LINE",
"50 1339 LINE",
"671 1339 LINE",
"671 1197 LINE",
"548 1170 LINE",
"548 642 LINE",
"943 1170 LINE",
"799 1197 LINE",
"798 1339 LINE",
"1346 1339 LINE",
"1346 1198 LINE",
"1178 1171 LINE",
"887 839 LINE",
"971 760 OFFCURVE",
"1055 614 OFFCURVE",
"1179 385 CURVE SMOOTH",
"1218 313 OFFCURVE",
"1249 259 OFFCURVE",
"1270 223 CURVE SMOOTH",
"1291 186 OFFCURVE",
"1309 163 OFFCURVE",
"1322 154 CURVE",
"1407 134 LINE",
"1407 0 LINE"
);
}
);
width = 1395;
}
);
note = Kcommaaccent;
unicode = 0136;
},
{
glyphname = L;
layers = (
{
layerId = "ED003BF4-EB5B-4214-9209-77B039A8E9AA";
name = Bold;
paths = (
{
closed = 1;
nodes = (
"184 154 LINE",
"184 1170 LINE",
"54 1197 LINE",
"54 1339 LINE",
"717 1339 LINE",
"717 1197 LINE",
"550 1170 LINE",
"550 158 LINE",
"826 177 LINE",
"950 560 LINE",
"1148 535 LINE",
"1101 0 LINE",
"53 0 LINE",
"53 134 LINE"
);
}
);
width = 1159;
}
);
note = L;
unicode = 004C;
},
{
glyphname = Lacute;
layers = (
{
layerId = "ED003BF4-EB5B-4214-9209-77B039A8E9AA";
name = Bold;
paths = (
{
closed = 1;
nodes = (
"493 1772 LINE",
"493 1772 LINE",
"706 1632 LINE",
"638 1559 OFFCURVE",
"538 1489 OFFCURVE",
"455 1445 CURVE SMOOTH",
"414 1422 OFFCURVE",
"382 1408 OFFCURVE",
"361 1402 CURVE",
"360 1402 LINE",
"233 1492 LINE"
);
},
{
closed = 1;
nodes = (
"184 154 LINE",
"184 1170 LINE",
"54 1197 LINE",
"54 1339 LINE",
"717 1339 LINE",
"717 1197 LINE",
"550 1170 LINE",
"550 158 LINE",
"826 177 LINE",
"950 560 LINE",
"1148 535 LINE",
"1101 0 LINE",
"53 0 LINE",
"53 134 LINE"
);
}
);
width = 1159;
}
);
note = Lacute;
unicode = 0139;
},
{
glyphname = Lcaron;
layers = (
{
layerId = "ED003BF4-EB5B-4214-9209-77B039A8E9AA";
name = Bold;
paths = (
{
closed = 1;
nodes = (
"184 154 LINE",
"184 1170 LINE",
"54 1197 LINE",
"54 1339 LINE",
"717 1339 LINE",
"717 1197 LINE",
"550 1170 LINE",
"550 158 LINE",
"826 177 LINE",
"950 560 LINE",
"1148 535 LINE",
"1101 0 LINE",
"53 0 LINE",
"53 134 LINE"
);
},
{
closed = 1;
nodes = (
"815 896 LINE",
"822 923 OFFCURVE",
"828 955 OFFCURVE",
"832 992 CURVE SMOOTH",
"835 1029 OFFCURVE",
"837 1090 OFFCURVE",
"837 1174 CURVE SMOOTH",
"837 1237 OFFCURVE",
"832 1288 OFFCURVE",
"821 1328 CURVE SMOOTH",
"810 1368 OFFCURVE",
"799 1395 OFFCURVE",
"788 1410 CURVE",
"796 1447 LINE",
"1024 1496 LINE",
"1051 1464 OFFCURVE",
"1075 1375 OFFCURVE",
"1075 1254 CURVE SMOOTH",
"1075 1118 OFFCURVE",
"1044 995 OFFCURVE",
"1009 917 CURVE SMOOTH",
"992 878 OFFCURVE",
"977 852 OFFCURVE",
"965 839 CURVE",
"823 873 LINE"
);
}
);
width = 1159;
}
);
note = Lcaron;
unicode = 013D;
},
{
glyphname = Lcommaaccent;
layers = (
{
layerId = "ED003BF4-EB5B-4214-9209-77B039A8E9AA";
name = Bold;
paths = (
{
closed = 1;
nodes = (
"616 -493 LINE",
"508 -468 LINE",
"503 -454 LINE",
"526 -446 OFFCURVE",
"541 -392 OFFCURVE",
"541 -348 CURVE SMOOTH",
"541 -313 OFFCURVE",
"527 -296 OFFCURVE",
"507 -284 CURVE",
"484 -267 OFFCURVE",
"464 -235 OFFCURVE",
"464 -194 CURVE SMOOTH",
"464 -137 OFFCURVE",
"501 -102 OFFCURVE",
"550 -86 CURVE SMOOTH",
"574 -79 OFFCURVE",
"598 -75 OFFCURVE",
"622 -75 CURVE SMOOTH",
"628 -75 LINE SMOOTH",
"719 -75 OFFCURVE",
"779 -129 OFFCURVE",
"779 -222 CURVE SMOOTH",
"778 -302 OFFCURVE",
"736 -386 OFFCURVE",
"685 -441 CURVE SMOOTH",
"660 -469 OFFCURVE",
"638 -486 OFFCURVE",
"620 -493 CURVE"
);
},
{
closed = 1;
nodes = (
"184 154 LINE",
"184 1170 LINE",
"54 1197 LINE",
"54 1339 LINE",
"717 1339 LINE",
"717 1197 LINE",
"550 1170 LINE",
"550 158 LINE",
"826 177 LINE",
"950 560 LINE",
"1148 535 LINE",
"1101 0 LINE",
"53 0 LINE",
"53 134 LINE"
);
}
);
width = 1153;
}
);
note = Lcommaaccent;
unicode = 013B;
},
{
glyphname = Ldot;
layers = (
{
layerId = "ED003BF4-EB5B-4214-9209-77B039A8E9AA";
name = Bold;
paths = (
{
closed = 1;
nodes = (
"184 154 LINE",
"184 1170 LINE",
"54 1197 LINE",
"54 1339 LINE",
"717 1339 LINE",
"717 1197 LINE",
"550 1170 LINE",
"550 158 LINE",
"826 177 LINE",
"950 560 LINE",
"1148 535 LINE",
"1101 0 LINE",
"53 0 LINE",
"53 134 LINE"
);
},
{
closed = 1;
nodes = (
"798 882 OFFCURVE",
"837 939 OFFCURVE",
"899 968 CURVE SMOOTH",
"930 983 OFFCURVE",
"964 990 OFFCURVE",
"1002 990 CURVE SMOOTH",
"1073 990 OFFCURVE",
"1131 956 OFFCURVE",
"1161 905 CURVE SMOOTH",
"1176 879 OFFCURVE",
"1183 851 OFFCURVE",
"1183 822 CURVE SMOOTH",
"1183 710 OFFCURVE",
"1100 644 OFFCURVE",
"972 644 CURVE SMOOTH",
"913 644 OFFCURVE",
"856 674 OFFCURVE",
"823 725 CURVE SMOOTH",
"806 750 OFFCURVE",
"798 779 OFFCURVE",
"798 811 CURVE SMOOTH"
);
}
);
width = 1233;
}
);
note = Ldot;
unicode = 013F;
},
{
glyphname = Lslash;
layers = (
{
layerId = "ED003BF4-EB5B-4214-9209-77B039A8E9AA";
name = Bold;
paths = (
{
closed = 1;
nodes = (
"184 651 LINE",
"184 1170 LINE",
"54 1197 LINE",
"54 1339 LINE",
"717 1339 LINE",
"717 1197 LINE",
"550 1170 LINE",
"550 792 LINE",
"832 905 LINE",
"832 754 LINE",
"550 644 LINE",
"550 158 LINE",
"826 177 LINE",
"950 560 LINE",
"1148 535 LINE",
"1101 0 LINE",
"53 0 LINE",
"53 134 LINE",
"184 154 LINE",
"184 506 LINE",
"39 451 LINE",
"39 594 LINE"
);
}
);
width = 1153;
}
);
note = Lslash;
unicode = 0141;
},
{
glyphname = M;
layers = (
{
layerId = "ED003BF4-EB5B-4214-9209-77B039A8E9AA";
name = Bold;
paths = (
{
closed = 1;
nodes = (
"145 154 LINE",
"263 1170 LINE",
"92 1197 LINE",
"92 1339 LINE",
"752 1339 LINE",
"938 616 LINE",
"969 432 LINE",
"996 616 LINE",
"1144 1339 LINE",
"1816 1339 LINE",
"1816 1197 LINE",
"1624 1170 LINE",
"1778 155 LINE",
"1919 134 LINE",
"1919 0 LINE",
"1253 0 LINE",
"1253 134 LINE",
"1400 155 LINE",
"1323 915 LINE",
"1288 1219 LINE",
"1238 950 LINE",
"1041 47 LINE",
"743 47 LINE",
"488 918 LINE",
"423 1221 LINE",
"406 916 LINE",
"356 155 LINE",
"542 134 LINE",
"542 0 LINE",
"-3 0 LINE",
"-3 134 LINE"
);
}
);
width = 1903;
}
);
note = M;
unicode = 004D;
},
{
glyphname = N;
layers = (
{
layerId = "ED003BF4-EB5B-4214-9209-77B039A8E9AA";
name = Bold;
paths = (
{
closed = 1;
nodes = (
"189 154 LINE",
"189 1171 LINE",
"48 1197 LINE",
"48 1339 LINE",
"558 1339 LINE",
"1007 627 LINE",
"1109 398 LINE",
"1109 1171 LINE",
"957 1197 LINE",
"957 1339 LINE",
"1435 1339 LINE",
"1435 1197 LINE",
"1302 1171 LINE",
"1302 0 LINE",
"978 0 LINE",
"491 786 LINE",
"383 1023 LINE",
"383 155 LINE",
"583 134 LINE",
"583 0 LINE",
"48 0 LINE",
"48 134 LINE"
);
}
);
width = 1456;
}
);
note = N;
unicode = 004E;
},
{
glyphname = Nacute;
layers = (
{
layerId = "ED003BF4-EB5B-4214-9209-77B039A8E9AA";
name = Bold;
paths = (
{
closed = 1;
nodes = (
"863 1772 LINE",
"863 1772 LINE",
"1076 1632 LINE",
"1008 1559 OFFCURVE",
"908 1489 OFFCURVE",
"825 1445 CURVE SMOOTH",
"784 1422 OFFCURVE",
"752 1408 OFFCURVE",
"731 1402 CURVE",
"730 1402 LINE",
"603 1492 LINE"
);
},
{
closed = 1;
nodes = (
"189 154 LINE",
"189 1171 LINE",
"48 1197 LINE",
"48 1339 LINE",
"558 1339 LINE",
"1007 627 LINE",
"1109 398 LINE",
"1109 1171 LINE",
"957 1197 LINE",
"957 1339 LINE",
"1435 1339 LINE",
"1435 1197 LINE",
"1302 1171 LINE",
"1302 0 LINE",
"978 0 LINE",
"491 786 LINE",
"383 1023 LINE",
"383 155 LINE",
"583 134 LINE",
"583 0 LINE",
"48 0 LINE",
"48 134 LINE"
);
}
);
width = 1461;
}
);
note = Nacute;
unicode = 0143;
},
{
glyphname = Ncaron;
layers = (
{
layerId = "ED003BF4-EB5B-4214-9209-77B039A8E9AA";
name = Bold;
paths = (
{
closed = 1;
nodes = (
"500 1772 LINE",
"749 1619 LINE",
"1015 1772 LINE",
"1126 1676 LINE",
"842 1422 LINE",
"658 1422 LINE",
"389 1677 LINE"
);
},
{
closed = 1;
nodes = (
"189 154 LINE",
"189 1171 LINE",
"48 1197 LINE",
"48 1339 LINE",
"558 1339 LINE",
"1007 627 LINE",
"1109 398 LINE",
"1109 1171 LINE",
"957 1197 LINE",
"957 1339 LINE",
"1435 1339 LINE",
"1435 1197 LINE",
"1302 1171 LINE",
"1302 0 LINE",
"978 0 LINE",
"491 786 LINE",
"383 1023 LINE",
"383 155 LINE",
"583 134 LINE",
"583 0 LINE",
"48 0 LINE",
"48 134 LINE"
);
}
);
width = 1461;
}
);
note = Ncaron;
unicode = 0147;
},
{
glyphname = Ncommaaccent;
layers = (
{
layerId = "ED003BF4-EB5B-4214-9209-77B039A8E9AA";
name = Bold;
paths = (
{
closed = 1;
nodes = (
"758 -493 LINE",
"650 -468 LINE",
"645 -454 LINE",
"668 -446 OFFCURVE",
"683 -392 OFFCURVE",
"683 -348 CURVE SMOOTH",
"683 -313 OFFCURVE",
"669 -296 OFFCURVE",
"649 -284 CURVE",
"626 -267 OFFCURVE",
"606 -235 OFFCURVE",
"606 -194 CURVE SMOOTH",
"606 -137 OFFCURVE",
"643 -102 OFFCURVE",
"692 -86 CURVE SMOOTH",
"716 -79 OFFCURVE",
"740 -75 OFFCURVE",
"764 -75 CURVE SMOOTH",
"770 -75 LINE SMOOTH",
"861 -75 OFFCURVE",
"921 -129 OFFCURVE",
"921 -222 CURVE SMOOTH",
"920 -302 OFFCURVE",
"878 -386 OFFCURVE",
"827 -441 CURVE SMOOTH",
"802 -469 OFFCURVE",
"780 -486 OFFCURVE",
"762 -493 CURVE"
);
},
{
closed = 1;
nodes = (
"189 154 LINE",
"189 1171 LINE",
"48 1197 LINE",
"48 1339 LINE",
"558 1339 LINE",
"1007 627 LINE",
"1109 398 LINE",
"1109 1171 LINE",
"957 1197 LINE",
"957 1339 LINE",
"1435 1339 LINE",
"1435 1197 LINE",
"1302 1171 LINE",
"1302 0 LINE",
"978 0 LINE",
"491 786 LINE",
"383 1023 LINE",
"383 155 LINE",
"583 134 LINE",
"583 0 LINE",
"48 0 LINE",
"48 134 LINE"
);
}
);
width = 1461;
}
);
note = Ncommaaccent;
unicode = 0145;
},
{
glyphname = Eng;
layers = (
{
layerId = "ED003BF4-EB5B-4214-9209-77B039A8E9AA";
name = Bold;
paths = (
{
closed = 1;
nodes = (
"201 154 LINE",
"201 1188 LINE",
"40 1220 LINE",
"40 1339 LINE",
"552 1339 LINE",
"999 626 LINE",
"1111 391 LINE",
"1111 1171 LINE",
"950 1199 LINE",
"950 1339 LINE",
"1456 1339 LINE",
"1456 1199 LINE",
"1304 1171 LINE",
"1304 378 LINE SMOOTH",
"1304 166 OFFCURVE",
"1263 24 OFFCURVE",
"1216 -52 CURVE SMOOTH",
"1193 -91 OFFCURVE",
"1164 -129 OFFCURVE",
"1131 -168 CURVE SMOOTH",
"1111 -191 LINE SMOOTH",
"1016 -296 OFFCURVE",
"895 -356 OFFCURVE",
"780 -373 CURVE",
"715 -268 LINE",
"815 -235 OFFCURVE",
"893 -172 OFFCURVE",
"950 -80 CURVE SMOOTH",
"960 -63 OFFCURVE",
"972 -40 OFFCURVE",
"986 -9 CURVE",
"474 820 LINE",
"394 994 LINE",
"394 154 LINE",
"569 132 LINE",
"569 0 LINE",
"40 0 LINE",
"40 132 LINE"
);
}
);
width = 1446;
}
);
note = Eng;
unicode = 014A;
},
{
glyphname = Ntilde;
layers = (
{
layerId = "ED003BF4-EB5B-4214-9209-77B039A8E9AA";
name = Bold;
paths = (
{
closed = 1;
nodes = (
"511 1566 OFFCURVE",
"474 1544 OFFCURVE",
"454 1525 CURVE SMOOTH",
"443 1515 OFFCURVE",
"429 1500 OFFCURVE",
"411 1481 CURVE",
"318 1578 LINE",
"374 1679 OFFCURVE",
"466 1767 OFFCURVE",
"606 1767 CURVE SMOOTH",
"683 1767 OFFCURVE",
"735 1740 OFFCURVE",
"808 1691 CURVE SMOOTH",
"867 1652 OFFCURVE",
"899 1634 OFFCURVE",
"942 1634 CURVE SMOOTH",
"1006 1634 OFFCURVE",
"1038 1664 OFFCURVE",
"1062 1692 CURVE SMOOTH",
"1074 1706 OFFCURVE",
"1082 1715 OFFCURVE",
"1085 1720 CURVE",
"1179 1624 LINE",
"1116 1511 OFFCURVE",
"1032 1433 OFFCURVE",
"905 1433 CURVE SMOOTH",
"832 1433 OFFCURVE",
"782 1458 OFFCURVE",
"703 1507 CURVE SMOOTH",
"640 1546 OFFCURVE",
"602 1566 OFFCURVE",
"554 1566 CURVE SMOOTH"
);
},
{
closed = 1;
nodes = (
"189 154 LINE",
"189 1171 LINE",
"48 1197 LINE",
"48 1339 LINE",
"558 1339 LINE",
"1007 627 LINE",
"1109 398 LINE",
"1109 1171 LINE",
"957 1197 LINE",
"957 1339 LINE",
"1435 1339 LINE",
"1435 1197 LINE",
"1302 1171 LINE",
"1302 0 LINE",
"978 0 LINE",
"491 786 LINE",
"383 1023 LINE",
"383 155 LINE",
"583 134 LINE",
"583 0 LINE",
"48 0 LINE",
"48 134 LINE"
);
}
);
width = 1461;
}
);
note = Ntilde;
unicode = 00D1;
},
{
glyphname = O;
layers = (
{
layerId = "ED003BF4-EB5B-4214-9209-77B039A8E9AA";
name = Bold;
paths = (
{
closed = 1;
nodes = (
"42 947 OFFCURVE",
"146 1161 OFFCURVE",
"334 1274 CURVE SMOOTH",
"428 1330 OFFCURVE",
"539 1358 OFFCURVE",
"668 1358 CURVE SMOOTH",
"1097 1358 OFFCURVE",
"1283 1123 OFFCURVE",
"1283 695 CURVE SMOOTH",
"1283 416 OFFCURVE",
"1178 192 OFFCURVE",
"989 72 CURVE SMOOTH",
"800 -49 OFFCURVE",
"385 -81 OFFCURVE",
"189 161 CURVE SMOOTH",
"91 282 OFFCURVE",
"42 451 OFFCURVE",
"42 670 CURVE SMOOTH"
);
},
{
closed = 1;
nodes = (
"443 473 OFFCURVE",
"462 331 OFFCURVE",
"499 244 CURVE SMOOTH",
"536 157 OFFCURVE",
"590 113 OFFCURVE",
"661 113 CURVE SMOOTH",
"732 113 OFFCURVE",
"786 163 OFFCURVE",
"825 263 CURVE SMOOTH",
"863 362 OFFCURVE",
"882 506 OFFCURVE",
"882 694 CURVE SMOOTH",
"882 827 OFFCURVE",
"873 933 OFFCURVE",
"856 1011 CURVE SMOOTH",
"821 1167 OFFCURVE",
"759 1225 OFFCURVE",
"664 1225 CURVE SMOOTH",
"591 1225 OFFCURVE",
"536 1179 OFFCURVE",
"499 1088 CURVE SMOOTH",
"462 996 OFFCURVE",
"443 857 OFFCURVE",
"443 671 CURVE SMOOTH"
);
}
);
width = 1325;
}
);
note = O;
unicode = 004F;
},
{
glyphname = Oacute;
layers = (
{
layerId = "ED003BF4-EB5B-4214-9209-77B039A8E9AA";
name = Bold;
paths = (
{
closed = 1;
nodes = (
"787 1772 LINE",
"787 1772 LINE",
"1000 1632 LINE",
"932 1559 OFFCURVE",
"832 1489 OFFCURVE",
"749 1445 CURVE SMOOTH",
"708 1422 OFFCURVE",
"676 1408 OFFCURVE",
"655 1402 CURVE",
"654 1402 LINE",
"527 1492 LINE"
);
},
{
closed = 1;
nodes = (
"46 947 OFFCURVE",
"150 1161 OFFCURVE",
"338 1274 CURVE SMOOTH",
"432 1330 OFFCURVE",
"543 1358 OFFCURVE",
"672 1358 CURVE SMOOTH",
"1101 1358 OFFCURVE",
"1287 1123 OFFCURVE",
"1287 695 CURVE SMOOTH",
"1287 416 OFFCURVE",
"1182 192 OFFCURVE",
"993 72 CURVE SMOOTH",
"804 -49 OFFCURVE",
"389 -81 OFFCURVE",
"193 161 CURVE SMOOTH",
"95 282 OFFCURVE",
"46 451 OFFCURVE",
"46 670 CURVE SMOOTH"
);
},
{
closed = 1;
nodes = (
"447 473 OFFCURVE",
"466 331 OFFCURVE",
"503 244 CURVE SMOOTH",
"540 157 OFFCURVE",
"594 113 OFFCURVE",
"665 113 CURVE SMOOTH",
"736 113 OFFCURVE",
"790 163 OFFCURVE",
"829 263 CURVE SMOOTH",
"867 362 OFFCURVE",
"886 506 OFFCURVE",
"886 694 CURVE SMOOTH",
"886 827 OFFCURVE",
"877 933 OFFCURVE",
"860 1011 CURVE SMOOTH",
"825 1167 OFFCURVE",
"763 1225 OFFCURVE",
"668 1225 CURVE SMOOTH",
"595 1225 OFFCURVE",
"540 1179 OFFCURVE",
"503 1088 CURVE SMOOTH",
"466 996 OFFCURVE",
"447 857 OFFCURVE",
"447 671 CURVE SMOOTH"
);
}
);
width = 1334;
}
);
note = Oacute;
unicode = 00D3;
},
{
glyphname = Obreve;
layers = (
{
layerId = "ED003BF4-EB5B-4214-9209-77B039A8E9AA";
name = Bold;
paths = (
{
closed = 1;
nodes = (
"316 1746 OFFCURVE",
"317 1759 OFFCURVE",
"318 1768 CURVE",
"480 1768 LINE",
"482 1749 LINE",
"493 1685 OFFCURVE",
"546 1625 OFFCURVE",
"674 1625 CURVE SMOOTH",
"801 1625 OFFCURVE",
"848 1684 OFFCURVE",
"856 1749 CURVE",
"857 1754 OFFCURVE",
"857 1761 OFFCURVE",
"857 1768 CURVE",
"1025 1768 LINE",
"1026 1759 OFFCURVE",
"1027 1746 OFFCURVE",
"1027 1728 CURVE SMOOTH",
"1027 1619 OFFCURVE",
"973 1521 OFFCURVE",
"866 1464 CURVE SMOOTH",
"813 1435 OFFCURVE",
"748 1421 OFFCURVE",
"672 1421 CURVE SMOOTH",
"516 1421 OFFCURVE",
"408 1483 OFFCURVE",
"356 1575 CURVE SMOOTH",
"329 1621 OFFCURVE",
"316 1672 OFFCURVE",
"316 1727 CURVE SMOOTH"
);
},
{
closed = 1;
nodes = (
"46 947 OFFCURVE",
"150 1161 OFFCURVE",
"338 1274 CURVE SMOOTH",
"432 1330 OFFCURVE",
"543 1358 OFFCURVE",
"672 1358 CURVE SMOOTH",
"1101 1358 OFFCURVE",
"1287 1123 OFFCURVE",
"1287 695 CURVE SMOOTH",
"1287 416 OFFCURVE",
"1182 192 OFFCURVE",
"993 72 CURVE SMOOTH",
"804 -49 OFFCURVE",
"389 -81 OFFCURVE",
"193 161 CURVE SMOOTH",
"95 282 OFFCURVE",
"46 451 OFFCURVE",
"46 670 CURVE SMOOTH"
);
},
{
closed = 1;
nodes = (
"447 473 OFFCURVE",
"466 331 OFFCURVE",
"503 244 CURVE SMOOTH",
"540 157 OFFCURVE",
"594 113 OFFCURVE",
"665 113 CURVE SMOOTH",
"736 113 OFFCURVE",
"790 163 OFFCURVE",
"829 263 CURVE SMOOTH",
"867 362 OFFCURVE",
"886 506 OFFCURVE",
"886 694 CURVE SMOOTH",
"886 827 OFFCURVE",
"877 933 OFFCURVE",
"860 1011 CURVE SMOOTH",
"825 1167 OFFCURVE",
"763 1225 OFFCURVE",
"668 1225 CURVE SMOOTH",
"595 1225 OFFCURVE",
"540 1179 OFFCURVE",
"503 1088 CURVE SMOOTH",
"466 996 OFFCURVE",
"447 857 OFFCURVE",
"447 671 CURVE SMOOTH"
);
}
);
width = 1334;
}
);
note = Obreve;
unicode = 014E;
},
{
glyphname = Ocircumflex;
layers = (
{
layerId = "ED003BF4-EB5B-4214-9209-77B039A8E9AA";
name = Bold;
paths = (
{
closed = 1;
nodes = (
"42 947 OFFCURVE",
"146 1161 OFFCURVE",
"334 1274 CURVE SMOOTH",
"428 1330 OFFCURVE",
"539 1358 OFFCURVE",
"668 1358 CURVE SMOOTH",
"1097 1358 OFFCURVE",
"1283 1123 OFFCURVE",
"1283 695 CURVE SMOOTH",
"1283 416 OFFCURVE",
"1178 192 OFFCURVE",
"989 72 CURVE SMOOTH",
"800 -49 OFFCURVE",
"385 -81 OFFCURVE",
"189 161 CURVE SMOOTH",
"91 282 OFFCURVE",
"42 451 OFFCURVE",
"42 670 CURVE SMOOTH"
);
},
{
closed = 1;
nodes = (
"443 473 OFFCURVE",
"462 331 OFFCURVE",
"499 244 CURVE SMOOTH",
"536 157 OFFCURVE",
"590 113 OFFCURVE",
"661 113 CURVE SMOOTH",
"732 113 OFFCURVE",
"786 163 OFFCURVE",
"825 263 CURVE SMOOTH",
"863 362 OFFCURVE",
"882 506 OFFCURVE",
"882 694 CURVE SMOOTH",
"882 827 OFFCURVE",
"873 933 OFFCURVE",
"856 1011 CURVE SMOOTH",
"821 1167 OFFCURVE",
"759 1225 OFFCURVE",
"664 1225 CURVE SMOOTH",
"591 1225 OFFCURVE",
"536 1179 OFFCURVE",
"499 1088 CURVE SMOOTH",
"462 996 OFFCURVE",
"443 857 OFFCURVE",
"443 671 CURVE SMOOTH"
);
},
{
closed = 1;
nodes = (
"571 1764 LINE",
"755 1764 LINE",
"1039 1500 LINE",
"928 1404 LINE",
"662 1567 LINE",
"396 1404 LINE",
"285 1500 LINE"
);
}
);
width = 1325;
}
);
note = Ocircumflex;
unicode = 00D4;
},
{
glyphname = Odieresis;
layers = (
{
layerId = "ED003BF4-EB5B-4214-9209-77B039A8E9AA";
name = Bold;
paths = (
{
closed = 1;
nodes = (
"260 1689 OFFCURVE",
"320 1761 OFFCURVE",
"433 1761 CURVE SMOOTH",
"434 1761 LINE SMOOTH",
"541 1761 OFFCURVE",
"594 1698 OFFCURVE",
"594 1611 CURVE SMOOTH",
"594 1503 OFFCURVE",
"531 1431 OFFCURVE",
"403 1431 CURVE SMOOTH",
"402 1431 LINE SMOOTH",
"349 1431 OFFCURVE",
"303 1460 OFFCURVE",
"279 1507 CURVE",
"266 1530 OFFCURVE",
"260 1555 OFFCURVE",
"260 1582 CURVE SMOOTH"
);
},
{
closed = 1;
nodes = (
"744 1689 OFFCURVE",
"803 1761 OFFCURVE",
"916 1761 CURVE SMOOTH",
"917 1761 LINE SMOOTH",
"1024 1761 OFFCURVE",
"1078 1698 OFFCURVE",
"1078 1611 CURVE SMOOTH",
"1078 1503 OFFCURVE",
"1015 1431 OFFCURVE",
"887 1431 CURVE SMOOTH",
"886 1431 LINE SMOOTH",
"834 1431 OFFCURVE",
"787 1465 OFFCURVE",
"763 1512 CURVE",
"750 1535 OFFCURVE",
"744 1559 OFFCURVE",
"744 1582 CURVE SMOOTH"
);
},
{
closed = 1;
nodes = (
"46 947 OFFCURVE",
"150 1161 OFFCURVE",
"338 1274 CURVE SMOOTH",
"432 1330 OFFCURVE",
"543 1358 OFFCURVE",
"672 1358 CURVE SMOOTH",
"1101 1358 OFFCURVE",
"1287 1123 OFFCURVE",
"1287 695 CURVE SMOOTH",
"1287 416 OFFCURVE",
"1182 192 OFFCURVE",
"993 72 CURVE SMOOTH",
"804 -49 OFFCURVE",
"389 -81 OFFCURVE",
"193 161 CURVE SMOOTH",
"95 282 OFFCURVE",
"46 451 OFFCURVE",
"46 670 CURVE SMOOTH"
);
},
{
closed = 1;
nodes = (
"447 473 OFFCURVE",
"466 331 OFFCURVE",
"503 244 CURVE SMOOTH",
"540 157 OFFCURVE",
"594 113 OFFCURVE",
"665 113 CURVE SMOOTH",
"736 113 OFFCURVE",
"790 163 OFFCURVE",
"829 263 CURVE SMOOTH",
"867 362 OFFCURVE",
"886 506 OFFCURVE",
"886 694 CURVE SMOOTH",
"886 827 OFFCURVE",
"877 933 OFFCURVE",
"860 1011 CURVE SMOOTH",
"825 1167 OFFCURVE",
"763 1225 OFFCURVE",
"668 1225 CURVE SMOOTH",
"595 1225 OFFCURVE",
"540 1179 OFFCURVE",
"503 1088 CURVE SMOOTH",
"466 996 OFFCURVE",
"447 857 OFFCURVE",
"447 671 CURVE SMOOTH"
);
}
);
width = 1334;
}
);
note = Odieresis;
unicode = 00D6;
},
{
glyphname = Ograve;
layers = (
{
layerId = "ED003BF4-EB5B-4214-9209-77B039A8E9AA";
name = Bold;
paths = (
{
closed = 1;
nodes = (
"561 1772 LINE",
"562 1772 LINE",
"822 1492 LINE",
"694 1402 LINE",
"693 1402 LINE",
"644 1415 OFFCURVE",
"544 1469 OFFCURVE",
"455 1535 CURVE SMOOTH",
"410 1568 OFFCURVE",
"375 1600 OFFCURVE",
"348 1632 CURVE"
);
},
{
closed = 1;
nodes = (
"46 947 OFFCURVE",
"150 1161 OFFCURVE",
"338 1274 CURVE SMOOTH",
"432 1330 OFFCURVE",
"543 1358 OFFCURVE",
"672 1358 CURVE SMOOTH",
"1101 1358 OFFCURVE",
"1287 1123 OFFCURVE",
"1287 695 CURVE SMOOTH",
"1287 416 OFFCURVE",
"1182 192 OFFCURVE",
"993 72 CURVE SMOOTH",
"804 -49 OFFCURVE",
"389 -81 OFFCURVE",
"193 161 CURVE SMOOTH",
"95 282 OFFCURVE",
"46 451 OFFCURVE",
"46 670 CURVE SMOOTH"
);
},
{
closed = 1;
nodes = (
"447 473 OFFCURVE",
"466 331 OFFCURVE",
"503 244 CURVE SMOOTH",
"540 157 OFFCURVE",
"594 113 OFFCURVE",
"665 113 CURVE SMOOTH",
"736 113 OFFCURVE",
"790 163 OFFCURVE",
"829 263 CURVE SMOOTH",
"867 362 OFFCURVE",
"886 506 OFFCURVE",
"886 694 CURVE SMOOTH",
"886 827 OFFCURVE",
"877 933 OFFCURVE",
"860 1011 CURVE SMOOTH",
"825 1167 OFFCURVE",
"763 1225 OFFCURVE",
"668 1225 CURVE SMOOTH",
"595 1225 OFFCURVE",
"540 1179 OFFCURVE",
"503 1088 CURVE SMOOTH",
"466 996 OFFCURVE",
"447 857 OFFCURVE",
"447 671 CURVE SMOOTH"
);
}
);
width = 1334;
}
);
note = Ograve;
unicode = 00D2;
},
{
glyphname = Ohungarumlaut;
layers = (
{
layerId = "ED003BF4-EB5B-4214-9209-77B039A8E9AA";
name = Bold;
paths = (
{
closed = 1;
nodes = (
"42 947 OFFCURVE",
"146 1161 OFFCURVE",
"334 1274 CURVE SMOOTH",
"428 1330 OFFCURVE",
"539 1358 OFFCURVE",
"668 1358 CURVE SMOOTH",
"1097 1358 OFFCURVE",
"1283 1123 OFFCURVE",
"1283 695 CURVE SMOOTH",
"1283 416 OFFCURVE",
"1178 192 OFFCURVE",
"989 72 CURVE SMOOTH",
"800 -49 OFFCURVE",
"385 -81 OFFCURVE",
"189 161 CURVE SMOOTH",
"91 282 OFFCURVE",
"42 451 OFFCURVE",
"42 670 CURVE SMOOTH"
);
},
{
closed = 1;
nodes = (
"443 473 OFFCURVE",
"462 331 OFFCURVE",
"499 244 CURVE SMOOTH",
"536 157 OFFCURVE",
"590 113 OFFCURVE",
"661 113 CURVE SMOOTH",
"732 113 OFFCURVE",
"786 163 OFFCURVE",
"825 263 CURVE SMOOTH",
"863 362 OFFCURVE",
"882 506 OFFCURVE",
"882 694 CURVE SMOOTH",
"882 827 OFFCURVE",
"873 933 OFFCURVE",
"856 1011 CURVE SMOOTH",
"821 1167 OFFCURVE",
"759 1225 OFFCURVE",
"664 1225 CURVE SMOOTH",
"591 1225 OFFCURVE",
"536 1179 OFFCURVE",
"499 1088 CURVE SMOOTH",
"462 996 OFFCURVE",
"443 857 OFFCURVE",
"443 671 CURVE SMOOTH"
);
},
{
closed = 1;
nodes = (
"540 1772 LINE",
"720 1639 LINE",
"649 1550 OFFCURVE",
"508 1441 OFFCURVE",
"413 1396 CURVE",
"280 1505 LINE"
);
},
{
closed = 1;
nodes = (
"1056 1772 LINE",
"1231 1643 LINE",
"1192 1588 OFFCURVE",
"1113 1516 OFFCURVE",
"1031 1460 CURVE SMOOTH",
"990 1431 OFFCURVE",
"954 1410 OFFCURVE",
"924 1396 CURVE",
"791 1505 LINE"
);
}
);
width = 1325;
}
);
note = Ohungarumlaut;
unicode = 0150;
},
{
glyphname = Omacron;
layers = (
{
layerId = "ED003BF4-EB5B-4214-9209-77B039A8E9AA";
name = Bold;
paths = (
{
closed = 1;
nodes = (
"975 1688 LINE",
"975 1494 LINE",
"363 1494 LINE",
"363 1688 LINE"
);
},
{
closed = 1;
nodes = (
"46 947 OFFCURVE",
"150 1161 OFFCURVE",
"338 1274 CURVE SMOOTH",
"432 1330 OFFCURVE",
"543 1358 OFFCURVE",
"672 1358 CURVE SMOOTH",
"1101 1358 OFFCURVE",
"1287 1123 OFFCURVE",
"1287 695 CURVE SMOOTH",
"1287 416 OFFCURVE",
"1182 192 OFFCURVE",
"993 72 CURVE SMOOTH",
"804 -49 OFFCURVE",
"389 -81 OFFCURVE",
"193 161 CURVE SMOOTH",
"95 282 OFFCURVE",
"46 451 OFFCURVE",
"46 670 CURVE SMOOTH"
);
},
{
closed = 1;
nodes = (
"447 473 OFFCURVE",
"466 331 OFFCURVE",
"503 244 CURVE SMOOTH",
"540 157 OFFCURVE",
"594 113 OFFCURVE",
"665 113 CURVE SMOOTH",
"736 113 OFFCURVE",
"790 163 OFFCURVE",
"829 263 CURVE SMOOTH",
"867 362 OFFCURVE",
"886 506 OFFCURVE",
"886 694 CURVE SMOOTH",
"886 827 OFFCURVE",
"877 933 OFFCURVE",
"860 1011 CURVE SMOOTH",
"825 1167 OFFCURVE",
"763 1225 OFFCURVE",
"668 1225 CURVE SMOOTH",
"595 1225 OFFCURVE",
"540 1179 OFFCURVE",
"503 1088 CURVE SMOOTH",
"466 996 OFFCURVE",
"447 857 OFFCURVE",
"447 671 CURVE SMOOTH"
);
}
);
width = 1334;
}
);
note = Omacron;
unicode = 014C;
},
{
glyphname = Oslash;
layers = (
{
layerId = "ED003BF4-EB5B-4214-9209-77B039A8E9AA";
name = Bold;
paths = (
{
closed = 1;
nodes = (
"322 53 LINE",
"135 154 OFFCURVE",
"42 360 OFFCURVE",
"42 670 CURVE SMOOTH",
"42 947 OFFCURVE",
"146 1161 OFFCURVE",
"334 1274 CURVE SMOOTH",
"428 1330 OFFCURVE",
"539 1358 OFFCURVE",
"668 1358 CURVE SMOOTH",
"733 1358 OFFCURVE",
"794 1352 OFFCURVE",
"850 1340 CURVE",
"931 1551 LINE",
"1082 1507 LINE",
"999 1290 LINE",
"1195 1191 OFFCURVE",
"1283 988 OFFCURVE",
"1283 695 CURVE SMOOTH",
"1283 416 OFFCURVE",
"1178 192 OFFCURVE",
"989 72 CURVE SMOOTH",
"894 11 OFFCURVE",
"783 -19 OFFCURVE",
"656 -20 CURVE SMOOTH",
"595 -20 OFFCURVE",
"536 -15 OFFCURVE",
"479 -4 CURVE",
"388 -219 LINE",
"226 -176 LINE"
);
},
{
closed = 1;
nodes = (
"443 529 OFFCURVE",
"453 415 OFFCURVE",
"473 328 CURVE",
"795 1161 LINE",
"762 1204 OFFCURVE",
"719 1225 OFFCURVE",
"664 1225 CURVE SMOOTH",
"591 1225 OFFCURVE",
"536 1179 OFFCURVE",
"499 1088 CURVE SMOOTH",
"462 996 OFFCURVE",
"443 857 OFFCURVE",
"443 671 CURVE SMOOTH"
);
},
{
closed = 1;
nodes = (
"524 192 LINE",
"559 139 OFFCURVE",
"604 113 OFFCURVE",
"661 113 CURVE SMOOTH",
"732 113 OFFCURVE",
"786 163 OFFCURVE",
"825 263 CURVE SMOOTH",
"863 362 OFFCURVE",
"882 506 OFFCURVE",
"882 694 CURVE SMOOTH",
"882 831 OFFCURVE",
"872 941 OFFCURVE",
"853 1025 CURVE"
);
}
);
width = 1325;
}
);
note = Oslash;
unicode = 00D8;
},
{
glyphname = Oslashacute;
layers = (
{
layerId = "ED003BF4-EB5B-4214-9209-77B039A8E9AA";
name = Bold;
paths = (
{
closed = 1;
nodes = (
"322 53 LINE",
"135 154 OFFCURVE",
"42 360 OFFCURVE",
"42 670 CURVE SMOOTH",
"42 947 OFFCURVE",
"146 1161 OFFCURVE",
"334 1274 CURVE SMOOTH",
"428 1330 OFFCURVE",
"539 1358 OFFCURVE",
"668 1358 CURVE SMOOTH",
"733 1358 OFFCURVE",
"794 1352 OFFCURVE",
"850 1340 CURVE",
"931 1551 LINE",
"1082 1507 LINE",
"999 1290 LINE",
"1195 1191 OFFCURVE",
"1283 988 OFFCURVE",
"1283 695 CURVE SMOOTH",
"1283 416 OFFCURVE",
"1178 192 OFFCURVE",
"989 72 CURVE SMOOTH",
"894 11 OFFCURVE",
"783 -19 OFFCURVE",
"656 -20 CURVE SMOOTH",
"595 -20 OFFCURVE",
"536 -15 OFFCURVE",
"479 -4 CURVE",
"388 -219 LINE",
"226 -176 LINE"
);
},
{
closed = 1;
nodes = (
"443 529 OFFCURVE",
"453 415 OFFCURVE",
"473 328 CURVE",
"795 1161 LINE",
"762 1204 OFFCURVE",
"719 1225 OFFCURVE",
"664 1225 CURVE SMOOTH",
"591 1225 OFFCURVE",
"536 1179 OFFCURVE",
"499 1088 CURVE SMOOTH",
"462 996 OFFCURVE",
"443 857 OFFCURVE",
"443 671 CURVE SMOOTH"
);
},
{
closed = 1;
nodes = (
"524 192 LINE",
"559 139 OFFCURVE",
"604 113 OFFCURVE",
"661 113 CURVE SMOOTH",
"732 113 OFFCURVE",
"786 163 OFFCURVE",
"825 263 CURVE SMOOTH",
"863 362 OFFCURVE",
"882 506 OFFCURVE",
"882 694 CURVE SMOOTH",
"882 831 OFFCURVE",
"872 941 OFFCURVE",
"853 1025 CURVE"
);
},
{
closed = 1;
nodes = (
"764 1772 LINE",
"764 1772 LINE",
"977 1632 LINE",
"909 1559 OFFCURVE",
"809 1489 OFFCURVE",
"726 1445 CURVE SMOOTH",
"685 1422 OFFCURVE",
"653 1408 OFFCURVE",
"632 1402 CURVE",
"631 1402 LINE",
"504 1492 LINE"
);
}
);
width = 1325;
}
);
note = Oslashacute;
unicode = 01FE;
},
{
glyphname = Otilde;
layers = (
{
layerId = "ED003BF4-EB5B-4214-9209-77B039A8E9AA";
name = Bold;
paths = (
{
closed = 1;
nodes = (
"431 1566 OFFCURVE",
"394 1544 OFFCURVE",
"374 1525 CURVE SMOOTH",
"363 1515 OFFCURVE",
"349 1500 OFFCURVE",
"331 1481 CURVE",
"238 1578 LINE",
"294 1679 OFFCURVE",
"386 1767 OFFCURVE",
"526 1767 CURVE SMOOTH",
"603 1767 OFFCURVE",
"655 1740 OFFCURVE",
"728 1691 CURVE SMOOTH",
"787 1652 OFFCURVE",
"819 1634 OFFCURVE",
"862 1634 CURVE SMOOTH",
"926 1634 OFFCURVE",
"958 1664 OFFCURVE",
"982 1692 CURVE SMOOTH",
"994 1706 OFFCURVE",
"1002 1715 OFFCURVE",
"1005 1720 CURVE",
"1099 1624 LINE",
"1036 1511 OFFCURVE",
"952 1433 OFFCURVE",
"825 1433 CURVE SMOOTH",
"752 1433 OFFCURVE",
"702 1458 OFFCURVE",
"623 1507 CURVE SMOOTH",
"560 1546 OFFCURVE",
"522 1566 OFFCURVE",
"474 1566 CURVE SMOOTH"
);
},
{
closed = 1;
nodes = (
"46 947 OFFCURVE",
"150 1161 OFFCURVE",
"338 1274 CURVE SMOOTH",
"432 1330 OFFCURVE",
"543 1358 OFFCURVE",
"672 1358 CURVE SMOOTH",
"1101 1358 OFFCURVE",
"1287 1123 OFFCURVE",
"1287 695 CURVE SMOOTH",
"1287 416 OFFCURVE",
"1182 192 OFFCURVE",
"993 72 CURVE SMOOTH",
"804 -49 OFFCURVE",
"389 -81 OFFCURVE",
"193 161 CURVE SMOOTH",
"95 282 OFFCURVE",
"46 451 OFFCURVE",
"46 670 CURVE SMOOTH"
);
},
{
closed = 1;
nodes = (
"447 473 OFFCURVE",
"466 331 OFFCURVE",
"503 244 CURVE SMOOTH",
"540 157 OFFCURVE",
"594 113 OFFCURVE",
"665 113 CURVE SMOOTH",
"736 113 OFFCURVE",
"790 163 OFFCURVE",
"829 263 CURVE SMOOTH",
"867 362 OFFCURVE",
"886 506 OFFCURVE",
"886 694 CURVE SMOOTH",
"886 827 OFFCURVE",
"877 933 OFFCURVE",
"860 1011 CURVE SMOOTH",
"825 1167 OFFCURVE",
"763 1225 OFFCURVE",
"668 1225 CURVE SMOOTH",
"595 1225 OFFCURVE",
"540 1179 OFFCURVE",
"503 1088 CURVE SMOOTH",
"466 996 OFFCURVE",
"447 857 OFFCURVE",
"447 671 CURVE SMOOTH"
);
}
);
width = 1334;
}
);
note = Otilde;
unicode = 00D5;
},
{
glyphname = OE;
layers = (
{
layerId = "ED003BF4-EB5B-4214-9209-77B039A8E9AA";
name = Bold;
paths = (
{
closed = 1;
nodes = (
"847 33 LINE",
"792 2 OFFCURVE",
"729 -14 OFFCURVE",
"656 -14 CURVE SMOOTH",
"375 -14 OFFCURVE",
"194 106 OFFCURVE",
"107 310 CURVE SMOOTH",
"64 411 OFFCURVE",
"42 531 OFFCURVE",
"42 670 CURVE SMOOTH",
"42 950 OFFCURVE",
"142 1162 OFFCURVE",
"331 1275 CURVE SMOOTH",
"426 1331 OFFCURVE",
"540 1359 OFFCURVE",
"674 1359 CURVE SMOOTH",
"739 1359 OFFCURVE",
"796 1349 OFFCURVE",
"847 1330 CURVE",
"847 1339 LINE",
"1742 1339 LINE",
"1766 1001 LINE",
"1602 1001 LINE",
"1537 1186 LINE",
"1221 1209 LINE",
"1221 759 LINE",
"1404 766 LINE",
"1436 910 LINE",
"1583 910 LINE",
"1583 440 LINE",
"1436 440 LINE",
"1404 596 LINE",
"1221 602 LINE",
"1221 137 LINE",
"1575 165 LINE",
"1708 393 LINE",
"1875 345 LINE",
"1818 0 LINE",
"847 0 LINE"
);
},
{
closed = 1;
nodes = (
"847 1035 LINE",
"814 1179 OFFCURVE",
"756 1228 OFFCURVE",
"659 1228 CURVE SMOOTH",
"514 1228 OFFCURVE",
"442 1042 OFFCURVE",
"442 671 CURVE SMOOTH",
"442 300 OFFCURVE",
"516 115 OFFCURVE",
"664 114 CURVE SMOOTH",
"752 114 OFFCURVE",
"812 201 OFFCURVE",
"847 356 CURVE"
);
}
);
width = 1882;
}
);
note = OE;
unicode = 0152;
},
{
glyphname = P;
layers = (
{
layerId = "ED003BF4-EB5B-4214-9209-77B039A8E9AA";
name = Bold;
paths = (
{
closed = 1;
nodes = (
"184 154 LINE",
"184 1170 LINE",
"56 1197 LINE",
"56 1339 LINE",
"374 1339 LINE SMOOTH",
"390 1339 OFFCURVE",
"423 1340 OFFCURVE",
"473 1343 CURVE SMOOTH",
"542 1346 OFFCURVE",
"602 1348 OFFCURVE",
"655 1348 CURVE SMOOTH",
"932 1348 OFFCURVE",
"1086 1287 OFFCURVE",
"1151 1168 CURVE SMOOTH",
"1184 1109 OFFCURVE",
"1200 1033 OFFCURVE",
"1200 940 CURVE SMOOTH",
"1200 623 OFFCURVE",
"1015 444 OFFCURVE",
"651 444 CURVE SMOOTH",
"608 444 OFFCURVE",
"565 446 OFFCURVE",
"549 449 CURVE",
"549 154 LINE",
"782 134 LINE",
"782 0 LINE",
"53 0 LINE",
"53 134 LINE"
);
},
{
closed = 1;
nodes = (
"761 576 OFFCURVE",
"831 674 OFFCURVE",
"831 929 CURVE SMOOTH",
"831 1121 OFFCURVE",
"766 1217 OFFCURVE",
"637 1217 CURVE SMOOTH",
"616 1217 OFFCURVE",
"600 1216 OFFCURVE",
"589 1215 CURVE SMOOTH",
"578 1214 OFFCURVE",
"570 1212 OFFCURVE",
"564 1210 CURVE",
"557 1208 OFFCURVE",
"552 1207 OFFCURVE",
"548 1206 CURVE",
"548 586 LINE",
"569 579 OFFCURVE",
"600 576 OFFCURVE",
"641 576 CURVE SMOOTH"
);
}
);
width = 1222;
}
);
note = P;
unicode = 0050;
},
{
glyphname = Thorn;
layers = (
{
layerId = "ED003BF4-EB5B-4214-9209-77B039A8E9AA";
name = Bold;
paths = (
{
closed = 1;
nodes = (
"183 153 LINE",
"183 1170 LINE",
"46 1199 LINE",
"46 1339 LINE",
"694 1339 LINE",
"696 1198 LINE",
"550 1170 LINE",
"550 1040 LINE",
"627 1048 LINE SMOOTH",
"699 1055 OFFCURVE",
"735 1059 OFFCURVE",
"802 1059 CURVE SMOOTH",
"1067 1059 OFFCURVE",
"1198 942 OFFCURVE",
"1198 697 CURVE SMOOTH",
"1198 417 OFFCURVE",
"1037 277 OFFCURVE",
"753 277 CURVE SMOOTH",
"685 277 OFFCURVE",
"601 285 OFFCURVE",
"550 290 CURVE",
"550 154 LINE",
"730 132 LINE",
"730 0 LINE",
"48 0 LINE",
"48 132 LINE"
);
},
{
closed = 1;
nodes = (
"816 816 OFFCURVE",
"766 918 OFFCURVE",
"651 918 CURVE SMOOTH",
"616 918 OFFCURVE",
"573 913 OFFCURVE",
"550 906 CURVE",
"550 418 LINE",
"587 411 OFFCURVE",
"618 410 OFFCURVE",
"674 410 CURVE SMOOTH",
"729 410 OFFCURVE",
"774 459 OFFCURVE",
"798 543 CURVE SMOOTH",
"810 584 OFFCURVE",
"816 632 OFFCURVE",
"816 685 CURVE SMOOTH"
);
}
);
width = 1229;
}
);
note = Thorn;
unicode = 00DE;
},
{
glyphname = Q;
layers = (
{
layerId = "ED003BF4-EB5B-4214-9209-77B039A8E9AA";
name = Bold;
paths = (
{
closed = 1;
nodes = (
"42 947 OFFCURVE",
"146 1161 OFFCURVE",
"334 1274 CURVE SMOOTH",
"428 1330 OFFCURVE",
"539 1358 OFFCURVE",
"668 1358 CURVE SMOOTH",
"1097 1358 OFFCURVE",
"1283 1123 OFFCURVE",
"1283 695 CURVE SMOOTH",
"1283 410 OFFCURVE",
"1175 182 OFFCURVE",
"980 65 CURVE",
"1047 50 OFFCURVE",
"1104 26 OFFCURVE",
"1220 -26 CURVE SMOOTH",
"1368 -93 OFFCURVE",
"1454 -126 OFFCURVE",
"1538 -126 CURVE SMOOTH",
"1540 -126 LINE SMOOTH",
"1594 -126 OFFCURVE",
"1632 -122 OFFCURVE",
"1654 -114 CURVE",
"1683 -202 LINE",
"1654 -242 OFFCURVE",
"1632 -274 OFFCURVE",
"1564 -305 CURVE SMOOTH",
"1530 -320 OFFCURVE",
"1487 -328 OFFCURVE",
"1435 -328 CURVE SMOOTH",
"1426 -328 LINE SMOOTH",
"1319 -328 OFFCURVE",
"1219 -287 OFFCURVE",
"1139 -237 CURVE SMOOTH",
"1099 -212 OFFCURVE",
"1051 -179 OFFCURVE",
"994 -137 CURVE SMOOTH",
"899 -69 OFFCURVE",
"847 -34 OFFCURVE",
"786 -7 CURVE",
"738 -16 OFFCURVE",
"693 -20 OFFCURVE",
"651 -20 CURVE SMOOTH",
"228 -20 OFFCURVE",
"42 234 OFFCURVE",
"42 670 CURVE SMOOTH"
);
},
{
closed = 1;
nodes = (
"443 473 OFFCURVE",
"462 331 OFFCURVE",
"499 244 CURVE SMOOTH",
"536 157 OFFCURVE",
"590 113 OFFCURVE",
"661 113 CURVE SMOOTH",
"732 113 OFFCURVE",
"786 163 OFFCURVE",
"825 263 CURVE SMOOTH",
"863 362 OFFCURVE",
"882 506 OFFCURVE",
"882 694 CURVE SMOOTH",
"882 827 OFFCURVE",
"873 933 OFFCURVE",
"856 1011 CURVE SMOOTH",
"821 1167 OFFCURVE",
"759 1225 OFFCURVE",
"664 1225 CURVE SMOOTH",
"591 1225 OFFCURVE",
"536 1179 OFFCURVE",
"499 1088 CURVE SMOOTH",
"462 996 OFFCURVE",
"443 857 OFFCURVE",
"443 671 CURVE SMOOTH"
);
}
);
width = 1325;
}
);
note = Q;
unicode = 0051;
},
{
glyphname = R;
layers = (
{
layerId = "ED003BF4-EB5B-4214-9209-77B039A8E9AA";
name = Bold;
paths = (
{
closed = 1;
nodes = (
"184 154 LINE",
"184 1170 LINE",
"56 1197 LINE",
"56 1339 LINE",
"356 1339 LINE SMOOTH",
"399 1339 OFFCURVE",
"444 1341 OFFCURVE",
"493 1344 CURVE SMOOTH",
"561 1347 OFFCURVE",
"620 1349 OFFCURVE",
"671 1349 CURVE SMOOTH",
"935 1349 OFFCURVE",
"1086 1303 OFFCURVE",
"1157 1199 CURVE SMOOTH",
"1192 1147 OFFCURVE",
"1210 1077 OFFCURVE",
"1210 990 CURVE SMOOTH",
"1210 890 OFFCURVE",
"1176 786 OFFCURVE",
"1101 706 CURVE SMOOTH",
"1064 666 OFFCURVE",
"1016 637 OFFCURVE",
"958 619 CURVE",
"1047 591 OFFCURVE",
"1115 515 OFFCURVE",
"1156 436 CURVE SMOOTH",
"1177 397 OFFCURVE",
"1199 348 OFFCURVE",
"1224 291 CURVE SMOOTH",
"1244 245 OFFCURVE",
"1260 211 OFFCURVE",
"1273 189 CURVE SMOOTH",
"1286 166 OFFCURVE",
"1299 153 OFFCURVE",
"1314 149 CURVE",
"1358 134 LINE",
"1358 0 LINE",
"968 0 LINE SMOOTH",
"950 0 OFFCURVE",
"933 19 OFFCURVE",
"916 57 CURVE SMOOTH",
"899 94 OFFCURVE",
"878 153 OFFCURVE",
"851 232 CURVE SMOOTH",
"808 361 OFFCURVE",
"783 437 OFFCURVE",
"743 501 CURVE SMOOTH",
"723 533 OFFCURVE",
"701 553 OFFCURVE",
"678 560 CURVE",
"549 560 LINE",
"549 153 LINE",
"701 134 LINE",
"701 0 LINE",
"53 0 LINE",
"53 134 LINE"
);
},
{
closed = 1;
nodes = (
"764 688 OFFCURVE",
"825 782 OFFCURVE",
"825 979 CURVE SMOOTH",
"825 1150 OFFCURVE",
"769 1219 OFFCURVE",
"640 1219 CURVE SMOOTH",
"594 1219 OFFCURVE",
"564 1216 OFFCURVE",
"549 1211 CURVE",
"549 694 LINE",
"561 689 OFFCURVE",
"619 688 OFFCURVE",
"651 688 CURVE SMOOTH"
);
}
);
width = 1342;
}
);
note = R;
unicode = 0052;
},
{
glyphname = Racute;
layers = (
{
layerId = "ED003BF4-EB5B-4214-9209-77B039A8E9AA";
name = Bold;
paths = (
{
closed = 1;
nodes = (
"184 154 LINE",
"184 1170 LINE",
"56 1197 LINE",
"56 1339 LINE",
"356 1339 LINE SMOOTH",
"399 1339 OFFCURVE",
"444 1341 OFFCURVE",
"493 1344 CURVE SMOOTH",
"561 1347 OFFCURVE",
"620 1349 OFFCURVE",
"671 1349 CURVE SMOOTH",
"935 1349 OFFCURVE",
"1086 1303 OFFCURVE",
"1157 1199 CURVE SMOOTH",
"1192 1147 OFFCURVE",
"1210 1077 OFFCURVE",
"1210 990 CURVE SMOOTH",
"1210 890 OFFCURVE",
"1176 786 OFFCURVE",
"1101 706 CURVE SMOOTH",
"1064 666 OFFCURVE",
"1016 637 OFFCURVE",
"958 619 CURVE",
"1047 591 OFFCURVE",
"1115 515 OFFCURVE",
"1156 436 CURVE SMOOTH",
"1177 397 OFFCURVE",
"1199 348 OFFCURVE",
"1224 291 CURVE SMOOTH",
"1244 245 OFFCURVE",
"1260 211 OFFCURVE",
"1273 189 CURVE SMOOTH",
"1286 166 OFFCURVE",
"1299 153 OFFCURVE",
"1314 149 CURVE",
"1358 134 LINE",
"1358 0 LINE",
"968 0 LINE SMOOTH",
"950 0 OFFCURVE",
"933 19 OFFCURVE",
"916 57 CURVE SMOOTH",
"899 94 OFFCURVE",
"878 153 OFFCURVE",
"851 232 CURVE SMOOTH",
"808 361 OFFCURVE",
"783 437 OFFCURVE",
"743 501 CURVE SMOOTH",
"723 533 OFFCURVE",
"701 553 OFFCURVE",
"678 560 CURVE",
"549 560 LINE",
"549 153 LINE",
"701 134 LINE",
"701 0 LINE",
"53 0 LINE",
"53 134 LINE"
);
},
{
closed = 1;
nodes = (
"764 688 OFFCURVE",
"825 782 OFFCURVE",
"825 979 CURVE SMOOTH",
"825 1150 OFFCURVE",
"769 1219 OFFCURVE",
"640 1219 CURVE SMOOTH",
"594 1219 OFFCURVE",
"564 1216 OFFCURVE",
"549 1211 CURVE",
"549 694 LINE",
"561 689 OFFCURVE",
"619 688 OFFCURVE",
"651 688 CURVE SMOOTH"
);
},
{
closed = 1;
nodes = (
"768 1772 LINE",
"768 1772 LINE",
"981 1632 LINE",
"913 1559 OFFCURVE",
"813 1489 OFFCURVE",
"730 1445 CURVE SMOOTH",
"689 1422 OFFCURVE",
"657 1408 OFFCURVE",
"636 1402 CURVE",
"635 1402 LINE",
"508 1492 LINE"
);
}
);
width = 1342;
}
);
note = Racute;
unicode = 0154;
},
{
glyphname = Rcaron;
layers = (
{
layerId = "ED003BF4-EB5B-4214-9209-77B039A8E9AA";
name = Bold;
paths = (
{
closed = 1;
nodes = (
"397 1772 LINE",
"646 1619 LINE",
"912 1772 LINE",
"1023 1676 LINE",
"739 1422 LINE",
"555 1422 LINE",
"286 1677 LINE"
);
},
{
closed = 1;
nodes = (
"184 154 LINE",
"184 1170 LINE",
"56 1197 LINE",
"56 1339 LINE",
"356 1339 LINE SMOOTH",
"399 1339 OFFCURVE",
"444 1341 OFFCURVE",
"493 1344 CURVE SMOOTH",
"561 1347 OFFCURVE",
"620 1349 OFFCURVE",
"671 1349 CURVE SMOOTH",
"935 1349 OFFCURVE",
"1086 1303 OFFCURVE",
"1157 1199 CURVE SMOOTH",
"1192 1147 OFFCURVE",
"1210 1077 OFFCURVE",
"1210 990 CURVE SMOOTH",
"1210 890 OFFCURVE",
"1176 786 OFFCURVE",
"1101 706 CURVE SMOOTH",
"1064 666 OFFCURVE",
"1016 637 OFFCURVE",
"958 619 CURVE",
"1047 591 OFFCURVE",
"1115 515 OFFCURVE",
"1156 436 CURVE SMOOTH",
"1177 397 OFFCURVE",
"1199 348 OFFCURVE",
"1224 291 CURVE SMOOTH",
"1244 245 OFFCURVE",
"1260 211 OFFCURVE",
"1273 189 CURVE SMOOTH",
"1286 166 OFFCURVE",
"1299 153 OFFCURVE",
"1314 149 CURVE",
"1358 134 LINE",
"1358 0 LINE",
"968 0 LINE SMOOTH",
"950 0 OFFCURVE",
"933 19 OFFCURVE",
"916 57 CURVE SMOOTH",
"899 94 OFFCURVE",
"878 153 OFFCURVE",
"851 232 CURVE SMOOTH",
"808 361 OFFCURVE",
"783 437 OFFCURVE",
"743 501 CURVE SMOOTH",
"723 533 OFFCURVE",
"701 553 OFFCURVE",
"678 560 CURVE",
"549 560 LINE",
"549 153 LINE",
"701 134 LINE",
"701 0 LINE",
"53 0 LINE",
"53 134 LINE"
);
},
{
closed = 1;
nodes = (
"764 688 OFFCURVE",
"825 782 OFFCURVE",
"825 979 CURVE SMOOTH",
"825 1150 OFFCURVE",
"769 1219 OFFCURVE",
"640 1219 CURVE SMOOTH",
"594 1219 OFFCURVE",
"564 1216 OFFCURVE",
"549 1211 CURVE",
"549 694 LINE",
"561 689 OFFCURVE",
"619 688 OFFCURVE",
"651 688 CURVE SMOOTH"
);
}
);
width = 1342;
}
);
note = Rcaron;
unicode = 0158;
},
{
glyphname = Rcommaaccent;
layers = (
{
layerId = "ED003BF4-EB5B-4214-9209-77B039A8E9AA";
name = Bold;
paths = (
{
closed = 1;
nodes = (
"702 -493 LINE",
"594 -468 LINE",
"589 -454 LINE",
"612 -446 OFFCURVE",
"627 -392 OFFCURVE",
"627 -348 CURVE SMOOTH",
"627 -313 OFFCURVE",
"613 -296 OFFCURVE",
"593 -284 CURVE",
"570 -267 OFFCURVE",
"550 -235 OFFCURVE",
"550 -194 CURVE SMOOTH",
"550 -137 OFFCURVE",
"587 -102 OFFCURVE",
"636 -86 CURVE SMOOTH",
"660 -79 OFFCURVE",
"684 -75 OFFCURVE",
"708 -75 CURVE SMOOTH",
"714 -75 LINE SMOOTH",
"805 -75 OFFCURVE",
"865 -129 OFFCURVE",
"865 -222 CURVE SMOOTH",
"864 -302 OFFCURVE",
"822 -386 OFFCURVE",
"771 -441 CURVE SMOOTH",
"746 -469 OFFCURVE",
"724 -486 OFFCURVE",
"706 -493 CURVE"
);
},
{
closed = 1;
nodes = (
"184 154 LINE",
"184 1170 LINE",
"56 1197 LINE",
"56 1339 LINE",
"356 1339 LINE SMOOTH",
"399 1339 OFFCURVE",
"444 1341 OFFCURVE",
"493 1344 CURVE SMOOTH",
"561 1347 OFFCURVE",
"620 1349 OFFCURVE",
"671 1349 CURVE SMOOTH",
"935 1349 OFFCURVE",
"1086 1303 OFFCURVE",
"1157 1199 CURVE SMOOTH",
"1192 1147 OFFCURVE",
"1210 1077 OFFCURVE",
"1210 990 CURVE SMOOTH",
"1210 890 OFFCURVE",
"1176 786 OFFCURVE",
"1101 706 CURVE SMOOTH",
"1064 666 OFFCURVE",
"1016 637 OFFCURVE",
"958 619 CURVE",
"1047 591 OFFCURVE",
"1115 515 OFFCURVE",
"1156 436 CURVE SMOOTH",
"1177 397 OFFCURVE",
"1199 348 OFFCURVE",
"1224 291 CURVE SMOOTH",
"1244 245 OFFCURVE",
"1260 211 OFFCURVE",
"1273 189 CURVE SMOOTH",
"1286 166 OFFCURVE",
"1299 153 OFFCURVE",
"1314 149 CURVE",
"1358 134 LINE",
"1358 0 LINE",
"968 0 LINE SMOOTH",
"950 0 OFFCURVE",
"933 19 OFFCURVE",
"916 57 CURVE SMOOTH",
"899 94 OFFCURVE",
"878 153 OFFCURVE",
"851 232 CURVE SMOOTH",
"808 361 OFFCURVE",
"783 437 OFFCURVE",
"743 501 CURVE SMOOTH",
"723 533 OFFCURVE",
"701 553 OFFCURVE",
"678 560 CURVE",
"549 560 LINE",
"549 153 LINE",
"701 134 LINE",
"701 0 LINE",
"53 0 LINE",
"53 134 LINE"
);
},
{
closed = 1;
nodes = (
"764 688 OFFCURVE",
"825 782 OFFCURVE",
"825 979 CURVE SMOOTH",
"825 1150 OFFCURVE",
"769 1219 OFFCURVE",
"640 1219 CURVE SMOOTH",
"594 1219 OFFCURVE",
"564 1216 OFFCURVE",
"549 1211 CURVE",
"549 694 LINE",
"561 689 OFFCURVE",
"619 688 OFFCURVE",
"651 688 CURVE SMOOTH"
);
}
);
width = 1342;
}
);
note = Rcommaaccent;
unicode = 0156;
},
{
glyphname = S;
layers = (
{
layerId = "ED003BF4-EB5B-4214-9209-77B039A8E9AA";
name = Bold;
paths = (
{
closed = 1;
nodes = (
"106 400 LINE",
"301 400 LINE",
"351 173 LINE",
"372 144 OFFCURVE",
"436 120 OFFCURVE",
"529 120 CURVE SMOOTH",
"658 120 OFFCURVE",
"719 177 OFFCURVE",
"719 277 CURVE SMOOTH",
"719 349 OFFCURVE",
"672 402 OFFCURVE",
"592 450 CURVE SMOOTH",
"551 474 OFFCURVE",
"495 503 OFFCURVE",
"423 537 CURVE SMOOTH",
"203 640 OFFCURVE",
"93 788 OFFCURVE",
"93 979 CURVE SMOOTH",
"93 1114 OFFCURVE",
"158 1233 OFFCURVE",
"306 1305 CURVE SMOOTH",
"380 1340 OFFCURVE",
"474 1358 OFFCURVE",
"588 1358 CURVE SMOOTH",
"724 1358 OFFCURVE",
"812 1338 OFFCURVE",
"921 1309 CURVE SMOOTH",
"955 1299 OFFCURVE",
"978 1294 OFFCURVE",
"990 1294 CURVE",
"979 964 LINE",
"788 964 LINE",
"744 1184 LINE",
"732 1204 OFFCURVE",
"677 1223 OFFCURVE",
"609 1223 CURVE SMOOTH",
"490 1223 OFFCURVE",
"438 1157 OFFCURVE",
"438 1074 CURVE SMOOTH",
"438 997 OFFCURVE",
"498 936 OFFCURVE",
"575 889 CURVE SMOOTH",
"614 866 OFFCURVE",
"667 837 OFFCURVE",
"736 803 CURVE",
"739 802 OFFCURVE",
"747 797 OFFCURVE",
"761 790 CURVE SMOOTH",
"876 734 OFFCURVE",
"968 676 OFFCURVE",
"1033 574 CURVE SMOOTH",
"1066 523 OFFCURVE",
"1082 463 OFFCURVE",
"1082 395 CURVE SMOOTH",
"1082 259 OFFCURVE",
"1031 127 OFFCURVE",
"874 43 CURVE SMOOTH",
"795 1 OFFCURVE",
"688 -20 OFFCURVE",
"552 -20 CURVE SMOOTH",
"413 -20 OFFCURVE",
"303 3 OFFCURVE",
"176 39 CURVE SMOOTH",
"135 50 OFFCURVE",
"107 56 OFFCURVE",
"91 58 CURVE"
);
}
);
width = 1110;
}
);
note = S;
unicode = 0053;
},
{
glyphname = Sacute;
layers = (
{
layerId = "ED003BF4-EB5B-4214-9209-77B039A8E9AA";
name = Bold;
paths = (
{
closed = 1;
nodes = (
"106 400 LINE",
"301 400 LINE",
"351 173 LINE",
"372 144 OFFCURVE",
"436 120 OFFCURVE",
"529 120 CURVE SMOOTH",
"658 120 OFFCURVE",
"719 177 OFFCURVE",
"719 277 CURVE SMOOTH",
"719 349 OFFCURVE",
"672 402 OFFCURVE",
"592 450 CURVE SMOOTH",
"551 474 OFFCURVE",
"495 503 OFFCURVE",
"423 537 CURVE SMOOTH",
"203 640 OFFCURVE",
"93 788 OFFCURVE",
"93 979 CURVE SMOOTH",
"93 1114 OFFCURVE",
"158 1233 OFFCURVE",
"306 1305 CURVE SMOOTH",
"380 1340 OFFCURVE",
"474 1358 OFFCURVE",
"588 1358 CURVE SMOOTH",
"724 1358 OFFCURVE",
"812 1338 OFFCURVE",
"921 1309 CURVE SMOOTH",
"955 1299 OFFCURVE",
"978 1294 OFFCURVE",
"990 1294 CURVE",
"979 964 LINE",
"788 964 LINE",
"744 1184 LINE",
"732 1204 OFFCURVE",
"677 1223 OFFCURVE",
"609 1223 CURVE SMOOTH",
"490 1223 OFFCURVE",
"438 1157 OFFCURVE",
"438 1074 CURVE SMOOTH",
"438 997 OFFCURVE",
"498 936 OFFCURVE",
"575 889 CURVE SMOOTH",
"614 866 OFFCURVE",
"667 837 OFFCURVE",
"736 803 CURVE",
"739 802 OFFCURVE",
"747 797 OFFCURVE",
"761 790 CURVE SMOOTH",
"876 734 OFFCURVE",
"968 676 OFFCURVE",
"1033 574 CURVE SMOOTH",
"1066 523 OFFCURVE",
"1082 463 OFFCURVE",
"1082 395 CURVE SMOOTH",
"1082 259 OFFCURVE",
"1031 127 OFFCURVE",
"874 43 CURVE SMOOTH",
"795 1 OFFCURVE",
"688 -20 OFFCURVE",
"552 -20 CURVE SMOOTH",
"413 -20 OFFCURVE",
"303 3 OFFCURVE",
"176 39 CURVE SMOOTH",
"135 50 OFFCURVE",
"107 56 OFFCURVE",
"91 58 CURVE"
);
},
{
closed = 1;
nodes = (
"709 1772 LINE",
"709 1772 LINE",
"922 1632 LINE",
"854 1559 OFFCURVE",
"754 1489 OFFCURVE",
"671 1445 CURVE SMOOTH",
"630 1422 OFFCURVE",
"598 1408 OFFCURVE",
"577 1402 CURVE",
"576 1402 LINE",
"449 1492 LINE"
);
}
);
width = 1110;
}
);
note = Sacute;
unicode = 015A;
},
{
glyphname = Scaron;
layers = (
{
layerId = "ED003BF4-EB5B-4214-9209-77B039A8E9AA";
name = Bold;
paths = (
{
closed = 1;
nodes = (
"106 400 LINE",
"301 400 LINE",
"351 173 LINE",
"372 144 OFFCURVE",
"436 120 OFFCURVE",
"529 120 CURVE SMOOTH",
"658 120 OFFCURVE",
"719 177 OFFCURVE",
"719 277 CURVE SMOOTH",
"719 349 OFFCURVE",
"672 402 OFFCURVE",
"592 450 CURVE SMOOTH",
"551 474 OFFCURVE",
"495 503 OFFCURVE",
"423 537 CURVE SMOOTH",
"203 640 OFFCURVE",
"93 788 OFFCURVE",
"93 979 CURVE SMOOTH",
"93 1114 OFFCURVE",
"158 1233 OFFCURVE",
"306 1305 CURVE SMOOTH",
"380 1340 OFFCURVE",
"474 1358 OFFCURVE",
"588 1358 CURVE SMOOTH",
"724 1358 OFFCURVE",
"812 1338 OFFCURVE",
"921 1309 CURVE SMOOTH",
"955 1299 OFFCURVE",
"978 1294 OFFCURVE",
"990 1294 CURVE",
"979 964 LINE",
"788 964 LINE",
"744 1184 LINE",
"732 1204 OFFCURVE",
"677 1223 OFFCURVE",
"609 1223 CURVE SMOOTH",
"490 1223 OFFCURVE",
"438 1157 OFFCURVE",
"438 1074 CURVE SMOOTH",
"438 997 OFFCURVE",
"498 936 OFFCURVE",
"575 889 CURVE SMOOTH",
"614 866 OFFCURVE",
"667 837 OFFCURVE",
"736 803 CURVE",
"739 802 OFFCURVE",
"747 797 OFFCURVE",
"761 790 CURVE SMOOTH",
"876 734 OFFCURVE",
"968 676 OFFCURVE",
"1033 574 CURVE SMOOTH",
"1066 523 OFFCURVE",
"1082 463 OFFCURVE",
"1082 395 CURVE SMOOTH",
"1082 259 OFFCURVE",
"1031 127 OFFCURVE",
"874 43 CURVE SMOOTH",
"795 1 OFFCURVE",
"688 -20 OFFCURVE",
"552 -20 CURVE SMOOTH",
"413 -20 OFFCURVE",
"303 3 OFFCURVE",
"176 39 CURVE SMOOTH",
"135 50 OFFCURVE",
"107 56 OFFCURVE",
"91 58 CURVE"
);
},
{
closed = 1;
nodes = (
"339 1772 LINE",
"588 1619 LINE",
"854 1772 LINE",
"965 1676 LINE",
"681 1422 LINE",
"497 1422 LINE",
"228 1677 LINE"
);
}
);
width = 1110;
}
);
note = Scaron;
unicode = 0160;
},
{
glyphname = Scedilla;
layers = (
{
layerId = "ED003BF4-EB5B-4214-9209-77B039A8E9AA";
name = Bold;
paths = (
{
closed = 1;
nodes = (
"1082 274 OFFCURVE",
"1041 158 OFFCURVE",
"921 71 CURVE SMOOTH",
"860 27 OFFCURVE",
"778 -1 OFFCURVE",
"674 -13 CURVE",
"733 -77 OFFCURVE",
"786 -166 OFFCURVE",
"781 -261 CURVE SMOOTH",
"776 -369 OFFCURVE",
"729 -429 OFFCURVE",
"648 -455 CURVE SMOOTH",
"607 -468 OFFCURVE",
"556 -475 OFFCURVE",
"494 -475 CURVE SMOOTH",
"493 -475 LINE SMOOTH",
"453 -475 OFFCURVE",
"398 -462 OFFCURVE",
"366 -449 CURVE",
"367 -260 LINE",
"390 -268 OFFCURVE",
"424 -272 OFFCURVE",
"439 -272 CURVE SMOOTH",
"440 -272 LINE SMOOTH",
"499 -272 OFFCURVE",
"529 -265 OFFCURVE",
"547 -229 CURVE SMOOTH",
"556 -212 OFFCURVE",
"560 -185 OFFCURVE",
"560 -150 CURVE SMOOTH",
"560 -109 OFFCURVE",
"543 -60 OFFCURVE",
"520 -19 CURVE",
"393 -16 OFFCURVE",
"291 7 OFFCURVE",
"176 39 CURVE SMOOTH",
"135 50 OFFCURVE",
"107 56 OFFCURVE",
"91 58 CURVE",
"106 400 LINE",
"301 400 LINE",
"351 173 LINE",
"372 144 OFFCURVE",
"436 120 OFFCURVE",
"529 120 CURVE SMOOTH",
"658 120 OFFCURVE",
"719 177 OFFCURVE",
"719 277 CURVE SMOOTH",
"719 349 OFFCURVE",
"672 402 OFFCURVE",
"592 450 CURVE SMOOTH",
"551 474 OFFCURVE",
"495 503 OFFCURVE",
"423 537 CURVE SMOOTH",
"203 640 OFFCURVE",
"93 788 OFFCURVE",
"93 979 CURVE SMOOTH",
"93 1114 OFFCURVE",
"158 1233 OFFCURVE",
"306 1305 CURVE SMOOTH",
"380 1340 OFFCURVE",
"474 1358 OFFCURVE",
"588 1358 CURVE SMOOTH",
"724 1358 OFFCURVE",
"812 1338 OFFCURVE",
"921 1309 CURVE SMOOTH",
"955 1299 OFFCURVE",
"978 1294 OFFCURVE",
"990 1294 CURVE",
"979 964 LINE",
"788 964 LINE",
"744 1184 LINE",
"732 1204 OFFCURVE",
"677 1223 OFFCURVE",
"609 1223 CURVE SMOOTH",
"490 1223 OFFCURVE",
"438 1157 OFFCURVE",
"438 1074 CURVE SMOOTH",
"438 997 OFFCURVE",
"498 936 OFFCURVE",
"575 889 CURVE SMOOTH",
"614 866 OFFCURVE",
"667 837 OFFCURVE",
"736 803 CURVE",
"739 802 OFFCURVE",
"747 797 OFFCURVE",
"761 790 CURVE SMOOTH",
"876 734 OFFCURVE",
"968 676 OFFCURVE",
"1033 574 CURVE SMOOTH",
"1066 523 OFFCURVE",
"1082 463 OFFCURVE",
"1082 395 CURVE SMOOTH"
);
}
);
width = 1110;
}
);
note = Scedilla;
unicode = 015E;
},
{
glyphname = Scircumflex;
layers = (
{
layerId = "ED003BF4-EB5B-4214-9209-77B039A8E9AA";
name = Bold;
paths = (
{
closed = 1;
nodes = (
"106 400 LINE",
"301 400 LINE",
"351 173 LINE",
"372 144 OFFCURVE",
"436 120 OFFCURVE",
"529 120 CURVE SMOOTH",
"658 120 OFFCURVE",
"719 177 OFFCURVE",
"719 277 CURVE SMOOTH",
"719 349 OFFCURVE",
"672 402 OFFCURVE",
"592 450 CURVE SMOOTH",
"551 474 OFFCURVE",
"495 503 OFFCURVE",
"423 537 CURVE SMOOTH",
"203 640 OFFCURVE",
"93 788 OFFCURVE",
"93 979 CURVE SMOOTH",
"93 1114 OFFCURVE",
"158 1233 OFFCURVE",
"306 1305 CURVE SMOOTH",
"380 1340 OFFCURVE",
"474 1358 OFFCURVE",
"588 1358 CURVE SMOOTH",
"724 1358 OFFCURVE",
"812 1338 OFFCURVE",
"921 1309 CURVE SMOOTH",
"955 1299 OFFCURVE",
"978 1294 OFFCURVE",
"990 1294 CURVE",
"979 964 LINE",
"788 964 LINE",
"744 1184 LINE",
"732 1204 OFFCURVE",
"677 1223 OFFCURVE",
"609 1223 CURVE SMOOTH",
"490 1223 OFFCURVE",
"438 1157 OFFCURVE",
"438 1074 CURVE SMOOTH",
"438 997 OFFCURVE",
"498 936 OFFCURVE",
"575 889 CURVE SMOOTH",
"614 866 OFFCURVE",
"667 837 OFFCURVE",
"736 803 CURVE",
"739 802 OFFCURVE",
"747 797 OFFCURVE",
"761 790 CURVE SMOOTH",
"876 734 OFFCURVE",
"968 676 OFFCURVE",
"1033 574 CURVE SMOOTH",
"1066 523 OFFCURVE",
"1082 463 OFFCURVE",
"1082 395 CURVE SMOOTH",
"1082 259 OFFCURVE",
"1031 127 OFFCURVE",
"874 43 CURVE SMOOTH",
"795 1 OFFCURVE",
"688 -20 OFFCURVE",
"552 -20 CURVE SMOOTH",
"413 -20 OFFCURVE",
"303 3 OFFCURVE",
"176 39 CURVE SMOOTH",
"135 50 OFFCURVE",
"107 56 OFFCURVE",
"91 58 CURVE"
);
},
{
closed = 1;
nodes = (
"496 1764 LINE",
"680 1764 LINE",
"964 1500 LINE",
"853 1404 LINE",
"587 1567 LINE",
"321 1404 LINE",
"210 1500 LINE"
);
}
);
width = 1110;
}
);
note = Scircumflex;
unicode = 015C;
},
{
glyphname = Scommaaccent;
layers = (
{
layerId = "ED003BF4-EB5B-4214-9209-77B039A8E9AA";
name = Bold;
paths = (
{
closed = 1;
nodes = (
"567 -493 LINE",
"459 -468 LINE",
"454 -454 LINE",
"477 -446 OFFCURVE",
"492 -392 OFFCURVE",
"492 -348 CURVE SMOOTH",
"492 -313 OFFCURVE",
"478 -296 OFFCURVE",
"458 -284 CURVE",
"435 -267 OFFCURVE",
"415 -235 OFFCURVE",
"415 -194 CURVE SMOOTH",
"415 -137 OFFCURVE",
"452 -102 OFFCURVE",
"501 -86 CURVE SMOOTH",
"525 -79 OFFCURVE",
"549 -75 OFFCURVE",
"573 -75 CURVE SMOOTH",
"579 -75 LINE SMOOTH",
"670 -75 OFFCURVE",
"730 -129 OFFCURVE",
"730 -222 CURVE SMOOTH",
"729 -302 OFFCURVE",
"687 -386 OFFCURVE",
"636 -441 CURVE SMOOTH",
"611 -469 OFFCURVE",
"589 -486 OFFCURVE",
"571 -493 CURVE"
);
},
{
closed = 1;
nodes = (
"106 400 LINE",
"301 400 LINE",
"351 173 LINE",
"372 144 OFFCURVE",
"436 120 OFFCURVE",
"529 120 CURVE SMOOTH",
"658 120 OFFCURVE",
"719 177 OFFCURVE",
"719 277 CURVE SMOOTH",
"719 349 OFFCURVE",
"672 402 OFFCURVE",
"592 450 CURVE SMOOTH",
"551 474 OFFCURVE",
"495 503 OFFCURVE",
"423 537 CURVE SMOOTH",
"203 640 OFFCURVE",
"93 788 OFFCURVE",
"93 979 CURVE SMOOTH",
"93 1114 OFFCURVE",
"158 1233 OFFCURVE",
"306 1305 CURVE SMOOTH",
"380 1340 OFFCURVE",
"474 1358 OFFCURVE",
"588 1358 CURVE SMOOTH",
"724 1358 OFFCURVE",
"812 1338 OFFCURVE",
"921 1309 CURVE SMOOTH",
"955 1299 OFFCURVE",
"978 1294 OFFCURVE",
"990 1294 CURVE",
"979 964 LINE",
"788 964 LINE",
"744 1184 LINE",
"732 1204 OFFCURVE",
"677 1223 OFFCURVE",
"609 1223 CURVE SMOOTH",
"490 1223 OFFCURVE",
"438 1157 OFFCURVE",
"438 1074 CURVE SMOOTH",
"438 997 OFFCURVE",
"498 936 OFFCURVE",
"575 889 CURVE SMOOTH",
"614 866 OFFCURVE",
"667 837 OFFCURVE",
"736 803 CURVE",
"739 802 OFFCURVE",
"747 797 OFFCURVE",
"761 790 CURVE SMOOTH",
"876 734 OFFCURVE",
"968 676 OFFCURVE",
"1033 574 CURVE SMOOTH",
"1066 523 OFFCURVE",
"1082 463 OFFCURVE",
"1082 395 CURVE SMOOTH",
"1082 259 OFFCURVE",
"1031 127 OFFCURVE",
"874 43 CURVE SMOOTH",
"795 1 OFFCURVE",
"688 -20 OFFCURVE",
"552 -20 CURVE SMOOTH",
"413 -20 OFFCURVE",
"303 3 OFFCURVE",
"176 39 CURVE SMOOTH",
"135 50 OFFCURVE",
"107 56 OFFCURVE",
"91 58 CURVE"
);
}
);
width = 1110;
}
);
note = Scommaaccent;
unicode = 0218;
},
{
glyphname = uni1E9E;
layers = (
{
layerId = "ED003BF4-EB5B-4214-9209-77B039A8E9AA";
name = Bold;
paths = (
{
closed = 1;
nodes = (
"11 133 LINE",
"102 154 LINE",
"102 799 LINE SMOOTH",
"102 1036 OFFCURVE",
"211 1205 OFFCURVE",
"412 1292 CURVE SMOOTH",
"513 1335 OFFCURVE",
"633 1357 OFFCURVE",
"774 1357 CURVE SMOOTH",
"926 1357 OFFCURVE",
"1018 1335 OFFCURVE",
"1127 1302 CURVE SMOOTH",
"1165 1291 OFFCURVE",
"1191 1283 OFFCURVE",
"1206 1280 CURVE",
"1205 1134 LINE",
"906 839 LINE",
"1071 820 OFFCURVE",
"1218 759 OFFCURVE",
"1306 638 CURVE SMOOTH",
"1350 577 OFFCURVE",
"1372 503 OFFCURVE",
"1372 414 CURVE SMOOTH",
"1372 117 OFFCURVE",
"1214 -22 OFFCURVE",
"905 -22 CURVE SMOOTH",
"798 -22 OFFCURVE",
"734 -4 OFFCURVE",
"653 27 CURVE SMOOTH",
"614 43 OFFCURVE",
"594 49 OFFCURVE",
"571 50 CURVE",
"578 378 LINE",
"745 378 LINE",
"795 152 LINE",
"811 128 OFFCURVE",
"844 113 OFFCURVE",
"883 113 CURVE SMOOTH",
"918 113 OFFCURVE",
"946 133 OFFCURVE",
"969 173 CURVE SMOOTH",
"992 213 OFFCURVE",
"1003 278 OFFCURVE",
"1003 367 CURVE SMOOTH",
"1003 470 OFFCURVE",
"947 592 OFFCURVE",
"844 672 CURVE SMOOTH",
"792 712 OFFCURVE",
"732 735 OFFCURVE",
"663 740 CURVE",
"663 823 LINE",
"906 1180 LINE",
"862 1211 OFFCURVE",
"813 1225 OFFCURVE",
"742 1225 CURVE SMOOTH",
"550 1225 OFFCURVE",
"456 1081 OFFCURVE",
"456 822 CURVE SMOOTH",
"456 0 LINE",
"11 0 LINE"
);
}
);
width = 1364;
}
);
note = uni1E9E;
unicode = 1E9E;
},
{
glyphname = uni018F;
layers = (
{
layerId = "ED003BF4-EB5B-4214-9209-77B039A8E9AA";
name = Bold;
paths = (
{
closed = 1;
nodes = (
"54 581 OFFCURVE",
"63 698 OFFCURVE",
"74 745 CURVE",
"850 744 LINE",
"837 1036 OFFCURVE",
"748 1219 OFFCURVE",
"588 1219 CURVE SMOOTH",
"508 1219 OFFCURVE",
"465 1197 OFFCURVE",
"444 1166 CURVE SMOOTH",
"433 1150 OFFCURVE",
"422 1128 OFFCURVE",
"410 1101 CURVE",
"408 1097 OFFCURVE",
"405 1091 OFFCURVE",
"401 1082 CURVE",
"370 966 LINE",
"119 978 LINE",
"117 1284 LINE",
"150 1285 OFFCURVE",
"199 1295 OFFCURVE",
"248 1307 CURVE SMOOTH",
"376 1336 OFFCURVE",
"475 1353 OFFCURVE",
"616 1353 CURVE SMOOTH",
"856 1353 OFFCURVE",
"1046 1251 OFFCURVE",
"1150 1050 CURVE SMOOTH",
"1202 949 OFFCURVE",
"1228 827 OFFCURVE",
"1228 683 CURVE SMOOTH",
"1228 384 OFFCURVE",
"1113 170 OFFCURVE",
"920 62 CURVE SMOOTH",
"823 7 OFFCURVE",
"713 -20 OFFCURVE",
"589 -20 CURVE SMOOTH",
"398 -20 OFFCURVE",
"234 49 OFFCURVE",
"134 205 CURVE SMOOTH",
"84 283 OFFCURVE",
"57 382 OFFCURVE",
"54 501 CURVE"
);
},
{
closed = 1;
nodes = (
"420 582 LINE",
"419 560 OFFCURVE",
"419 529 OFFCURVE",
"419 489 CURVE SMOOTH",
"419 304 OFFCURVE",
"474 144 OFFCURVE",
"630 144 CURVE SMOOTH",
"783 144 OFFCURVE",
"854 285 OFFCURVE",
"854 581 CURVE"
);
}
);
width = 1264;
}
);
note = uni018F;
unicode = 018F;
},
{
glyphname = T;
layers = (
{
layerId = "ED003BF4-EB5B-4214-9209-77B039A8E9AA";
name = Bold;
paths = (
{
closed = 1;
nodes = (
"488 155 LINE",
"488 1188 LINE",
"305 1178 LINE",
"222 764 LINE",
"27 764 LINE",
"55 1339 LINE",
"1275 1339 LINE",
"1299 764 LINE",
"1116 764 LINE",
"1027 1178 LINE",
"854 1188 LINE",
"854 155 LINE",
"1103 134 LINE",
"1103 0 LINE",
"261 0 LINE",
"261 134 LINE"
);
}
);
width = 1334;
}
);
note = T;
unicode = 0054;
},
{
glyphname = Tbar;
layers = (
{
layerId = "ED003BF4-EB5B-4214-9209-77B039A8E9AA";
name = Bold;
paths = (
{
closed = 1;
nodes = (
"493 634 LINE",
"493 1188 LINE",
"311 1178 LINE",
"227 764 LINE",
"33 764 LINE",
"61 1339 LINE",
"1280 1339 LINE",
"1304 764 LINE",
"1121 764 LINE",
"1032 1178 LINE",
"859 1188 LINE",
"859 634 LINE",
"1036 634 LINE",
"1036 483 LINE",
"859 483 LINE",
"859 155 LINE",
"1108 134 LINE",
"1108 0 LINE",
"267 0 LINE",
"267 134 LINE",
"493 155 LINE",
"493 483 LINE",
"310 483 LINE",
"310 634 LINE"
);
}
);
width = 1345;
}
);
note = Tbar;
unicode = 0166;
},
{
glyphname = Tcaron;
layers = (
{
layerId = "ED003BF4-EB5B-4214-9209-77B039A8E9AA";
name = Bold;
paths = (
{
closed = 1;
nodes = (
"427 1772 LINE",
"676 1619 LINE",
"942 1772 LINE",
"1053 1676 LINE",
"769 1422 LINE",
"585 1422 LINE",
"316 1677 LINE"
);
},
{
closed = 1;
nodes = (
"488 155 LINE",
"488 1188 LINE",
"305 1178 LINE",
"222 764 LINE",
"27 764 LINE",
"55 1339 LINE",
"1275 1339 LINE",
"1299 764 LINE",
"1116 764 LINE",
"1027 1178 LINE",
"854 1188 LINE",
"854 155 LINE",
"1103 134 LINE",
"1103 0 LINE",
"261 0 LINE",
"261 134 LINE"
);
}
);
width = 1334;
}
);
note = Tcaron;
unicode = 0164;
},
{
glyphname = U;
layers = (
{
layerId = "ED003BF4-EB5B-4214-9209-77B039A8E9AA";
name = Bold;
paths = (
{
closed = 1;
nodes = (
"126 1170 LINE",
"21 1197 LINE",
"21 1339 LINE",
"654 1339 LINE",
"654 1197 LINE",
"504 1167 LINE",
"504 506 LINE SMOOTH",
"504 251 OFFCURVE",
"589 124 OFFCURVE",
"759 124 CURVE SMOOTH",
"931 124 OFFCURVE",
"1003 273 OFFCURVE",
"1003 506 CURVE SMOOTH",
"1003 1170 LINE",
"846 1197 LINE",
"846 1339 LINE",
"1338 1339 LINE",
"1338 1197 LINE",
"1227 1170 LINE",
"1227 526 LINE SMOOTH",
"1227 153 OFFCURVE",
"1026 -14 OFFCURVE",
"702 -14 CURVE SMOOTH",
"318 -14 OFFCURVE",
"126 155 OFFCURVE",
"126 536 CURVE SMOOTH"
);
}
);
width = 1346;
}
);
note = U;
unicode = 0055;
},
{
glyphname = Uacute;
layers = (
{
layerId = "ED003BF4-EB5B-4214-9209-77B039A8E9AA";
name = Bold;
paths = (
{
closed = 1;
nodes = (
"828 1772 LINE",
"828 1772 LINE",
"1041 1632 LINE",
"973 1559 OFFCURVE",
"873 1489 OFFCURVE",
"790 1445 CURVE SMOOTH",
"749 1422 OFFCURVE",
"717 1408 OFFCURVE",
"696 1402 CURVE",
"695 1402 LINE",
"568 1492 LINE"
);
},
{
closed = 1;
nodes = (
"126 1170 LINE",
"21 1197 LINE",
"21 1339 LINE",
"654 1339 LINE",
"654 1197 LINE",
"504 1167 LINE",
"504 506 LINE SMOOTH",
"504 251 OFFCURVE",
"589 124 OFFCURVE",
"759 124 CURVE SMOOTH",
"931 124 OFFCURVE",
"1003 273 OFFCURVE",
"1003 506 CURVE SMOOTH",
"1003 1170 LINE",
"846 1197 LINE",
"846 1339 LINE",
"1338 1339 LINE",
"1338 1197 LINE",
"1227 1170 LINE",
"1227 526 LINE SMOOTH",
"1227 153 OFFCURVE",
"1026 -14 OFFCURVE",
"702 -14 CURVE SMOOTH",
"318 -14 OFFCURVE",
"126 155 OFFCURVE",
"126 536 CURVE SMOOTH"
);
}
);
width = 1346;
}
);
note = Uacute;
unicode = 00DA;
},
{
glyphname = Ubreve;
layers = (
{
layerId = "ED003BF4-EB5B-4214-9209-77B039A8E9AA";
name = Bold;
paths = (
{
closed = 1;
nodes = (
"356 1746 OFFCURVE",
"357 1759 OFFCURVE",
"358 1768 CURVE",
"520 1768 LINE",
"522 1749 LINE",
"533 1685 OFFCURVE",
"586 1625 OFFCURVE",
"714 1625 CURVE SMOOTH",
"841 1625 OFFCURVE",
"888 1684 OFFCURVE",
"896 1749 CURVE",
"897 1754 OFFCURVE",
"897 1761 OFFCURVE",
"897 1768 CURVE",
"1065 1768 LINE",
"1066 1759 OFFCURVE",
"1067 1746 OFFCURVE",
"1067 1728 CURVE SMOOTH",
"1067 1619 OFFCURVE",
"1013 1521 OFFCURVE",
"906 1464 CURVE SMOOTH",
"853 1435 OFFCURVE",
"788 1421 OFFCURVE",
"712 1421 CURVE SMOOTH",
"556 1421 OFFCURVE",
"448 1483 OFFCURVE",
"396 1575 CURVE SMOOTH",
"369 1621 OFFCURVE",
"356 1672 OFFCURVE",
"356 1727 CURVE SMOOTH"
);
},
{
closed = 1;
nodes = (
"126 1170 LINE",
"21 1197 LINE",
"21 1339 LINE",
"654 1339 LINE",
"654 1197 LINE",
"504 1167 LINE",
"504 506 LINE SMOOTH",
"504 251 OFFCURVE",
"589 124 OFFCURVE",
"759 124 CURVE SMOOTH",
"931 124 OFFCURVE",
"1003 273 OFFCURVE",
"1003 506 CURVE SMOOTH",
"1003 1170 LINE",
"846 1197 LINE",
"846 1339 LINE",
"1338 1339 LINE",
"1338 1197 LINE",
"1227 1170 LINE",
"1227 526 LINE SMOOTH",
"1227 153 OFFCURVE",
"1026 -14 OFFCURVE",
"702 -14 CURVE SMOOTH",
"318 -14 OFFCURVE",
"126 155 OFFCURVE",
"126 536 CURVE SMOOTH"
);
}
);
width = 1346;
}
);
note = Ubreve;
unicode = 016C;
},
{
glyphname = Ucircumflex;
layers = (
{
layerId = "ED003BF4-EB5B-4214-9209-77B039A8E9AA";
name = Bold;
paths = (
{
closed = 1;
nodes = (
"126 1170 LINE",
"21 1197 LINE",
"21 1339 LINE",
"654 1339 LINE",
"654 1197 LINE",
"504 1167 LINE",
"504 506 LINE SMOOTH",
"504 251 OFFCURVE",
"589 124 OFFCURVE",
"759 124 CURVE SMOOTH",
"931 124 OFFCURVE",
"1003 273 OFFCURVE",
"1003 506 CURVE SMOOTH",
"1003 1170 LINE",
"846 1197 LINE",
"846 1339 LINE",
"1338 1339 LINE",
"1338 1197 LINE",
"1227 1170 LINE",
"1227 526 LINE SMOOTH",
"1227 153 OFFCURVE",
"1026 -14 OFFCURVE",
"702 -14 CURVE SMOOTH",
"318 -14 OFFCURVE",
"126 155 OFFCURVE",
"126 536 CURVE SMOOTH"
);
},
{
closed = 1;
nodes = (
"617 1764 LINE",
"801 1764 LINE",
"1085 1500 LINE",
"974 1404 LINE",
"708 1567 LINE",
"442 1404 LINE",
"331 1500 LINE"
);
}
);
width = 1346;
}
);
note = Ucircumflex;
unicode = 00DB;
},
{
glyphname = Udieresis;
layers = (
{
layerId = "ED003BF4-EB5B-4214-9209-77B039A8E9AA";
name = Bold;
paths = (
{
closed = 1;
nodes = (
"301 1689 OFFCURVE",
"361 1761 OFFCURVE",
"474 1761 CURVE SMOOTH",
"475 1761 LINE SMOOTH",
"582 1761 OFFCURVE",
"635 1698 OFFCURVE",
"635 1611 CURVE SMOOTH",
"635 1503 OFFCURVE",
"572 1431 OFFCURVE",
"444 1431 CURVE SMOOTH",
"443 1431 LINE SMOOTH",
"390 1431 OFFCURVE",
"344 1460 OFFCURVE",
"320 1507 CURVE",
"307 1530 OFFCURVE",
"301 1555 OFFCURVE",
"301 1582 CURVE SMOOTH"
);
},
{
closed = 1;
nodes = (
"785 1689 OFFCURVE",
"844 1761 OFFCURVE",
"957 1761 CURVE SMOOTH",
"958 1761 LINE SMOOTH",
"1065 1761 OFFCURVE",
"1119 1698 OFFCURVE",
"1119 1611 CURVE SMOOTH",
"1119 1503 OFFCURVE",
"1056 1431 OFFCURVE",
"928 1431 CURVE SMOOTH",
"927 1431 LINE SMOOTH",
"875 1431 OFFCURVE",
"828 1465 OFFCURVE",
"804 1512 CURVE",
"791 1535 OFFCURVE",
"785 1559 OFFCURVE",
"785 1582 CURVE SMOOTH"
);
},
{
closed = 1;
nodes = (
"126 1170 LINE",
"21 1197 LINE",
"21 1339 LINE",
"654 1339 LINE",
"654 1197 LINE",
"504 1167 LINE",
"504 506 LINE SMOOTH",
"504 251 OFFCURVE",
"589 124 OFFCURVE",
"759 124 CURVE SMOOTH",
"931 124 OFFCURVE",
"1003 273 OFFCURVE",
"1003 506 CURVE SMOOTH",
"1003 1170 LINE",
"846 1197 LINE",
"846 1339 LINE",
"1338 1339 LINE",
"1338 1197 LINE",
"1227 1170 LINE",
"1227 526 LINE SMOOTH",
"1227 153 OFFCURVE",
"1026 -14 OFFCURVE",
"702 -14 CURVE SMOOTH",
"318 -14 OFFCURVE",
"126 155 OFFCURVE",
"126 536 CURVE SMOOTH"
);
}
);
width = 1346;
}
);
note = Udieresis;
unicode = 00DC;
},
{
glyphname = Ugrave;
layers = (
{
layerId = "ED003BF4-EB5B-4214-9209-77B039A8E9AA";
name = Bold;
paths = (
{
closed = 1;
nodes = (
"601 1772 LINE",
"602 1772 LINE",
"862 1492 LINE",
"734 1402 LINE",
"733 1402 LINE",
"684 1415 OFFCURVE",
"584 1469 OFFCURVE",
"495 1535 CURVE SMOOTH",
"450 1568 OFFCURVE",
"415 1600 OFFCURVE",
"388 1632 CURVE"
);
},
{
closed = 1;
nodes = (
"126 1170 LINE",
"21 1197 LINE",
"21 1339 LINE",
"654 1339 LINE",
"654 1197 LINE",
"504 1167 LINE",
"504 506 LINE SMOOTH",
"504 251 OFFCURVE",
"589 124 OFFCURVE",
"759 124 CURVE SMOOTH",
"931 124 OFFCURVE",
"1003 273 OFFCURVE",
"1003 506 CURVE SMOOTH",
"1003 1170 LINE",
"846 1197 LINE",
"846 1339 LINE",
"1338 1339 LINE",
"1338 1197 LINE",
"1227 1170 LINE",
"1227 526 LINE SMOOTH",
"1227 153 OFFCURVE",
"1026 -14 OFFCURVE",
"702 -14 CURVE SMOOTH",
"318 -14 OFFCURVE",
"126 155 OFFCURVE",
"126 536 CURVE SMOOTH"
);
}
);
width = 1346;
}
);
note = Ugrave;
unicode = 00D9;
},
{
glyphname = Uhungarumlaut;
layers = (
{
layerId = "ED003BF4-EB5B-4214-9209-77B039A8E9AA";
name = Bold;
paths = (
{
closed = 1;
nodes = (
"126 1170 LINE",
"21 1197 LINE",
"21 1339 LINE",
"654 1339 LINE",
"654 1197 LINE",
"504 1167 LINE",
"504 506 LINE SMOOTH",
"504 251 OFFCURVE",
"589 124 OFFCURVE",
"759 124 CURVE SMOOTH",
"931 124 OFFCURVE",
"1003 273 OFFCURVE",
"1003 506 CURVE SMOOTH",
"1003 1170 LINE",
"846 1197 LINE",
"846 1339 LINE",
"1338 1339 LINE",
"1338 1197 LINE",
"1227 1170 LINE",
"1227 526 LINE SMOOTH",
"1227 153 OFFCURVE",
"1026 -14 OFFCURVE",
"702 -14 CURVE SMOOTH",
"318 -14 OFFCURVE",
"126 155 OFFCURVE",
"126 536 CURVE SMOOTH"
);
},
{
closed = 1;
nodes = (
"585 1772 LINE",
"765 1639 LINE",
"694 1550 OFFCURVE",
"553 1441 OFFCURVE",
"458 1396 CURVE",
"325 1505 LINE"
);
},
{
closed = 1;
nodes = (
"1101 1772 LINE",
"1276 1643 LINE",
"1237 1588 OFFCURVE",
"1158 1516 OFFCURVE",
"1076 1460 CURVE SMOOTH",
"1035 1431 OFFCURVE",
"999 1410 OFFCURVE",
"969 1396 CURVE",
"836 1505 LINE"
);
}
);
width = 1346;
}
);
note = Uhungarumlaut;
unicode = 0170;
},
{
glyphname = Umacron;
layers = (
{
layerId = "ED003BF4-EB5B-4214-9209-77B039A8E9AA";
name = Bold;
paths = (
{
closed = 1;
nodes = (
"1015 1688 LINE",
"1015 1494 LINE",
"403 1494 LINE",
"403 1688 LINE"
);
},
{
closed = 1;
nodes = (
"126 1170 LINE",
"21 1197 LINE",
"21 1339 LINE",
"654 1339 LINE",
"654 1197 LINE",
"504 1167 LINE",
"504 506 LINE SMOOTH",
"504 251 OFFCURVE",
"589 124 OFFCURVE",
"759 124 CURVE SMOOTH",
"931 124 OFFCURVE",
"1003 273 OFFCURVE",
"1003 506 CURVE SMOOTH",
"1003 1170 LINE",
"846 1197 LINE",
"846 1339 LINE",
"1338 1339 LINE",
"1338 1197 LINE",
"1227 1170 LINE",
"1227 526 LINE SMOOTH",
"1227 153 OFFCURVE",
"1026 -14 OFFCURVE",
"702 -14 CURVE SMOOTH",
"318 -14 OFFCURVE",
"126 155 OFFCURVE",
"126 536 CURVE SMOOTH"
);
}
);
width = 1346;
}
);
note = Umacron;
unicode = 016A;
},
{
glyphname = Uogonek;
layers = (
{
layerId = "ED003BF4-EB5B-4214-9209-77B039A8E9AA";
name = Bold;
paths = (
{
closed = 1;
nodes = (
"126 1170 LINE",
"21 1197 LINE",
"21 1339 LINE",
"654 1339 LINE",
"654 1197 LINE",
"504 1167 LINE",
"504 506 LINE SMOOTH",
"504 251 OFFCURVE",
"589 124 OFFCURVE",
"759 124 CURVE SMOOTH",
"931 124 OFFCURVE",
"1003 273 OFFCURVE",
"1003 506 CURVE SMOOTH",
"1003 1170 LINE",
"846 1197 LINE",
"846 1339 LINE",
"1338 1339 LINE",
"1338 1197 LINE",
"1227 1170 LINE",
"1227 526 LINE SMOOTH",
"1227 266 OFFCURVE",
"1129 105 OFFCURVE",
"957 32 CURVE",
"866 -43 OFFCURVE",
"816 -105 OFFCURVE",
"816 -168 CURVE SMOOTH",
"816 -203 OFFCURVE",
"832 -235 OFFCURVE",
"864 -255 CURVE SMOOTH",
"880 -265 OFFCURVE",
"899 -270 OFFCURVE",
"920 -270 CURVE SMOOTH",
"963 -270 OFFCURVE",
"977 -267 OFFCURVE",
"1021 -250 CURVE",
"1021 -393 LINE",
"972 -430 OFFCURVE",
"869 -453 OFFCURVE",
"789 -453 CURVE SMOOTH",
"649 -453 OFFCURVE",
"546 -391 OFFCURVE",
"546 -268 CURVE SMOOTH",
"546 -200 OFFCURVE",
"595 -130 OFFCURVE",
"663 -77 CURVE SMOOTH",
"697 -50 OFFCURVE",
"732 -28 OFFCURVE",
"767 -11 CURVE",
"746 -13 OFFCURVE",
"725 -14 OFFCURVE",
"702 -14 CURVE SMOOTH",
"318 -14 OFFCURVE",
"126 155 OFFCURVE",
"126 536 CURVE SMOOTH"
);
}
);
width = 1346;
}
);
note = Uogonek;
unicode = 0172;
},
{
glyphname = Uring;
layers = (
{
layerId = "ED003BF4-EB5B-4214-9209-77B039A8E9AA";
name = Bold;
paths = (
{
closed = 1;
nodes = (
"126 1170 LINE",
"21 1197 LINE",
"21 1339 LINE",
"654 1339 LINE",
"654 1197 LINE",
"504 1167 LINE",
"504 506 LINE SMOOTH",
"504 251 OFFCURVE",
"589 124 OFFCURVE",
"759 124 CURVE SMOOTH",
"931 124 OFFCURVE",
"1003 273 OFFCURVE",
"1003 506 CURVE SMOOTH",
"1003 1170 LINE",
"846 1197 LINE",
"846 1339 LINE",
"1338 1339 LINE",
"1338 1197 LINE",
"1227 1170 LINE",
"1227 526 LINE SMOOTH",
"1227 153 OFFCURVE",
"1026 -14 OFFCURVE",
"702 -14 CURVE SMOOTH",
"318 -14 OFFCURVE",
"126 155 OFFCURVE",
"126 536 CURVE SMOOTH"
);
},
{
closed = 1;
nodes = (
"381 1716 OFFCURVE",
"440 1791 OFFCURVE",
"542 1831 CURVE SMOOTH",
"593 1850 OFFCURVE",
"652 1860 OFFCURVE",
"721 1860 CURVE SMOOTH",
"722 1860 LINE SMOOTH",
"947 1860 OFFCURVE",
"1040 1764 OFFCURVE",
"1040 1620 CURVE SMOOTH",
"1040 1523 OFFCURVE",
"985 1449 OFFCURVE",
"885 1410 CURVE SMOOTH",
"835 1390 OFFCURVE",
"776 1380 OFFCURVE",
"707 1380 CURVE SMOOTH",
"706 1380 LINE SMOOTH",
"470 1380 OFFCURVE",
"381 1474 OFFCURVE",
"381 1617 CURVE SMOOTH"
);
},
{
closed = 1;
nodes = (
"711 1494 LINE SMOOTH",
"810 1494 OFFCURVE",
"843 1535 OFFCURVE",
"843 1611 CURVE SMOOTH",
"843 1690 OFFCURVE",
"807 1744 OFFCURVE",
"712 1744 CURVE SMOOTH",
"711 1744 LINE SMOOTH",
"614 1744 OFFCURVE",
"578 1699 OFFCURVE",
"578 1622 CURVE SMOOTH",
"578 1551 OFFCURVE",
"619 1494 OFFCURVE",
"710 1494 CURVE SMOOTH"
);
}
);
width = 1346;
}
);
note = Uring;
unicode = 016E;
},
{
glyphname = Utilde;
layers = (
{
layerId = "ED003BF4-EB5B-4214-9209-77B039A8E9AA";
name = Bold;
paths = (
{
closed = 1;
nodes = (
"471 1566 OFFCURVE",
"434 1544 OFFCURVE",
"414 1525 CURVE SMOOTH",
"403 1515 OFFCURVE",
"389 1500 OFFCURVE",
"371 1481 CURVE",
"278 1578 LINE",
"334 1679 OFFCURVE",
"426 1767 OFFCURVE",
"566 1767 CURVE SMOOTH",
"643 1767 OFFCURVE",
"695 1740 OFFCURVE",
"768 1691 CURVE SMOOTH",
"827 1652 OFFCURVE",
"859 1634 OFFCURVE",
"902 1634 CURVE SMOOTH",
"966 1634 OFFCURVE",
"998 1664 OFFCURVE",
"1022 1692 CURVE SMOOTH",
"1034 1706 OFFCURVE",
"1042 1715 OFFCURVE",
"1045 1720 CURVE",
"1139 1624 LINE",
"1076 1511 OFFCURVE",
"992 1433 OFFCURVE",
"865 1433 CURVE SMOOTH",
"792 1433 OFFCURVE",
"742 1458 OFFCURVE",
"663 1507 CURVE SMOOTH",
"600 1546 OFFCURVE",
"562 1566 OFFCURVE",
"514 1566 CURVE SMOOTH"
);
},
{
closed = 1;
nodes = (
"126 1170 LINE",
"21 1197 LINE",
"21 1339 LINE",
"654 1339 LINE",
"654 1197 LINE",
"504 1167 LINE",
"504 506 LINE SMOOTH",
"504 251 OFFCURVE",
"589 124 OFFCURVE",
"759 124 CURVE SMOOTH",
"931 124 OFFCURVE",
"1003 273 OFFCURVE",
"1003 506 CURVE SMOOTH",
"1003 1170 LINE",
"846 1197 LINE",
"846 1339 LINE",
"1338 1339 LINE",
"1338 1197 LINE",
"1227 1170 LINE",
"1227 526 LINE SMOOTH",
"1227 153 OFFCURVE",
"1026 -14 OFFCURVE",
"702 -14 CURVE SMOOTH",
"318 -14 OFFCURVE",
"126 155 OFFCURVE",
"126 536 CURVE SMOOTH"
);
}
);
width = 1346;
}
);
note = Utilde;
unicode = 0168;
},
{
glyphname = V;
layers = (
{
layerId = "ED003BF4-EB5B-4214-9209-77B039A8E9AA";
name = Bold;
paths = (
{
closed = 1;
nodes = (
"-38 1197 LINE",
"-38 1339 LINE",
"606 1339 LINE",
"606 1197 LINE",
"465 1171 LINE",
"693 418 LINE",
"726 290 LINE",
"751 418 LINE",
"976 1170 LINE",
"836 1197 LINE",
"836 1339 LINE",
"1323 1339 LINE",
"1323 1197 LINE",
"1206 1170 LINE",
"807 -13 LINE",
"510 -13 LINE",
"67 1170 LINE"
);
}
);
width = 1279;
}
);
note = V;
unicode = 0056;
},
{
glyphname = W;
layers = (
{
layerId = "ED003BF4-EB5B-4214-9209-77B039A8E9AA";
name = Bold;
paths = (
{
closed = 1;
nodes = (
"-31 1197 LINE",
"-31 1339 LINE",
"588 1339 LINE",
"588 1197 LINE",
"446 1170 LINE",
"646 396 LINE",
"671 271 LINE",
"687 396 LINE",
"857 1016 LINE",
"805 1170 LINE",
"700 1197 LINE",
"700 1339 LINE",
"1348 1339 LINE",
"1348 1197 LINE",
"1178 1170 LINE",
"1380 396 LINE",
"1409 258 LINE",
"1430 396 LINE",
"1605 1170 LINE",
"1465 1197 LINE",
"1465 1339 LINE",
"1907 1339 LINE",
"1907 1197 LINE",
"1796 1170 LINE",
"1478 -9 LINE",
"1153 -9 LINE",
"942 744 LINE",
"746 -9 LINE",
"423 -9 LINE",
"66 1170 LINE"
);
}
);
width = 1877;
}
);
note = W;
unicode = 0057;
},
{
glyphname = Wacute;
layers = (
{
layerId = "ED003BF4-EB5B-4214-9209-77B039A8E9AA";
name = Bold;
paths = (
{
closed = 1;
nodes = (
"1088 1772 LINE",
"1088 1772 LINE",
"1301 1632 LINE",
"1233 1559 OFFCURVE",
"1133 1489 OFFCURVE",
"1050 1445 CURVE SMOOTH",
"1009 1422 OFFCURVE",
"977 1408 OFFCURVE",
"956 1402 CURVE",
"955 1402 LINE",
"828 1492 LINE"
);
},
{
closed = 1;
nodes = (
"-35 1197 LINE",
"-35 1339 LINE",
"584 1339 LINE",
"584 1197 LINE",
"442 1170 LINE",
"642 396 LINE",
"667 271 LINE",
"683 396 LINE",
"853 1016 LINE",
"801 1170 LINE",
"696 1197 LINE",
"696 1339 LINE",
"1344 1339 LINE",
"1344 1197 LINE",
"1174 1170 LINE",
"1376 396 LINE",
"1405 258 LINE",
"1426 396 LINE",
"1601 1170 LINE",
"1461 1197 LINE",
"1461 1339 LINE",
"1903 1339 LINE",
"1903 1197 LINE",
"1792 1170 LINE",
"1474 -9 LINE",
"1149 -9 LINE",
"938 744 LINE",
"742 -9 LINE",
"419 -9 LINE",
"62 1170 LINE"
);
}
);
width = 1872;
}
);
note = Wacute;
unicode = 1E82;
},
{
glyphname = Wcircumflex;
layers = (
{
layerId = "ED003BF4-EB5B-4214-9209-77B039A8E9AA";
name = Bold;
paths = (
{
closed = 1;
nodes = (
"-31 1197 LINE",
"-31 1339 LINE",
"588 1339 LINE",
"588 1197 LINE",
"446 1170 LINE",
"646 396 LINE",
"671 271 LINE",
"687 396 LINE",
"857 1016 LINE",
"805 1170 LINE",
"700 1197 LINE",
"700 1339 LINE",
"1348 1339 LINE",
"1348 1197 LINE",
"1178 1170 LINE",
"1380 396 LINE",
"1409 258 LINE",
"1430 396 LINE",
"1605 1170 LINE",
"1465 1197 LINE",
"1465 1339 LINE",
"1907 1339 LINE",
"1907 1197 LINE",
"1796 1170 LINE",
"1478 -9 LINE",
"1153 -9 LINE",
"942 744 LINE",
"746 -9 LINE",
"423 -9 LINE",
"66 1170 LINE"
);
},
{
closed = 1;
nodes = (
"880 1764 LINE",
"1064 1764 LINE",
"1348 1500 LINE",
"1237 1404 LINE",
"971 1567 LINE",
"705 1404 LINE",
"594 1500 LINE"
);
}
);
width = 1877;
}
);
note = Wcircumflex;
unicode = 0174;
},
{
glyphname = Wdieresis;
layers = (
{
layerId = "ED003BF4-EB5B-4214-9209-77B039A8E9AA";
name = Bold;
paths = (
{
closed = 1;
nodes = (
"560 1689 OFFCURVE",
"620 1761 OFFCURVE",
"733 1761 CURVE SMOOTH",
"734 1761 LINE SMOOTH",
"841 1761 OFFCURVE",
"894 1698 OFFCURVE",
"894 1611 CURVE SMOOTH",
"894 1503 OFFCURVE",
"831 1431 OFFCURVE",
"703 1431 CURVE SMOOTH",
"702 1431 LINE SMOOTH",
"649 1431 OFFCURVE",
"603 1460 OFFCURVE",
"579 1507 CURVE",
"566 1530 OFFCURVE",
"560 1555 OFFCURVE",
"560 1582 CURVE SMOOTH"
);
},
{
closed = 1;
nodes = (
"1044 1689 OFFCURVE",
"1103 1761 OFFCURVE",
"1216 1761 CURVE SMOOTH",
"1217 1761 LINE SMOOTH",
"1324 1761 OFFCURVE",
"1378 1698 OFFCURVE",
"1378 1611 CURVE SMOOTH",
"1378 1503 OFFCURVE",
"1315 1431 OFFCURVE",
"1187 1431 CURVE SMOOTH",
"1186 1431 LINE SMOOTH",
"1134 1431 OFFCURVE",
"1087 1465 OFFCURVE",
"1063 1512 CURVE",
"1050 1535 OFFCURVE",
"1044 1559 OFFCURVE",
"1044 1582 CURVE SMOOTH"
);
},
{
closed = 1;
nodes = (
"-35 1197 LINE",
"-35 1339 LINE",
"584 1339 LINE",
"584 1197 LINE",
"442 1170 LINE",
"642 396 LINE",
"667 271 LINE",
"683 396 LINE",
"853 1016 LINE",
"801 1170 LINE",
"696 1197 LINE",
"696 1339 LINE",
"1344 1339 LINE",
"1344 1197 LINE",
"1174 1170 LINE",
"1376 396 LINE",
"1405 258 LINE",
"1426 396 LINE",
"1601 1170 LINE",
"1461 1197 LINE",
"1461 1339 LINE",
"1903 1339 LINE",
"1903 1197 LINE",
"1792 1170 LINE",
"1474 -9 LINE",
"1149 -9 LINE",
"938 744 LINE",
"742 -9 LINE",
"419 -9 LINE",
"62 1170 LINE"
);
}
);
width = 1872;
}
);
note = Wdieresis;
unicode = 1E84;
},
{
glyphname = Wgrave;
layers = (
{
layerId = "ED003BF4-EB5B-4214-9209-77B039A8E9AA";
name = Bold;
paths = (
{
closed = 1;
nodes = (
"855 1772 LINE",
"856 1772 LINE",
"1116 1492 LINE",
"988 1402 LINE",
"987 1402 LINE",
"938 1415 OFFCURVE",
"838 1469 OFFCURVE",
"749 1535 CURVE SMOOTH",
"704 1568 OFFCURVE",
"669 1600 OFFCURVE",
"642 1632 CURVE"
);
},
{
closed = 1;
nodes = (
"-35 1197 LINE",
"-35 1339 LINE",
"584 1339 LINE",
"584 1197 LINE",
"442 1170 LINE",
"642 396 LINE",
"667 271 LINE",
"683 396 LINE",
"853 1016 LINE",
"801 1170 LINE",
"696 1197 LINE",
"696 1339 LINE",
"1344 1339 LINE",
"1344 1197 LINE",
"1174 1170 LINE",
"1376 396 LINE",
"1405 258 LINE",
"1426 396 LINE",
"1601 1170 LINE",
"1461 1197 LINE",
"1461 1339 LINE",
"1903 1339 LINE",
"1903 1197 LINE",
"1792 1170 LINE",
"1474 -9 LINE",
"1149 -9 LINE",
"938 744 LINE",
"742 -9 LINE",
"419 -9 LINE",
"62 1170 LINE"
);
}
);
width = 1872;
}
);
note = Wgrave;
unicode = 1E80;
},
{
glyphname = X;
layers = (
{
layerId = "ED003BF4-EB5B-4214-9209-77B039A8E9AA";
name = Bold;
paths = (
{
closed = 1;
nodes = (
"156 153 LINE",
"480 633 LINE",
"124 1170 LINE",
"12 1197 LINE",
"12 1339 LINE",
"673 1339 LINE",
"673 1197 LINE",
"548 1169 LINE",
"745 828 LINE",
"960 1170 LINE",
"813 1197 LINE",
"813 1339 LINE",
"1302 1339 LINE",
"1302 1197 LINE",
"1155 1170 LINE",
"827 726 LINE",
"1208 155 LINE",
"1318 134 LINE",
"1318 0 LINE",
"658 0 LINE",
"658 134 LINE",
"786 156 LINE",
"566 527 LINE",
"356 153 LINE",
"516 134 LINE",
"516 0 LINE",
"9 0 LINE",
"9 134 LINE"
);
}
);
width = 1312;
}
);
note = X;
unicode = 0058;
},
{
glyphname = Y;
layers = (
{
layerId = "ED003BF4-EB5B-4214-9209-77B039A8E9AA";
name = Bold;
paths = (
{
closed = 1;
nodes = (
"412 155 LINE",
"412 545 LINE",
"55 1171 LINE",
"-42 1197 LINE",
"-42 1339 LINE",
"577 1339 LINE",
"577 1197 LINE",
"470 1170 LINE",
"653 790 LINE",
"690 683 LINE",
"728 788 LINE",
"889 1170 LINE",
"756 1197 LINE",
"756 1339 LINE",
"1241 1339 LINE",
"1241 1197 LINE",
"1134 1175 LINE",
"803 546 LINE",
"803 154 LINE",
"990 134 LINE",
"990 0 LINE",
"233 0 LINE",
"233 134 LINE"
);
}
);
width = 1191;
}
);
note = Y;
unicode = 0059;
},
{
glyphname = Yacute;
layers = (
{
layerId = "ED003BF4-EB5B-4214-9209-77B039A8E9AA";
name = Bold;
paths = (
{
closed = 1;
nodes = (
"412 155 LINE",
"412 545 LINE",
"55 1171 LINE",
"-42 1197 LINE",
"-42 1339 LINE",
"577 1339 LINE",
"577 1197 LINE",
"470 1170 LINE",
"653 790 LINE",
"690 683 LINE",
"728 788 LINE",
"889 1170 LINE",
"756 1197 LINE",
"756 1339 LINE",
"1241 1339 LINE",
"1241 1197 LINE",
"1134 1175 LINE",
"803 546 LINE",
"803 154 LINE",
"990 134 LINE",
"990 0 LINE",
"233 0 LINE",
"233 134 LINE"
);
},
{
closed = 1;
nodes = (
"740 1772 LINE",
"740 1772 LINE",
"953 1632 LINE",
"885 1559 OFFCURVE",
"785 1489 OFFCURVE",
"702 1445 CURVE SMOOTH",
"661 1422 OFFCURVE",
"629 1408 OFFCURVE",
"608 1402 CURVE",
"607 1402 LINE",
"480 1492 LINE"
);
}
);
width = 1191;
}
);
note = Yacute;
unicode = 00DD;
},
{
glyphname = Ycircumflex;
layers = (
{
layerId = "ED003BF4-EB5B-4214-9209-77B039A8E9AA";
name = Bold;
paths = (
{
closed = 1;
nodes = (
"412 155 LINE",
"412 545 LINE",
"55 1171 LINE",
"-42 1197 LINE",
"-42 1339 LINE",
"577 1339 LINE",
"577 1197 LINE",
"470 1170 LINE",
"653 790 LINE",
"690 683 LINE",
"728 788 LINE",
"889 1170 LINE",
"756 1197 LINE",
"756 1339 LINE",
"1241 1339 LINE",
"1241 1197 LINE",
"1134 1175 LINE",
"803 546 LINE",
"803 154 LINE",
"990 134 LINE",
"990 0 LINE",
"233 0 LINE",
"233 134 LINE"
);
},
{
closed = 1;
nodes = (
"527 1764 LINE",
"711 1764 LINE",
"995 1500 LINE",
"884 1404 LINE",
"618 1567 LINE",
"352 1404 LINE",
"241 1500 LINE"
);
}
);
width = 1191;
}
);
note = Ycircumflex;
unicode = 0176;
},
{
glyphname = Ydieresis;
layers = (
{
layerId = "ED003BF4-EB5B-4214-9209-77B039A8E9AA";
name = Bold;
paths = (
{
closed = 1;
nodes = (
"412 155 LINE",
"412 545 LINE",
"55 1171 LINE",
"-42 1197 LINE",
"-42 1339 LINE",
"577 1339 LINE",
"577 1197 LINE",
"470 1170 LINE",
"653 790 LINE",
"690 683 LINE",
"728 788 LINE",
"889 1170 LINE",
"756 1197 LINE",
"756 1339 LINE",
"1241 1339 LINE",
"1241 1197 LINE",
"1134 1175 LINE",
"803 546 LINE",
"803 154 LINE",
"990 134 LINE",
"990 0 LINE",
"233 0 LINE",
"233 134 LINE"
);
},
{
closed = 1;
nodes = (
"212 1689 OFFCURVE",
"272 1761 OFFCURVE",
"385 1761 CURVE SMOOTH",
"386 1761 LINE SMOOTH",
"493 1761 OFFCURVE",
"546 1698 OFFCURVE",
"546 1611 CURVE SMOOTH",
"546 1503 OFFCURVE",
"483 1431 OFFCURVE",
"355 1431 CURVE SMOOTH",
"354 1431 LINE SMOOTH",
"301 1431 OFFCURVE",
"255 1460 OFFCURVE",
"231 1507 CURVE",
"218 1530 OFFCURVE",
"212 1555 OFFCURVE",
"212 1582 CURVE SMOOTH"
);
},
{
closed = 1;
nodes = (
"696 1689 OFFCURVE",
"755 1761 OFFCURVE",
"868 1761 CURVE SMOOTH",
"869 1761 LINE SMOOTH",
"976 1761 OFFCURVE",
"1030 1698 OFFCURVE",
"1030 1611 CURVE SMOOTH",
"1030 1503 OFFCURVE",
"967 1431 OFFCURVE",
"839 1431 CURVE SMOOTH",
"838 1431 LINE SMOOTH",
"786 1431 OFFCURVE",
"739 1465 OFFCURVE",
"715 1512 CURVE",
"702 1535 OFFCURVE",
"696 1559 OFFCURVE",
"696 1582 CURVE SMOOTH"
);
}
);
width = 1191;
}
);
note = Ydieresis;
unicode = 0178;
},
{
glyphname = Ygrave;
layers = (
{
layerId = "ED003BF4-EB5B-4214-9209-77B039A8E9AA";
name = Bold;
paths = (
{
closed = 1;
nodes = (
"412 155 LINE",
"412 545 LINE",
"55 1171 LINE",
"-42 1197 LINE",
"-42 1339 LINE",
"577 1339 LINE",
"577 1197 LINE",
"470 1170 LINE",
"653 790 LINE",
"690 683 LINE",
"728 788 LINE",
"889 1170 LINE",
"756 1197 LINE",
"756 1339 LINE",
"1241 1339 LINE",
"1241 1197 LINE",
"1134 1175 LINE",
"803 546 LINE",
"803 154 LINE",
"990 134 LINE",
"990 0 LINE",
"233 0 LINE",
"233 134 LINE"
);
},
{
closed = 1;
nodes = (
"506 1772 LINE",
"507 1772 LINE",
"767 1492 LINE",
"639 1402 LINE",
"638 1402 LINE",
"589 1415 OFFCURVE",
"489 1469 OFFCURVE",
"400 1535 CURVE SMOOTH",
"355 1568 OFFCURVE",
"320 1600 OFFCURVE",
"293 1632 CURVE"
);
}
);
width = 1191;
}
);
note = Ygrave;
unicode = 1EF2;
},
{
glyphname = Z;
layers = (
{
layerId = "ED003BF4-EB5B-4214-9209-77B039A8E9AA";
name = Bold;
paths = (
{
closed = 1;
nodes = (
"631 1097 LINE",
"741 1216 LINE",
"363 1188 LINE",
"258 935 LINE",
"77 962 LINE",
"125 1343 LINE",
"1094 1343 LINE",
"1141 1221 LINE",
"536 244 LINE",
"404 133 LINE",
"863 172 LINE",
"972 449 LINE",
"1153 413 LINE",
"1113 0 LINE",
"77 0 LINE",
"9 117 LINE"
);
}
);
width = 1182;
}
);
note = Z;
unicode = 005A;
},
{
glyphname = Zacute;
layers = (
{
layerId = "ED003BF4-EB5B-4214-9209-77B039A8E9AA";
name = Bold;
paths = (
{
closed = 1;
nodes = (
"631 1097 LINE",
"741 1216 LINE",
"363 1188 LINE",
"258 935 LINE",
"77 962 LINE",
"125 1343 LINE",
"1094 1343 LINE",
"1141 1221 LINE",
"536 244 LINE",
"404 133 LINE",
"863 172 LINE",
"972 449 LINE",
"1153 413 LINE",
"1113 0 LINE",
"77 0 LINE",
"9 117 LINE"
);
},
{
closed = 1;
nodes = (
"752 1772 LINE",
"752 1772 LINE",
"965 1632 LINE",
"897 1559 OFFCURVE",
"797 1489 OFFCURVE",
"714 1445 CURVE SMOOTH",
"673 1422 OFFCURVE",
"641 1408 OFFCURVE",
"620 1402 CURVE",
"619 1402 LINE",
"492 1492 LINE"
);
}
);
width = 1182;
}
);
note = Zacute;
unicode = 0179;
},
{
glyphname = Zcaron;
layers = (
{
layerId = "ED003BF4-EB5B-4214-9209-77B039A8E9AA";
name = Bold;
paths = (
{
closed = 1;
nodes = (
"382 1772 LINE",
"631 1619 LINE",
"897 1772 LINE",
"1008 1676 LINE",
"724 1422 LINE",
"540 1422 LINE",
"271 1677 LINE"
);
},
{
closed = 1;
nodes = (
"631 1097 LINE",
"741 1216 LINE",
"363 1188 LINE",
"258 935 LINE",
"77 962 LINE",
"125 1343 LINE",
"1094 1343 LINE",
"1141 1221 LINE",
"536 244 LINE",
"404 133 LINE",
"863 172 LINE",
"972 449 LINE",
"1153 413 LINE",
"1113 0 LINE",
"77 0 LINE",
"9 117 LINE"
);
}
);
width = 1182;
}
);
note = Zcaron;
unicode = 017D;
},
{
glyphname = Zdotaccent;
layers = (
{
layerId = "ED003BF4-EB5B-4214-9209-77B039A8E9AA";
name = Bold;
paths = (
{
closed = 1;
nodes = (
"450 1697 OFFCURVE",
"517 1761 OFFCURVE",
"636 1761 CURVE",
"636 1761 LINE",
"749 1761 OFFCURVE",
"817 1702 OFFCURVE",
"817 1614 CURVE SMOOTH",
"817 1505 OFFCURVE",
"751 1441 OFFCURVE",
"619 1441 CURVE SMOOTH",
"618 1441 LINE SMOOTH",
"554 1441 OFFCURVE",
"500 1469 OFFCURVE",
"472 1514 CURVE SMOOTH",
"457 1537 OFFCURVE",
"450 1562 OFFCURVE",
"450 1590 CURVE SMOOTH"
);
},
{
closed = 1;
nodes = (
"631 1097 LINE",
"741 1216 LINE",
"363 1188 LINE",
"258 935 LINE",
"77 962 LINE",
"125 1343 LINE",
"1094 1343 LINE",
"1141 1221 LINE",
"536 244 LINE",
"404 133 LINE",
"863 172 LINE",
"972 449 LINE",
"1153 413 LINE",
"1113 0 LINE",
"77 0 LINE",
"9 117 LINE"
);
}
);
width = 1182;
}
);
note = Zdotaccent;
unicode = 017B;
},
{
glyphname = uni0162;
layers = (
{
layerId = "ED003BF4-EB5B-4214-9209-77B039A8E9AA";
name = Bold;
paths = (
{
closed = 1;
nodes = (
"854 1188 LINE",
"854 155 LINE",
"1103 134 LINE",
"1103 0 LINE",
"781 0 LINE",
"842 -61 OFFCURVE",
"908 -158 OFFCURVE",
"901 -261 CURVE SMOOTH",
"896 -369 OFFCURVE",
"849 -429 OFFCURVE",
"768 -455 CURVE SMOOTH",
"727 -468 OFFCURVE",
"676 -475 OFFCURVE",
"613 -475 CURVE SMOOTH",
"612 -475 LINE SMOOTH",
"573 -475 OFFCURVE",
"518 -462 OFFCURVE",
"486 -449 CURVE",
"487 -260 LINE",
"508 -268 OFFCURVE",
"543 -272 OFFCURVE",
"559 -272 CURVE SMOOTH",
"560 -272 LINE SMOOTH",
"619 -272 OFFCURVE",
"649 -265 OFFCURVE",
"666 -229 CURVE",
"675 -212 OFFCURVE",
"679 -185 OFFCURVE",
"679 -150 CURVE SMOOTH",
"679 -101 OFFCURVE",
"654 -37 OFFCURVE",
"627 0 CURVE",
"261 0 LINE",
"261 134 LINE",
"488 155 LINE",
"488 1188 LINE",
"305 1178 LINE",
"222 764 LINE",
"27 764 LINE",
"55 1339 LINE",
"1275 1339 LINE",
"1299 764 LINE",
"1116 764 LINE",
"1027 1178 LINE"
);
}
);
width = 1334;
}
);
note = uni0162;
unicode = 0162;
},
{
glyphname = uni01C4;
layers = (
{
layerId = "ED003BF4-EB5B-4214-9209-77B039A8E9AA";
name = Bold;
paths = (
{
closed = 1;
nodes = (
"1764 1772 LINE",
"2013 1619 LINE",
"2279 1772 LINE",
"2390 1676 LINE",
"2106 1422 LINE",
"1922 1422 LINE",
"1653 1677 LINE"
);
},
{
closed = 1;
nodes = (
"2011 1097 LINE",
"2121 1216 LINE",
"1743 1188 LINE",
"1638 935 LINE",
"1457 962 LINE",
"1505 1343 LINE",
"2474 1343 LINE",
"2521 1221 LINE",
"1916 244 LINE",
"1784 133 LINE",
"2243 172 LINE",
"2352 449 LINE",
"2533 413 LINE",
"2493 0 LINE",
"1457 0 LINE",
"1389 117 LINE"
);
},
{
closed = 1;
nodes = (
"184 155 LINE",
"184 1170 LINE",
"56 1197 LINE",
"56 1339 LINE",
"361 1339 LINE SMOOTH",
"402 1339 OFFCURVE",
"455 1341 OFFCURVE",
"520 1345 CURVE SMOOTH",
"544 1346 OFFCURVE",
"616 1349 OFFCURVE",
"675 1349 CURVE SMOOTH",
"1111 1349 OFFCURVE",
"1337 1130 OFFCURVE",
"1337 719 CURVE SMOOTH",
"1337 440 OFFCURVE",
"1227 209 OFFCURVE",
"1026 82 CURVE SMOOTH",
"925 18 OFFCURVE",
"806 -14 OFFCURVE",
"667 -14 CURVE SMOOTH",
"634 -14 OFFCURVE",
"571 -11 OFFCURVE",
"480 -6 CURVE SMOOTH",
"425 -2 OFFCURVE",
"387 0 OFFCURVE",
"364 0 CURVE SMOOTH",
"53 0 LINE",
"53 134 LINE"
);
},
{
closed = 1;
nodes = (
"544 150 LINE",
"568 138 OFFCURVE",
"605 132 OFFCURVE",
"654 132 CURVE SMOOTH",
"839 133 OFFCURVE",
"936 295 OFFCURVE",
"936 671 CURVE SMOOTH",
"936 1031 OFFCURVE",
"837 1211 OFFCURVE",
"640 1211 CURVE SMOOTH",
"610 1211 OFFCURVE",
"587 1209 OFFCURVE",
"571 1204 CURVE SMOOTH",
"555 1199 OFFCURVE",
"546 1197 OFFCURVE",
"544 1196 CURVE"
);
}
);
width = 2562;
}
);
note = uni01C4;
unicode = 01C4;
},
{
glyphname = uni01C5;
layers = (
{
layerId = "ED003BF4-EB5B-4214-9209-77B039A8E9AA";
name = Bold;
paths = (
{
closed = 1;
nodes = (
"1698 1587 LINE",
"1964 1370 LINE",
"2230 1588 LINE",
"2340 1492 LINE",
"2050 1137 LINE",
"1876 1137 LINE",
"1592 1492 LINE"
);
},
{
closed = 1;
nodes = (
"1972 867 LINE",
"1683 852 LINE",
"1627 671 LINE",
"1470 671 LINE",
"1470 1001 LINE",
"2305 1001 LINE",
"2356 884 LINE",
"1948 285 LINE",
"1816 134 LINE",
"2110 156 LINE",
"2210 371 LINE",
"2359 354 LINE",
"2333 0 LINE",
"1459 0 LINE",
"1402 124 LINE",
"1828 704 LINE"
);
},
{
closed = 1;
nodes = (
"184 155 LINE",
"184 1170 LINE",
"56 1197 LINE",
"56 1339 LINE",
"361 1339 LINE SMOOTH",
"402 1339 OFFCURVE",
"455 1341 OFFCURVE",
"520 1345 CURVE SMOOTH",
"544 1346 OFFCURVE",
"616 1349 OFFCURVE",
"675 1349 CURVE SMOOTH",
"1111 1349 OFFCURVE",
"1337 1130 OFFCURVE",
"1337 719 CURVE SMOOTH",
"1337 440 OFFCURVE",
"1227 209 OFFCURVE",
"1026 82 CURVE SMOOTH",
"925 18 OFFCURVE",
"806 -14 OFFCURVE",
"667 -14 CURVE SMOOTH",
"634 -14 OFFCURVE",
"571 -11 OFFCURVE",
"480 -6 CURVE SMOOTH",
"425 -2 OFFCURVE",
"387 0 OFFCURVE",
"364 0 CURVE SMOOTH",
"53 0 LINE",
"53 134 LINE"
);
},
{
closed = 1;
nodes = (
"544 150 LINE",
"568 138 OFFCURVE",
"605 132 OFFCURVE",
"654 132 CURVE SMOOTH",
"839 133 OFFCURVE",
"936 295 OFFCURVE",
"936 671 CURVE SMOOTH",
"936 1031 OFFCURVE",
"837 1211 OFFCURVE",
"640 1211 CURVE SMOOTH",
"610 1211 OFFCURVE",
"587 1209 OFFCURVE",
"571 1204 CURVE SMOOTH",
"555 1199 OFFCURVE",
"546 1197 OFFCURVE",
"544 1196 CURVE"
);
}
);
width = 2398;
}
);
note = uni01C5;
unicode = 01C5;
},
{
glyphname = uni01C7;
layers = (
{
layerId = "ED003BF4-EB5B-4214-9209-77B039A8E9AA";
name = Bold;
paths = (
{
closed = 1;
nodes = (
"184 154 LINE",
"184 1170 LINE",
"54 1197 LINE",
"54 1339 LINE",
"717 1339 LINE",
"717 1197 LINE",
"550 1170 LINE",
"550 158 LINE",
"826 177 LINE",
"950 560 LINE",
"1148 535 LINE",
"1101 0 LINE",
"53 0 LINE",
"53 134 LINE"
);
},
{
closed = 1;
nodes = (
"1117 -244 LINE",
"1204 -211 OFFCURVE",
"1289 -130 OFFCURVE",
"1332 -9 CURVE SMOOTH",
"1357 62 OFFCURVE",
"1369 167 OFFCURVE",
"1369 305 CURVE SMOOTH",
"1369 1170 LINE",
"1224 1197 LINE",
"1224 1339 LINE",
"1864 1339 LINE",
"1864 1197 LINE",
"1731 1171 LINE",
"1731 495 LINE SMOOTH",
"1731 246 OFFCURVE",
"1721 89 OFFCURVE",
"1702 22 CURVE SMOOTH",
"1641 -175 OFFCURVE",
"1474 -318 OFFCURVE",
"1195 -362 CURVE"
);
}
);
width = 1890;
}
);
note = uni01C7;
unicode = 01C7;
},
{
glyphname = uni01C8;
layers = (
{
layerId = "ED003BF4-EB5B-4214-9209-77B039A8E9AA";
name = Bold;
paths = (
{
closed = 1;
nodes = (
"184 154 LINE",
"184 1170 LINE",
"54 1197 LINE",
"54 1339 LINE",
"717 1339 LINE",
"717 1197 LINE",
"550 1170 LINE",
"550 158 LINE",
"826 177 LINE",
"950 560 LINE",
"1148 535 LINE",
"1101 0 LINE",
"53 0 LINE",
"53 134 LINE"
);
},
{
closed = 1;
nodes = (
"1219 821 LINE",
"1220 979 LINE",
"1612 1027 LINE",
"1617 1027 LINE",
"1677 986 LINE",
"1677 19 LINE SMOOTH",
"1677 -166 OFFCURVE",
"1571 -308 OFFCURVE",
"1440 -382 CURVE SMOOTH",
"1375 -419 OFFCURVE",
"1316 -438 OFFCURVE",
"1265 -438 CURVE SMOOTH",
"1226 -438 OFFCURVE",
"1166 -435 OFFCURVE",
"1149 -431 CURVE",
"1133 -304 LINE",
"1165 -304 OFFCURVE",
"1193 -297 OFFCURVE",
"1217 -282 CURVE",
"1300 -235 OFFCURVE",
"1334 -122 OFFCURVE",
"1334 86 CURVE SMOOTH",
"1335 785 LINE"
);
},
{
closed = 1;
nodes = (
"1258 1380 OFFCURVE",
"1290 1443 OFFCURVE",
"1350 1477 CURVE SMOOTH",
"1380 1494 OFFCURVE",
"1415 1502 OFFCURVE",
"1455 1502 CURVE SMOOTH",
"1456 1502 LINE SMOOTH",
"1535 1502 OFFCURVE",
"1591 1472 OFFCURVE",
"1620 1422 CURVE SMOOTH",
"1634 1397 OFFCURVE",
"1641 1369 OFFCURVE",
"1641 1338 CURVE SMOOTH",
"1641 1263 OFFCURVE",
"1611 1203 OFFCURVE",
"1549 1170 CURVE SMOOTH",
"1518 1153 OFFCURVE",
"1480 1145 OFFCURVE",
"1435 1145 CURVE SMOOTH",
"1434 1145 LINE SMOOTH",
"1366 1145 OFFCURVE",
"1311 1175 OFFCURVE",
"1281 1225 CURVE SMOOTH",
"1266 1250 OFFCURVE",
"1258 1277 OFFCURVE",
"1258 1308 CURVE SMOOTH"
);
}
);
width = 1789;
}
);
note = uni01C8;
unicode = 01C8;
},
{
glyphname = uni01CA;
layers = (
{
layerId = "ED003BF4-EB5B-4214-9209-77B039A8E9AA";
name = Bold;
paths = (
{
closed = 1;
nodes = (
"189 154 LINE",
"189 1171 LINE",
"48 1197 LINE",
"48 1339 LINE",
"558 1339 LINE",
"1007 627 LINE",
"1109 398 LINE",
"1109 1171 LINE",
"957 1197 LINE",
"957 1339 LINE",
"1435 1339 LINE",
"1435 1197 LINE",
"1302 1171 LINE",
"1302 0 LINE",
"978 0 LINE",
"491 786 LINE",
"383 1023 LINE",
"383 155 LINE",
"583 134 LINE",
"583 0 LINE",
"48 0 LINE",
"48 134 LINE"
);
},
{
closed = 1;
nodes = (
"1413 -244 LINE",
"1500 -211 OFFCURVE",
"1585 -130 OFFCURVE",
"1628 -9 CURVE SMOOTH",
"1653 62 OFFCURVE",
"1665 167 OFFCURVE",
"1665 305 CURVE SMOOTH",
"1665 1170 LINE",
"1520 1197 LINE",
"1520 1339 LINE",
"2160 1339 LINE",
"2160 1197 LINE",
"2027 1171 LINE",
"2027 495 LINE SMOOTH",
"2027 246 OFFCURVE",
"2017 89 OFFCURVE",
"1998 22 CURVE SMOOTH",
"1937 -175 OFFCURVE",
"1770 -318 OFFCURVE",
"1491 -362 CURVE"
);
}
);
width = 2186;
}
);
note = uni01CA;
unicode = 01CA;
},
{
glyphname = uni01CB;
layers = (
{
layerId = "ED003BF4-EB5B-4214-9209-77B039A8E9AA";
name = Bold;
paths = (
{
closed = 1;
nodes = (
"189 154 LINE",
"189 1171 LINE",
"48 1197 LINE",
"48 1339 LINE",
"558 1339 LINE",
"1007 627 LINE",
"1109 398 LINE",
"1109 1171 LINE",
"957 1197 LINE",
"957 1339 LINE",
"1435 1339 LINE",
"1435 1197 LINE",
"1302 1171 LINE",
"1302 0 LINE",
"978 0 LINE",
"491 786 LINE",
"383 1023 LINE",
"383 155 LINE",
"583 134 LINE",
"583 0 LINE",
"48 0 LINE",
"48 134 LINE"
);
},
{
closed = 1;
nodes = (
"1515 821 LINE",
"1516 979 LINE",
"1908 1027 LINE",
"1913 1027 LINE",
"1973 986 LINE",
"1973 19 LINE SMOOTH",
"1973 -166 OFFCURVE",
"1867 -308 OFFCURVE",
"1736 -382 CURVE SMOOTH",
"1671 -419 OFFCURVE",
"1612 -438 OFFCURVE",
"1561 -438 CURVE SMOOTH",
"1522 -438 OFFCURVE",
"1462 -435 OFFCURVE",
"1445 -431 CURVE",
"1429 -304 LINE",
"1461 -304 OFFCURVE",
"1489 -297 OFFCURVE",
"1513 -282 CURVE",
"1596 -235 OFFCURVE",
"1630 -122 OFFCURVE",
"1630 86 CURVE SMOOTH",
"1631 785 LINE"
);
},
{
closed = 1;
nodes = (
"1555 1380 OFFCURVE",
"1587 1443 OFFCURVE",
"1647 1477 CURVE SMOOTH",
"1677 1494 OFFCURVE",
"1712 1502 OFFCURVE",
"1752 1502 CURVE SMOOTH",
"1753 1502 LINE SMOOTH",
"1832 1502 OFFCURVE",
"1888 1472 OFFCURVE",
"1917 1422 CURVE SMOOTH",
"1931 1397 OFFCURVE",
"1938 1369 OFFCURVE",
"1938 1338 CURVE SMOOTH",
"1938 1263 OFFCURVE",
"1908 1203 OFFCURVE",
"1846 1170 CURVE SMOOTH",
"1815 1153 OFFCURVE",
"1777 1145 OFFCURVE",
"1732 1145 CURVE SMOOTH",
"1731 1145 LINE SMOOTH",
"1663 1145 OFFCURVE",
"1608 1175 OFFCURVE",
"1578 1225 CURVE SMOOTH",
"1563 1250 OFFCURVE",
"1555 1277 OFFCURVE",
"1555 1308 CURVE SMOOTH"
);
}
);
width = 2085;
}
);
note = uni01CB;
unicode = 01CB;
},
{
glyphname = uni01CD;
layers = (
{
layerId = "ED003BF4-EB5B-4214-9209-77B039A8E9AA";
name = Bold;
paths = (
{
closed = 1;
nodes = (
"62 155 LINE",
"446 1342 LINE",
"835 1342 LINE",
"1221 154 LINE",
"1315 134 LINE",
"1315 0 LINE",
"701 0 LINE",
"701 134 LINE",
"818 154 LINE",
"767 345 LINE",
"384 345 LINE",
"334 150 LINE",
"468 134 LINE",
"468 0 LINE",
"-37 0 LINE",
"-40 134 LINE"
);
},
{
closed = 1;
nodes = (
"728 497 LINE",
"591 1015 LINE",
"572 1126 LINE",
"551 1015 LINE",
"422 497 LINE"
);
},
{
closed = 1;
nodes = (
"546 1764 LINE",
"730 1764 LINE",
"1014 1500 LINE",
"903 1404 LINE",
"637 1567 LINE",
"371 1404 LINE",
"260 1500 LINE"
);
}
);
width = 1289;
}
);
note = uni01CD;
unicode = 01CD;
},
{
glyphname = uni01CF;
layers = (
{
layerId = "ED003BF4-EB5B-4214-9209-77B039A8E9AA";
name = Bold;
paths = (
{
closed = 1;
nodes = (
"200 155 LINE",
"200 1170 LINE",
"62 1197 LINE",
"62 1339 LINE",
"708 1339 LINE",
"708 1197 LINE",
"566 1170 LINE",
"566 154 LINE",
"708 132 LINE",
"708 0 LINE",
"65 0 LINE",
"65 134 LINE"
);
},
{
closed = 1;
nodes = (
"129 1772 LINE",
"378 1619 LINE",
"644 1772 LINE",
"755 1676 LINE",
"471 1422 LINE",
"287 1422 LINE",
"18 1677 LINE"
);
}
);
width = 765;
}
);
note = uni01CF;
unicode = 01CF;
},
{
glyphname = uni01D3;
layers = (
{
layerId = "ED003BF4-EB5B-4214-9209-77B039A8E9AA";
name = Bold;
paths = (
{
closed = 1;
nodes = (
"126 1170 LINE",
"21 1197 LINE",
"21 1339 LINE",
"654 1339 LINE",
"654 1197 LINE",
"504 1167 LINE",
"504 506 LINE SMOOTH",
"504 251 OFFCURVE",
"589 124 OFFCURVE",
"759 124 CURVE SMOOTH",
"931 124 OFFCURVE",
"1003 273 OFFCURVE",
"1003 506 CURVE SMOOTH",
"1003 1170 LINE",
"846 1197 LINE",
"846 1339 LINE",
"1338 1339 LINE",
"1338 1197 LINE",
"1227 1170 LINE",
"1227 526 LINE SMOOTH",
"1227 153 OFFCURVE",
"1026 -14 OFFCURVE",
"702 -14 CURVE SMOOTH",
"318 -14 OFFCURVE",
"126 155 OFFCURVE",
"126 536 CURVE SMOOTH"
);
},
{
closed = 1;
nodes = (
"460 1772 LINE",
"709 1619 LINE",
"975 1772 LINE",
"1086 1676 LINE",
"802 1422 LINE",
"618 1422 LINE",
"349 1677 LINE"
);
}
);
width = 1346;
}
);
note = uni01D3;
unicode = 01D3;
},
{
glyphname = uni01F1;
layers = (
{
layerId = "ED003BF4-EB5B-4214-9209-77B039A8E9AA";
name = Bold;
paths = (
{
closed = 1;
nodes = (
"184 155 LINE",
"184 1170 LINE",
"56 1197 LINE",
"56 1339 LINE",
"361 1339 LINE SMOOTH",
"402 1339 OFFCURVE",
"455 1341 OFFCURVE",
"520 1345 CURVE SMOOTH",
"544 1346 OFFCURVE",
"616 1349 OFFCURVE",
"675 1349 CURVE SMOOTH",
"1111 1349 OFFCURVE",
"1337 1130 OFFCURVE",
"1337 719 CURVE SMOOTH",
"1337 440 OFFCURVE",
"1227 209 OFFCURVE",
"1026 82 CURVE SMOOTH",
"925 18 OFFCURVE",
"806 -14 OFFCURVE",
"667 -14 CURVE SMOOTH",
"634 -14 OFFCURVE",
"571 -11 OFFCURVE",
"480 -6 CURVE SMOOTH",
"425 -2 OFFCURVE",
"387 0 OFFCURVE",
"364 0 CURVE SMOOTH",
"53 0 LINE",
"53 134 LINE"
);
},
{
closed = 1;
nodes = (
"544 150 LINE",
"568 138 OFFCURVE",
"605 132 OFFCURVE",
"654 132 CURVE SMOOTH",
"839 133 OFFCURVE",
"936 295 OFFCURVE",
"936 671 CURVE SMOOTH",
"936 1031 OFFCURVE",
"837 1211 OFFCURVE",
"640 1211 CURVE SMOOTH",
"610 1211 OFFCURVE",
"587 1209 OFFCURVE",
"571 1204 CURVE SMOOTH",
"555 1199 OFFCURVE",
"546 1197 OFFCURVE",
"544 1196 CURVE"
);
},
{
closed = 1;
nodes = (
"2011 1097 LINE",
"2121 1216 LINE",
"1743 1188 LINE",
"1638 935 LINE",
"1457 962 LINE",
"1505 1343 LINE",
"2474 1343 LINE",
"2521 1221 LINE",
"1916 244 LINE",
"1784 133 LINE",
"2243 172 LINE",
"2352 449 LINE",
"2533 413 LINE",
"2493 0 LINE",
"1457 0 LINE",
"1389 117 LINE"
);
}
);
width = 2562;
}
);
note = uni01F1;
unicode = 01F1;
},
{
glyphname = uni01F2;
layers = (
{
layerId = "ED003BF4-EB5B-4214-9209-77B039A8E9AA";
name = Bold;
paths = (
{
closed = 1;
nodes = (
"184 155 LINE",
"184 1170 LINE",
"56 1197 LINE",
"56 1339 LINE",
"361 1339 LINE SMOOTH",
"402 1339 OFFCURVE",
"455 1341 OFFCURVE",
"520 1345 CURVE SMOOTH",
"544 1346 OFFCURVE",
"616 1349 OFFCURVE",
"675 1349 CURVE SMOOTH",
"1111 1349 OFFCURVE",
"1337 1130 OFFCURVE",
"1337 719 CURVE SMOOTH",
"1337 440 OFFCURVE",
"1227 209 OFFCURVE",
"1026 82 CURVE SMOOTH",
"925 18 OFFCURVE",
"806 -14 OFFCURVE",
"667 -14 CURVE SMOOTH",
"634 -14 OFFCURVE",
"571 -11 OFFCURVE",
"480 -6 CURVE SMOOTH",
"425 -2 OFFCURVE",
"387 0 OFFCURVE",
"364 0 CURVE SMOOTH",
"53 0 LINE",
"53 134 LINE"
);
},
{
closed = 1;
nodes = (
"544 150 LINE",
"568 138 OFFCURVE",
"605 132 OFFCURVE",
"654 132 CURVE SMOOTH",
"839 133 OFFCURVE",
"936 295 OFFCURVE",
"936 671 CURVE SMOOTH",
"936 1031 OFFCURVE",
"837 1211 OFFCURVE",
"640 1211 CURVE SMOOTH",
"610 1211 OFFCURVE",
"587 1209 OFFCURVE",
"571 1204 CURVE SMOOTH",
"555 1199 OFFCURVE",
"546 1197 OFFCURVE",
"544 1196 CURVE"
);
},
{
closed = 1;
nodes = (
"1972 867 LINE",
"1683 852 LINE",
"1627 671 LINE",
"1470 671 LINE",
"1470 1001 LINE",
"2305 1001 LINE",
"2356 884 LINE",
"1948 285 LINE",
"1816 134 LINE",
"2110 156 LINE",
"2210 371 LINE",
"2359 354 LINE",
"2333 0 LINE",
"1459 0 LINE",
"1402 124 LINE",
"1828 704 LINE"
);
}
);
width = 2398;
}
);
note = uni01F2;
unicode = 01F2;
},
{
glyphname = uni01F4;
layers = (
{
layerId = "ED003BF4-EB5B-4214-9209-77B039A8E9AA";
name = Bold;
paths = (
{
closed = 1;
nodes = (
"42 961 OFFCURVE",
"155 1171 OFFCURVE",
"366 1278 CURVE SMOOTH",
"471 1331 OFFCURVE",
"600 1358 OFFCURVE",
"751 1358 CURVE SMOOTH",
"918 1358 OFFCURVE",
"1119 1326 OFFCURVE",
"1223 1302 CURVE",
"1199 935 LINE",
"940 935 LINE",
"884 1184 LINE",
"877 1194 OFFCURVE",
"862 1203 OFFCURVE",
"839 1212 CURVE",
"816 1220 OFFCURVE",
"785 1224 OFFCURVE",
"747 1224 CURVE SMOOTH",
"559 1224 OFFCURVE",
"467 1038 OFFCURVE",
"467 679 CURVE SMOOTH",
"467 498 OFFCURVE",
"487 359 OFFCURVE",
"526 263 CURVE SMOOTH",
"565 167 OFFCURVE",
"630 119 OFFCURVE",
"721 119 CURVE SMOOTH",
"792 119 OFFCURVE",
"850 140 OFFCURVE",
"877 171 CURVE",
"877 535 LINE",
"738 554 LINE",
"738 698 LINE",
"1317 698 LINE",
"1317 554 LINE",
"1235 540 LINE",
"1235 72 LINE",
"1204 71 OFFCURVE",
"1169 63 OFFCURVE",
"1090 43 CURVE SMOOTH",
"938 4 OFFCURVE",
"823 -20 OFFCURVE",
"686 -20 CURVE SMOOTH",
"413 -20 OFFCURVE",
"216 107 OFFCURVE",
"117 313 CURVE SMOOTH",
"67 416 OFFCURVE",
"42 532 OFFCURVE",
"42 662 CURVE SMOOTH"
);
},
{
closed = 1;
nodes = (
"884 1772 LINE",
"884 1772 LINE",
"1097 1632 LINE",
"1029 1559 OFFCURVE",
"929 1489 OFFCURVE",
"846 1445 CURVE SMOOTH",
"805 1422 OFFCURVE",
"773 1408 OFFCURVE",
"752 1402 CURVE",
"751 1402 LINE",
"624 1492 LINE"
);
}
);
width = 1351;
}
);
note = uni01F4;
unicode = 01F4;
},
{
glyphname = uni021A;
layers = (
{
layerId = "ED003BF4-EB5B-4214-9209-77B039A8E9AA";
name = Bold;
paths = (
{
closed = 1;
nodes = (
"665 -493 LINE",
"557 -468 LINE",
"552 -454 LINE",
"575 -446 OFFCURVE",
"590 -392 OFFCURVE",
"590 -348 CURVE SMOOTH",
"590 -313 OFFCURVE",
"576 -296 OFFCURVE",
"556 -284 CURVE",
"533 -267 OFFCURVE",
"513 -235 OFFCURVE",
"513 -194 CURVE SMOOTH",
"513 -137 OFFCURVE",
"550 -102 OFFCURVE",
"599 -86 CURVE SMOOTH",
"623 -79 OFFCURVE",
"647 -75 OFFCURVE",
"671 -75 CURVE SMOOTH",
"677 -75 LINE SMOOTH",
"768 -75 OFFCURVE",
"828 -129 OFFCURVE",
"828 -222 CURVE SMOOTH",
"827 -302 OFFCURVE",
"785 -386 OFFCURVE",
"734 -441 CURVE SMOOTH",
"709 -469 OFFCURVE",
"687 -486 OFFCURVE",
"669 -493 CURVE"
);
},
{
closed = 1;
nodes = (
"488 155 LINE",
"488 1188 LINE",
"305 1178 LINE",
"222 764 LINE",
"27 764 LINE",
"55 1339 LINE",
"1275 1339 LINE",
"1299 764 LINE",
"1116 764 LINE",
"1027 1178 LINE",
"854 1188 LINE",
"854 155 LINE",
"1103 134 LINE",
"1103 0 LINE",
"261 0 LINE",
"261 134 LINE"
);
}
);
width = 1334;
}
);
note = uni021A;
unicode = 021A;
},
{
glyphname = uni1E02;
layers = (
{
layerId = "ED003BF4-EB5B-4214-9209-77B039A8E9AA";
name = Bold;
paths = (
{
closed = 1;
nodes = (
"482 1697 OFFCURVE",
"549 1761 OFFCURVE",
"668 1761 CURVE",
"668 1761 LINE",
"781 1761 OFFCURVE",
"849 1702 OFFCURVE",
"849 1614 CURVE SMOOTH",
"849 1505 OFFCURVE",
"783 1441 OFFCURVE",
"651 1441 CURVE SMOOTH",
"650 1441 LINE SMOOTH",
"586 1441 OFFCURVE",
"532 1469 OFFCURVE",
"504 1514 CURVE SMOOTH",
"489 1537 OFFCURVE",
"482 1562 OFFCURVE",
"482 1590 CURVE SMOOTH"
);
},
{
closed = 1;
nodes = (
"184 155 LINE",
"184 1170 LINE",
"54 1197 LINE",
"54 1339 LINE",
"360 1339 LINE SMOOTH",
"403 1339 OFFCURVE",
"457 1341 OFFCURVE",
"524 1345 CURVE SMOOTH",
"574 1348 OFFCURVE",
"618 1349 OFFCURVE",
"656 1349 CURVE SMOOTH",
"936 1349 OFFCURVE",
"1082 1299 OFFCURVE",
"1141 1211 CURVE SMOOTH",
"1170 1167 OFFCURVE",
"1185 1111 OFFCURVE",
"1185 1043 CURVE SMOOTH",
"1185 919 OFFCURVE",
"1126 822 OFFCURVE",
"1033 767 CURVE SMOOTH",
"986 739 OFFCURVE",
"935 722 OFFCURVE",
"878 715 CURVE",
"1039 715 OFFCURVE",
"1162 668 OFFCURVE",
"1228 577 CURVE SMOOTH",
"1261 531 OFFCURVE",
"1277 474 OFFCURVE",
"1277 407 CURVE SMOOTH",
"1277 236 OFFCURVE",
"1211 113 OFFCURVE",
"1035 42 CURVE SMOOTH",
"946 7 OFFCURVE",
"827 -11 OFFCURVE",
"678 -11 CURVE SMOOTH",
"614 -11 OFFCURVE",
"554 -9 OFFCURVE",
"497 -4 CURVE",
"487 -4 OFFCURVE",
"469 -3 OFFCURVE",
"444 -2 CURVE SMOOTH",
"419 -1 OFFCURVE",
"393 0 OFFCURVE",
"367 0 CURVE SMOOTH",
"53 0 LINE",
"53 134 LINE"
);
},
{
closed = 1;
nodes = (
"545 766 LINE",
"566 763 OFFCURVE",
"605 762 OFFCURVE",
"663 762 CURVE SMOOTH",
"779 762 OFFCURVE",
"825 853 OFFCURVE",
"825 1014 CURVE SMOOTH",
"825 1155 OFFCURVE",
"768 1219 OFFCURVE",
"648 1219 CURVE",
"637 1218 OFFCURVE",
"619 1217 OFFCURVE",
"594 1216 CURVE SMOOTH",
"569 1215 OFFCURVE",
"552 1213 OFFCURVE",
"545 1211 CURVE"
);
},
{
closed = 1;
nodes = (
"544 142 LINE",
"564 133 OFFCURVE",
"617 126 OFFCURVE",
"665 126 CURVE SMOOTH",
"812 126 OFFCURVE",
"874 221 OFFCURVE",
"874 392 CURVE SMOOTH",
"874 553 OFFCURVE",
"810 612 OFFCURVE",
"673 612 CURVE SMOOTH",
"630 612 OFFCURVE",
"587 611 OFFCURVE",
"544 608 CURVE"
);
}
);
width = 1320;
}
);
note = uni1E02;
unicode = 1E02;
},
{
glyphname = uni1E0A;
layers = (
{
layerId = "ED003BF4-EB5B-4214-9209-77B039A8E9AA";
name = Bold;
paths = (
{
closed = 1;
nodes = (
"510 1697 OFFCURVE",
"577 1761 OFFCURVE",
"696 1761 CURVE",
"696 1761 LINE",
"809 1761 OFFCURVE",
"877 1702 OFFCURVE",
"877 1614 CURVE SMOOTH",
"877 1505 OFFCURVE",
"811 1441 OFFCURVE",
"679 1441 CURVE SMOOTH",
"678 1441 LINE SMOOTH",
"614 1441 OFFCURVE",
"560 1469 OFFCURVE",
"532 1514 CURVE SMOOTH",
"517 1537 OFFCURVE",
"510 1562 OFFCURVE",
"510 1590 CURVE SMOOTH"
);
},
{
closed = 1;
nodes = (
"184 155 LINE",
"184 1170 LINE",
"56 1197 LINE",
"56 1339 LINE",
"361 1339 LINE SMOOTH",
"402 1339 OFFCURVE",
"455 1341 OFFCURVE",
"520 1345 CURVE SMOOTH",
"544 1346 OFFCURVE",
"616 1349 OFFCURVE",
"675 1349 CURVE SMOOTH",
"1111 1349 OFFCURVE",
"1337 1130 OFFCURVE",
"1337 719 CURVE SMOOTH",
"1337 440 OFFCURVE",
"1227 209 OFFCURVE",
"1026 82 CURVE SMOOTH",
"925 18 OFFCURVE",
"806 -14 OFFCURVE",
"667 -14 CURVE SMOOTH",
"634 -14 OFFCURVE",
"571 -11 OFFCURVE",
"480 -6 CURVE SMOOTH",
"425 -2 OFFCURVE",
"387 0 OFFCURVE",
"364 0 CURVE SMOOTH",
"53 0 LINE",
"53 134 LINE"
);
},
{
closed = 1;
nodes = (
"544 150 LINE",
"568 138 OFFCURVE",
"605 132 OFFCURVE",
"654 132 CURVE SMOOTH",
"839 133 OFFCURVE",
"936 295 OFFCURVE",
"936 671 CURVE SMOOTH",
"936 1031 OFFCURVE",
"837 1211 OFFCURVE",
"640 1211 CURVE SMOOTH",
"610 1211 OFFCURVE",
"587 1209 OFFCURVE",
"571 1204 CURVE SMOOTH",
"555 1199 OFFCURVE",
"546 1197 OFFCURVE",
"544 1196 CURVE"
);
}
);
width = 1379;
}
);
note = uni1E0A;
unicode = 1E0A;
},
{
glyphname = uni1E1E;
layers = (
{
layerId = "ED003BF4-EB5B-4214-9209-77B039A8E9AA";
name = Bold;
paths = (
{
closed = 1;
nodes = (
"400 1697 OFFCURVE",
"467 1761 OFFCURVE",
"586 1761 CURVE",
"586 1761 LINE",
"699 1761 OFFCURVE",
"767 1702 OFFCURVE",
"767 1614 CURVE SMOOTH",
"767 1505 OFFCURVE",
"701 1441 OFFCURVE",
"569 1441 CURVE SMOOTH",
"568 1441 LINE SMOOTH",
"504 1441 OFFCURVE",
"450 1469 OFFCURVE",
"422 1514 CURVE SMOOTH",
"407 1537 OFFCURVE",
"400 1562 OFFCURVE",
"400 1590 CURVE SMOOTH"
);
},
{
closed = 1;
nodes = (
"184 155 LINE",
"184 1170 LINE",
"46 1197 LINE",
"46 1339 LINE",
"1082 1339 LINE",
"1104 987 LINE",
"919 987 LINE",
"838 1180 LINE",
"550 1208 LINE",
"550 722 LINE",
"740 726 LINE",
"779 893 LINE",
"921 893 LINE",
"921 384 LINE",
"781 384 LINE",
"740 555 LINE",
"550 562 LINE",
"550 155 LINE",
"822 134 LINE",
"822 0 LINE",
"52 0 LINE",
"52 134 LINE"
);
}
);
width = 1129;
}
);
note = uni1E1E;
unicode = 1E1E;
},
{
glyphname = uni1E20;
layers = (
{
layerId = "ED003BF4-EB5B-4214-9209-77B039A8E9AA";
name = Bold;
paths = (
{
closed = 1;
nodes = (
"42 961 OFFCURVE",
"155 1171 OFFCURVE",
"366 1278 CURVE SMOOTH",
"471 1331 OFFCURVE",
"600 1358 OFFCURVE",
"751 1358 CURVE SMOOTH",
"918 1358 OFFCURVE",
"1119 1326 OFFCURVE",
"1223 1302 CURVE",
"1199 935 LINE",
"940 935 LINE",
"884 1184 LINE",
"877 1194 OFFCURVE",
"862 1203 OFFCURVE",
"839 1212 CURVE",
"816 1220 OFFCURVE",
"785 1224 OFFCURVE",
"747 1224 CURVE SMOOTH",
"559 1224 OFFCURVE",
"467 1038 OFFCURVE",
"467 679 CURVE SMOOTH",
"467 498 OFFCURVE",
"487 359 OFFCURVE",
"526 263 CURVE SMOOTH",
"565 167 OFFCURVE",
"630 119 OFFCURVE",
"721 119 CURVE SMOOTH",
"792 119 OFFCURVE",
"850 140 OFFCURVE",
"877 171 CURVE",
"877 535 LINE",
"738 554 LINE",
"738 698 LINE",
"1317 698 LINE",
"1317 554 LINE",
"1235 540 LINE",
"1235 72 LINE",
"1204 71 OFFCURVE",
"1169 63 OFFCURVE",
"1090 43 CURVE SMOOTH",
"938 4 OFFCURVE",
"823 -20 OFFCURVE",
"686 -20 CURVE SMOOTH",
"413 -20 OFFCURVE",
"216 107 OFFCURVE",
"117 313 CURVE SMOOTH",
"67 416 OFFCURVE",
"42 532 OFFCURVE",
"42 662 CURVE SMOOTH"
);
},
{
closed = 1;
nodes = (
"1071 1688 LINE",
"1071 1494 LINE",
"459 1494 LINE",
"459 1688 LINE"
);
}
);
width = 1351;
}
);
note = uni1E20;
unicode = 1E20;
},
{
glyphname = uni1E40;
layers = (
{
layerId = "ED003BF4-EB5B-4214-9209-77B039A8E9AA";
name = Bold;
paths = (
{
closed = 1;
nodes = (
"772 1697 OFFCURVE",
"839 1761 OFFCURVE",
"958 1761 CURVE",
"958 1761 LINE",
"1071 1761 OFFCURVE",
"1139 1702 OFFCURVE",
"1139 1614 CURVE SMOOTH",
"1139 1505 OFFCURVE",
"1073 1441 OFFCURVE",
"941 1441 CURVE SMOOTH",
"940 1441 LINE SMOOTH",
"876 1441 OFFCURVE",
"822 1469 OFFCURVE",
"794 1514 CURVE SMOOTH",
"779 1537 OFFCURVE",
"772 1562 OFFCURVE",
"772 1590 CURVE SMOOTH"
);
},
{
closed = 1;
nodes = (
"145 154 LINE",
"263 1170 LINE",
"92 1197 LINE",
"92 1339 LINE",
"752 1339 LINE",
"938 616 LINE",
"969 432 LINE",
"996 616 LINE",
"1144 1339 LINE",
"1816 1339 LINE",
"1816 1197 LINE",
"1624 1170 LINE",
"1778 155 LINE",
"1919 134 LINE",
"1919 0 LINE",
"1253 0 LINE",
"1253 134 LINE",
"1400 155 LINE",
"1323 915 LINE",
"1288 1219 LINE",
"1238 950 LINE",
"1041 47 LINE",
"743 47 LINE",
"488 918 LINE",
"423 1221 LINE",
"406 916 LINE",
"356 155 LINE",
"542 134 LINE",
"542 0 LINE",
"-3 0 LINE",
"-3 134 LINE"
);
}
);
width = 1903;
}
);
note = uni1E40;
unicode = 1E40;
},
{
glyphname = uni1E44;
layers = (
{
layerId = "ED003BF4-EB5B-4214-9209-77B039A8E9AA";
name = Bold;
paths = (
{
closed = 1;
nodes = (
"189 154 LINE",
"189 1171 LINE",
"48 1197 LINE",
"48 1339 LINE",
"558 1339 LINE",
"1007 627 LINE",
"1109 398 LINE",
"1109 1171 LINE",
"957 1197 LINE",
"957 1339 LINE",
"1435 1339 LINE",
"1435 1197 LINE",
"1302 1171 LINE",
"1302 0 LINE",
"978 0 LINE",
"491 786 LINE",
"383 1023 LINE",
"383 155 LINE",
"583 134 LINE",
"583 0 LINE",
"48 0 LINE",
"48 134 LINE"
);
},
{
closed = 1;
nodes = (
"588 1697 OFFCURVE",
"655 1761 OFFCURVE",
"774 1761 CURVE",
"774 1761 LINE",
"887 1761 OFFCURVE",
"955 1702 OFFCURVE",
"955 1614 CURVE SMOOTH",
"955 1505 OFFCURVE",
"889 1441 OFFCURVE",
"757 1441 CURVE SMOOTH",
"756 1441 LINE SMOOTH",
"692 1441 OFFCURVE",
"638 1469 OFFCURVE",
"610 1514 CURVE SMOOTH",
"595 1537 OFFCURVE",
"588 1562 OFFCURVE",
"588 1590 CURVE SMOOTH"
);
}
);
width = 1456;
}
);
note = uni1E44;
unicode = 1E44;
},
{
glyphname = uni1E56;
layers = (
{
layerId = "ED003BF4-EB5B-4214-9209-77B039A8E9AA";
name = Bold;
paths = (
{
closed = 1;
nodes = (
"422 1697 OFFCURVE",
"489 1761 OFFCURVE",
"608 1761 CURVE",
"608 1761 LINE",
"721 1761 OFFCURVE",
"789 1702 OFFCURVE",
"789 1614 CURVE SMOOTH",
"789 1505 OFFCURVE",
"723 1441 OFFCURVE",
"591 1441 CURVE SMOOTH",
"590 1441 LINE SMOOTH",
"526 1441 OFFCURVE",
"472 1469 OFFCURVE",
"444 1514 CURVE SMOOTH",
"429 1537 OFFCURVE",
"422 1562 OFFCURVE",
"422 1590 CURVE SMOOTH"
);
},
{
closed = 1;
nodes = (
"184 154 LINE",
"184 1170 LINE",
"56 1197 LINE",
"56 1339 LINE",
"374 1339 LINE SMOOTH",
"390 1339 OFFCURVE",
"423 1340 OFFCURVE",
"473 1343 CURVE SMOOTH",
"542 1346 OFFCURVE",
"602 1348 OFFCURVE",
"655 1348 CURVE SMOOTH",
"932 1348 OFFCURVE",
"1086 1287 OFFCURVE",
"1151 1168 CURVE SMOOTH",
"1184 1109 OFFCURVE",
"1200 1033 OFFCURVE",
"1200 940 CURVE SMOOTH",
"1200 623 OFFCURVE",
"1015 444 OFFCURVE",
"651 444 CURVE SMOOTH",
"608 444 OFFCURVE",
"565 446 OFFCURVE",
"549 449 CURVE",
"549 154 LINE",
"782 134 LINE",
"782 0 LINE",
"53 0 LINE",
"53 134 LINE"
);
},
{
closed = 1;
nodes = (
"761 576 OFFCURVE",
"831 674 OFFCURVE",
"831 929 CURVE SMOOTH",
"831 1121 OFFCURVE",
"766 1217 OFFCURVE",
"637 1217 CURVE SMOOTH",
"616 1217 OFFCURVE",
"600 1216 OFFCURVE",
"589 1215 CURVE SMOOTH",
"578 1214 OFFCURVE",
"570 1212 OFFCURVE",
"564 1210 CURVE",
"557 1208 OFFCURVE",
"552 1207 OFFCURVE",
"548 1206 CURVE",
"548 586 LINE",
"569 579 OFFCURVE",
"600 576 OFFCURVE",
"641 576 CURVE SMOOTH"
);
}
);
width = 1222;
}
);
note = uni1E56;
unicode = 1E56;
},
{
glyphname = uni1E60;
layers = (
{
layerId = "ED003BF4-EB5B-4214-9209-77B039A8E9AA";
name = Bold;
paths = (
{
closed = 1;
nodes = (
"406 1697 OFFCURVE",
"473 1761 OFFCURVE",
"592 1761 CURVE",
"592 1761 LINE",
"705 1761 OFFCURVE",
"773 1702 OFFCURVE",
"773 1614 CURVE SMOOTH",
"773 1505 OFFCURVE",
"707 1441 OFFCURVE",
"575 1441 CURVE SMOOTH",
"574 1441 LINE SMOOTH",
"510 1441 OFFCURVE",
"456 1469 OFFCURVE",
"428 1514 CURVE SMOOTH",
"413 1537 OFFCURVE",
"406 1562 OFFCURVE",
"406 1590 CURVE SMOOTH"
);
},
{
closed = 1;
nodes = (
"106 400 LINE",
"301 400 LINE",
"351 173 LINE",
"372 144 OFFCURVE",
"436 120 OFFCURVE",
"529 120 CURVE SMOOTH",
"658 120 OFFCURVE",
"719 177 OFFCURVE",
"719 277 CURVE SMOOTH",
"719 349 OFFCURVE",
"672 402 OFFCURVE",
"592 450 CURVE SMOOTH",
"551 474 OFFCURVE",
"495 503 OFFCURVE",
"423 537 CURVE SMOOTH",
"203 640 OFFCURVE",
"93 788 OFFCURVE",
"93 979 CURVE SMOOTH",
"93 1114 OFFCURVE",
"158 1233 OFFCURVE",
"306 1305 CURVE SMOOTH",
"380 1340 OFFCURVE",
"474 1358 OFFCURVE",
"588 1358 CURVE SMOOTH",
"724 1358 OFFCURVE",
"812 1338 OFFCURVE",
"921 1309 CURVE SMOOTH",
"955 1299 OFFCURVE",
"978 1294 OFFCURVE",
"990 1294 CURVE",
"979 964 LINE",
"788 964 LINE",
"744 1184 LINE",
"732 1204 OFFCURVE",
"677 1223 OFFCURVE",
"609 1223 CURVE SMOOTH",
"490 1223 OFFCURVE",
"438 1157 OFFCURVE",
"438 1074 CURVE SMOOTH",
"438 997 OFFCURVE",
"498 936 OFFCURVE",
"575 889 CURVE SMOOTH",
"614 866 OFFCURVE",
"667 837 OFFCURVE",
"736 803 CURVE",
"739 802 OFFCURVE",
"747 797 OFFCURVE",
"761 790 CURVE SMOOTH",
"876 734 OFFCURVE",
"968 676 OFFCURVE",
"1033 574 CURVE SMOOTH",
"1066 523 OFFCURVE",
"1082 463 OFFCURVE",
"1082 395 CURVE SMOOTH",
"1082 259 OFFCURVE",
"1031 127 OFFCURVE",
"874 43 CURVE SMOOTH",
"795 1 OFFCURVE",
"688 -20 OFFCURVE",
"552 -20 CURVE SMOOTH",
"413 -20 OFFCURVE",
"303 3 OFFCURVE",
"176 39 CURVE SMOOTH",
"135 50 OFFCURVE",
"107 56 OFFCURVE",
"91 58 CURVE"
);
}
);
width = 1110;
}
);
note = uni1E60;
unicode = 1E60;
},
{
glyphname = uni1E6A;
layers = (
{
layerId = "ED003BF4-EB5B-4214-9209-77B039A8E9AA";
name = Bold;
paths = (
{
closed = 1;
nodes = (
"495 1697 OFFCURVE",
"562 1761 OFFCURVE",
"681 1761 CURVE",
"681 1761 LINE",
"794 1761 OFFCURVE",
"862 1702 OFFCURVE",
"862 1614 CURVE SMOOTH",
"862 1505 OFFCURVE",
"796 1441 OFFCURVE",
"664 1441 CURVE SMOOTH",
"663 1441 LINE SMOOTH",
"599 1441 OFFCURVE",
"545 1469 OFFCURVE",
"517 1514 CURVE SMOOTH",
"502 1537 OFFCURVE",
"495 1562 OFFCURVE",
"495 1590 CURVE SMOOTH"
);
},
{
closed = 1;
nodes = (
"488 155 LINE",
"488 1188 LINE",
"305 1178 LINE",
"222 764 LINE",
"27 764 LINE",
"55 1339 LINE",
"1275 1339 LINE",
"1299 764 LINE",
"1116 764 LINE",
"1027 1178 LINE",
"854 1188 LINE",
"854 155 LINE",
"1103 134 LINE",
"1103 0 LINE",
"261 0 LINE",
"261 134 LINE"
);
}
);
width = 1334;
}
);
note = uni1E6A;
unicode = 1E6A;
},
{
glyphname = uni1E8E;
layers = (
{
layerId = "ED003BF4-EB5B-4214-9209-77B039A8E9AA";
name = Bold;
paths = (
{
closed = 1;
nodes = (
"412 155 LINE",
"412 545 LINE",
"55 1171 LINE",
"-42 1197 LINE",
"-42 1339 LINE",
"577 1339 LINE",
"577 1197 LINE",
"470 1170 LINE",
"653 790 LINE",
"690 683 LINE",
"728 788 LINE",
"889 1170 LINE",
"756 1197 LINE",
"756 1339 LINE",
"1241 1339 LINE",
"1241 1197 LINE",
"1134 1175 LINE",
"803 546 LINE",
"803 154 LINE",
"990 134 LINE",
"990 0 LINE",
"233 0 LINE",
"233 134 LINE"
);
},
{
closed = 1;
nodes = (
"437 1697 OFFCURVE",
"504 1761 OFFCURVE",
"623 1761 CURVE",
"623 1761 LINE",
"736 1761 OFFCURVE",
"804 1702 OFFCURVE",
"804 1614 CURVE SMOOTH",
"804 1505 OFFCURVE",
"738 1441 OFFCURVE",
"606 1441 CURVE SMOOTH",
"605 1441 LINE SMOOTH",
"541 1441 OFFCURVE",
"487 1469 OFFCURVE",
"459 1514 CURVE SMOOTH",
"444 1537 OFFCURVE",
"437 1562 OFFCURVE",
"437 1590 CURVE SMOOTH"
);
}
);
width = 1191;
}
);
note = uni1E8E;
unicode = 1E8E;
},
{
glyphname = I.uc;
layers = (
{
layerId = "ED003BF4-EB5B-4214-9209-77B039A8E9AA";
name = Bold;
paths = (
{
closed = 1;
nodes = (
"200 155 LINE",
"200 1170 LINE",
"62 1197 LINE",
"62 1339 LINE",
"708 1339 LINE",
"708 1197 LINE",
"566 1170 LINE",
"566 154 LINE",
"708 132 LINE",
"708 0 LINE",
"65 0 LINE",
"65 134 LINE"
);
},
{
closed = 1;
nodes = (
"196 1697 OFFCURVE",
"263 1761 OFFCURVE",
"382 1761 CURVE",
"382 1761 LINE",
"495 1761 OFFCURVE",
"563 1702 OFFCURVE",
"563 1614 CURVE SMOOTH",
"563 1505 OFFCURVE",
"497 1441 OFFCURVE",
"365 1441 CURVE SMOOTH",
"364 1441 LINE SMOOTH",
"300 1441 OFFCURVE",
"246 1469 OFFCURVE",
"218 1514 CURVE SMOOTH",
"203 1537 OFFCURVE",
"196 1562 OFFCURVE",
"196 1590 CURVE SMOOTH"
);
}
);
width = 765;
}
);
note = I.uc;
},
{
glyphname = a;
layers = (
{
layerId = "ED003BF4-EB5B-4214-9209-77B039A8E9AA";
name = Bold;
paths = (
{
closed = 1;
nodes = (
"614 653 LINE SMOOTH",
"614 729 OFFCURVE",
"602 769 OFFCURVE",
"556 791 CURVE SMOOTH",
"533 802 OFFCURVE",
"498 807 OFFCURVE",
"451 807 CURVE SMOOTH",
"328 807 OFFCURVE",
"242 778 OFFCURVE",
"146 739 CURVE",
"145 739 LINE",
"76 887 LINE",
"120 922 OFFCURVE",
"211 970 OFFCURVE",
"339 1003 CURVE SMOOTH",
"403 1019 OFFCURVE",
"470 1027 OFFCURVE",
"541 1027 CURVE SMOOTH",
"744 1027 OFFCURVE",
"852 977 OFFCURVE",
"900 869 CURVE SMOOTH",
"924 815 OFFCURVE",
"936 742 OFFCURVE",
"936 649 CURVE SMOOTH",
"936 134 LINE",
"1024 134 LINE",
"1024 4 LINE",
"971 -7 OFFCURVE",
"835 -23 OFFCURVE",
"758 -23 CURVE SMOOTH",
"686 -23 OFFCURVE",
"653 -10 OFFCURVE",
"641 20 CURVE",
"634 35 OFFCURVE",
"631 56 OFFCURVE",
"631 84 CURVE SMOOTH",
"631 118 LINE",
"575 42 OFFCURVE",
"477 -20 OFFCURVE",
"342 -20 CURVE SMOOTH",
"230 -20 OFFCURVE",
"132 32 OFFCURVE",
"77 125 CURVE SMOOTH",
"49 172 OFFCURVE",
"35 227 OFFCURVE",
"35 290 CURVE SMOOTH",
"35 503 OFFCURVE",
"230 624 OFFCURVE",
"614 625 CURVE"
);
},
{
closed = 1;
nodes = (
"614 493 LINE",
"463 492 OFFCURVE",
"399 422 OFFCURVE",
"399 329 CURVE SMOOTH",
"399 232 OFFCURVE",
"441 166 OFFCURVE",
"512 166 CURVE SMOOTH",
"547 166 OFFCURVE",
"590 187 OFFCURVE",
"614 216 CURVE"
);
}
);
width = 1034;
}
);
note = a;
unicode = 0061;
},
{
glyphname = aacute;
layers = (
{
layerId = "ED003BF4-EB5B-4214-9209-77B039A8E9AA";
name = Bold;
paths = (
{
closed = 1;
nodes = (
"614 653 LINE SMOOTH",
"614 729 OFFCURVE",
"602 769 OFFCURVE",
"556 791 CURVE SMOOTH",
"533 802 OFFCURVE",
"498 807 OFFCURVE",
"451 807 CURVE SMOOTH",
"328 807 OFFCURVE",
"242 778 OFFCURVE",
"146 739 CURVE",
"145 739 LINE",
"76 887 LINE",
"120 922 OFFCURVE",
"211 970 OFFCURVE",
"339 1003 CURVE SMOOTH",
"403 1019 OFFCURVE",
"470 1027 OFFCURVE",
"541 1027 CURVE SMOOTH",
"744 1027 OFFCURVE",
"852 977 OFFCURVE",
"900 869 CURVE SMOOTH",
"924 815 OFFCURVE",
"936 742 OFFCURVE",
"936 649 CURVE SMOOTH",
"936 134 LINE",
"1024 134 LINE",
"1024 4 LINE",
"971 -7 OFFCURVE",
"835 -23 OFFCURVE",
"758 -23 CURVE SMOOTH",
"686 -23 OFFCURVE",
"653 -10 OFFCURVE",
"641 20 CURVE",
"634 35 OFFCURVE",
"631 56 OFFCURVE",
"631 84 CURVE SMOOTH",
"631 118 LINE",
"575 42 OFFCURVE",
"477 -20 OFFCURVE",
"342 -20 CURVE SMOOTH",
"230 -20 OFFCURVE",
"132 32 OFFCURVE",
"77 125 CURVE SMOOTH",
"49 172 OFFCURVE",
"35 227 OFFCURVE",
"35 290 CURVE SMOOTH",
"35 503 OFFCURVE",
"230 624 OFFCURVE",
"614 625 CURVE"
);
},
{
closed = 1;
nodes = (
"614 493 LINE",
"463 492 OFFCURVE",
"399 422 OFFCURVE",
"399 329 CURVE SMOOTH",
"399 232 OFFCURVE",
"441 166 OFFCURVE",
"512 166 CURVE SMOOTH",
"547 166 OFFCURVE",
"590 187 OFFCURVE",
"614 216 CURVE"
);
},
{
closed = 1;
nodes = (
"654 1632 LINE",
"655 1632 LINE",
"845 1457 LINE",
"801 1381 OFFCURVE",
"696 1283 OFFCURVE",
"589 1209 CURVE SMOOTH",
"535 1172 OFFCURVE",
"489 1146 OFFCURVE",
"452 1132 CURVE",
"450 1132 LINE",
"318 1235 LINE"
);
}
);
width = 1034;
}
);
note = aacute;
unicode = 00E1;
},
{
glyphname = abreve;
layers = (
{
layerId = "ED003BF4-EB5B-4214-9209-77B039A8E9AA";
name = Bold;
paths = (
{
closed = 1;
nodes = (
"614 653 LINE SMOOTH",
"614 729 OFFCURVE",
"602 769 OFFCURVE",
"556 791 CURVE SMOOTH",
"533 802 OFFCURVE",
"498 807 OFFCURVE",
"451 807 CURVE SMOOTH",
"328 807 OFFCURVE",
"242 778 OFFCURVE",
"146 739 CURVE",
"145 739 LINE",
"76 887 LINE",
"120 922 OFFCURVE",
"211 970 OFFCURVE",
"339 1003 CURVE SMOOTH",
"403 1019 OFFCURVE",
"470 1027 OFFCURVE",
"541 1027 CURVE SMOOTH",
"744 1027 OFFCURVE",
"852 977 OFFCURVE",
"900 869 CURVE SMOOTH",
"924 815 OFFCURVE",
"936 742 OFFCURVE",
"936 649 CURVE SMOOTH",
"936 134 LINE",
"1024 134 LINE",
"1024 4 LINE",
"971 -7 OFFCURVE",
"835 -23 OFFCURVE",
"758 -23 CURVE SMOOTH",
"686 -23 OFFCURVE",
"653 -10 OFFCURVE",
"641 20 CURVE",
"634 35 OFFCURVE",
"631 56 OFFCURVE",
"631 84 CURVE SMOOTH",
"631 118 LINE",
"575 42 OFFCURVE",
"477 -20 OFFCURVE",
"342 -20 CURVE SMOOTH",
"230 -20 OFFCURVE",
"132 32 OFFCURVE",
"77 125 CURVE SMOOTH",
"49 172 OFFCURVE",
"35 227 OFFCURVE",
"35 290 CURVE SMOOTH",
"35 503 OFFCURVE",
"230 624 OFFCURVE",
"614 625 CURVE"
);
},
{
closed = 1;
nodes = (
"614 493 LINE",
"463 492 OFFCURVE",
"399 422 OFFCURVE",
"399 329 CURVE SMOOTH",
"399 232 OFFCURVE",
"441 166 OFFCURVE",
"512 166 CURVE SMOOTH",
"547 166 OFFCURVE",
"590 187 OFFCURVE",
"614 216 CURVE"
);
},
{
closed = 1;
nodes = (
"166 1515 OFFCURVE",
"167 1548 OFFCURVE",
"169 1560 CURVE",
"322 1560 LINE",
"322 1545 OFFCURVE",
"323 1531 OFFCURVE",
"326 1519 CURVE",
"339 1436 OFFCURVE",
"394 1380 OFFCURVE",
"513 1380 CURVE SMOOTH",
"630 1380 OFFCURVE",
"683 1435 OFFCURVE",
"696 1518 CURVE SMOOTH",
"698 1531 OFFCURVE",
"699 1545 OFFCURVE",
"699 1560 CURVE",
"849 1560 LINE",
"851 1511 OFFCURVE",
"852 1478 OFFCURVE",
"852 1461 CURVE SMOOTH",
"852 1346 OFFCURVE",
"791 1249 OFFCURVE",
"688 1197 CURVE SMOOTH",
"636 1170 OFFCURVE",
"577 1157 OFFCURVE",
"512 1157 CURVE SMOOTH",
"376 1157 OFFCURVE",
"266 1213 OFFCURVE",
"209 1306 CURVE SMOOTH",
"180 1352 OFFCURVE",
"166 1403 OFFCURVE",
"166 1460 CURVE SMOOTH"
);
}
);
width = 1034;
}
);
note = abreve;
unicode = 0103;
},
{
glyphname = acircumflex;
layers = (
{
layerId = "ED003BF4-EB5B-4214-9209-77B039A8E9AA";
name = Bold;
paths = (
{
closed = 1;
nodes = (
"614 653 LINE SMOOTH",
"614 729 OFFCURVE",
"602 769 OFFCURVE",
"556 791 CURVE SMOOTH",
"533 802 OFFCURVE",
"498 807 OFFCURVE",
"451 807 CURVE SMOOTH",
"328 807 OFFCURVE",
"242 778 OFFCURVE",
"146 739 CURVE",
"145 739 LINE",
"76 887 LINE",
"120 922 OFFCURVE",
"211 970 OFFCURVE",
"339 1003 CURVE SMOOTH",
"403 1019 OFFCURVE",
"470 1027 OFFCURVE",
"541 1027 CURVE SMOOTH",
"744 1027 OFFCURVE",
"852 977 OFFCURVE",
"900 869 CURVE SMOOTH",
"924 815 OFFCURVE",
"936 742 OFFCURVE",
"936 649 CURVE SMOOTH",
"936 134 LINE",
"1024 134 LINE",
"1024 4 LINE",
"971 -7 OFFCURVE",
"835 -23 OFFCURVE",
"758 -23 CURVE SMOOTH",
"686 -23 OFFCURVE",
"653 -10 OFFCURVE",
"641 20 CURVE",
"634 35 OFFCURVE",
"631 56 OFFCURVE",
"631 84 CURVE SMOOTH",
"631 118 LINE",
"575 42 OFFCURVE",
"477 -20 OFFCURVE",
"342 -20 CURVE SMOOTH",
"230 -20 OFFCURVE",
"132 32 OFFCURVE",
"77 125 CURVE SMOOTH",
"49 172 OFFCURVE",
"35 227 OFFCURVE",
"35 290 CURVE SMOOTH",
"35 503 OFFCURVE",
"230 624 OFFCURVE",
"614 625 CURVE"
);
},
{
closed = 1;
nodes = (
"614 493 LINE",
"463 492 OFFCURVE",
"399 422 OFFCURVE",
"399 329 CURVE SMOOTH",
"399 232 OFFCURVE",
"441 166 OFFCURVE",
"512 166 CURVE SMOOTH",
"547 166 OFFCURVE",
"590 187 OFFCURVE",
"614 216 CURVE"
);
},
{
closed = 1;
nodes = (
"423 1585 LINE",
"597 1585 LINE",
"887 1231 LINE",
"777 1135 LINE",
"512 1345 LINE",
"245 1134 LINE",
"138 1230 LINE"
);
}
);
width = 1034;
}
);
note = acircumflex;
unicode = 00E2;
},
{
glyphname = adieresis;
layers = (
{
layerId = "ED003BF4-EB5B-4214-9209-77B039A8E9AA";
name = Bold;
paths = (
{
closed = 1;
nodes = (
"614 653 LINE SMOOTH",
"614 729 OFFCURVE",
"602 769 OFFCURVE",
"556 791 CURVE SMOOTH",
"533 802 OFFCURVE",
"498 807 OFFCURVE",
"451 807 CURVE SMOOTH",
"328 807 OFFCURVE",
"242 778 OFFCURVE",
"146 739 CURVE",
"145 739 LINE",
"76 887 LINE",
"120 922 OFFCURVE",
"211 970 OFFCURVE",
"339 1003 CURVE SMOOTH",
"403 1019 OFFCURVE",
"470 1027 OFFCURVE",
"541 1027 CURVE SMOOTH",
"744 1027 OFFCURVE",
"852 977 OFFCURVE",
"900 869 CURVE SMOOTH",
"924 815 OFFCURVE",
"936 742 OFFCURVE",
"936 649 CURVE SMOOTH",
"936 134 LINE",
"1024 134 LINE",
"1024 4 LINE",
"971 -7 OFFCURVE",
"835 -23 OFFCURVE",
"758 -23 CURVE SMOOTH",
"686 -23 OFFCURVE",
"653 -10 OFFCURVE",
"641 20 CURVE",
"634 35 OFFCURVE",
"631 56 OFFCURVE",
"631 84 CURVE SMOOTH",
"631 118 LINE",
"575 42 OFFCURVE",
"477 -20 OFFCURVE",
"342 -20 CURVE SMOOTH",
"230 -20 OFFCURVE",
"132 32 OFFCURVE",
"77 125 CURVE SMOOTH",
"49 172 OFFCURVE",
"35 227 OFFCURVE",
"35 290 CURVE SMOOTH",
"35 503 OFFCURVE",
"230 624 OFFCURVE",
"614 625 CURVE"
);
},
{
closed = 1;
nodes = (
"614 493 LINE",
"463 492 OFFCURVE",
"399 422 OFFCURVE",
"399 329 CURVE SMOOTH",
"399 232 OFFCURVE",
"441 166 OFFCURVE",
"512 166 CURVE SMOOTH",
"547 166 OFFCURVE",
"590 187 OFFCURVE",
"614 216 CURVE"
);
},
{
closed = 1;
nodes = (
"112 1431 OFFCURVE",
"170 1507 OFFCURVE",
"285 1507 CURVE SMOOTH",
"286 1507 LINE SMOOTH",
"393 1507 OFFCURVE",
"447 1442 OFFCURVE",
"447 1351 CURVE SMOOTH",
"447 1239 OFFCURVE",
"384 1165 OFFCURVE",
"256 1165 CURVE SMOOTH",
"256 1165 LINE SMOOTH",
"200 1165 OFFCURVE",
"155 1195 OFFCURVE",
"131 1244 CURVE",
"118 1268 OFFCURVE",
"112 1294 OFFCURVE",
"112 1322 CURVE SMOOTH"
);
},
{
closed = 1;
nodes = (
"578 1431 OFFCURVE",
"637 1507 OFFCURVE",
"750 1507 CURVE SMOOTH",
"751 1507 LINE SMOOTH",
"859 1507 OFFCURVE",
"911 1442 OFFCURVE",
"911 1351 CURVE SMOOTH",
"911 1239 OFFCURVE",
"848 1165 OFFCURVE",
"720 1165 CURVE SMOOTH",
"719 1165 LINE SMOOTH",
"667 1165 OFFCURVE",
"621 1200 OFFCURVE",
"597 1249 CURVE",
"584 1273 OFFCURVE",
"578 1297 OFFCURVE",
"578 1322 CURVE SMOOTH"
);
}
);
width = 1034;
}
);
note = adieresis;
unicode = 00E4;
},
{
glyphname = agrave;
layers = (
{
layerId = "ED003BF4-EB5B-4214-9209-77B039A8E9AA";
name = Bold;
paths = (
{
closed = 1;
nodes = (
"614 653 LINE SMOOTH",
"614 729 OFFCURVE",
"602 769 OFFCURVE",
"556 791 CURVE SMOOTH",
"533 802 OFFCURVE",
"498 807 OFFCURVE",
"451 807 CURVE SMOOTH",
"328 807 OFFCURVE",
"242 778 OFFCURVE",
"146 739 CURVE",
"145 739 LINE",
"76 887 LINE",
"120 922 OFFCURVE",
"211 970 OFFCURVE",
"339 1003 CURVE SMOOTH",
"403 1019 OFFCURVE",
"470 1027 OFFCURVE",
"541 1027 CURVE SMOOTH",
"744 1027 OFFCURVE",
"852 977 OFFCURVE",
"900 869 CURVE SMOOTH",
"924 815 OFFCURVE",
"936 742 OFFCURVE",
"936 649 CURVE SMOOTH",
"936 134 LINE",
"1024 134 LINE",
"1024 4 LINE",
"971 -7 OFFCURVE",
"835 -23 OFFCURVE",
"758 -23 CURVE SMOOTH",
"686 -23 OFFCURVE",
"653 -10 OFFCURVE",
"641 20 CURVE",
"634 35 OFFCURVE",
"631 56 OFFCURVE",
"631 84 CURVE SMOOTH",
"631 118 LINE",
"575 42 OFFCURVE",
"477 -20 OFFCURVE",
"342 -20 CURVE SMOOTH",
"230 -20 OFFCURVE",
"132 32 OFFCURVE",
"77 125 CURVE SMOOTH",
"49 172 OFFCURVE",
"35 227 OFFCURVE",
"35 290 CURVE SMOOTH",
"35 503 OFFCURVE",
"230 624 OFFCURVE",
"614 625 CURVE"
);
},
{
closed = 1;
nodes = (
"614 493 LINE",
"463 492 OFFCURVE",
"399 422 OFFCURVE",
"399 329 CURVE SMOOTH",
"399 232 OFFCURVE",
"441 166 OFFCURVE",
"512 166 CURVE SMOOTH",
"547 166 OFFCURVE",
"590 187 OFFCURVE",
"614 216 CURVE"
);
},
{
closed = 1;
nodes = (
"340 1632 LINE",
"341 1632 LINE",
"676 1235 LINE",
"545 1132 LINE",
"542 1132 LINE",
"467 1160 OFFCURVE",
"349 1241 OFFCURVE",
"254 1332 CURVE SMOOTH",
"207 1377 OFFCURVE",
"172 1419 OFFCURVE",
"149 1457 CURVE"
);
}
);
width = 1034;
}
);
note = agrave;
unicode = 00E0;
},
{
glyphname = amacron;
layers = (
{
layerId = "ED003BF4-EB5B-4214-9209-77B039A8E9AA";
name = Bold;
paths = (
{
closed = 1;
nodes = (
"614 653 LINE SMOOTH",
"614 729 OFFCURVE",
"602 769 OFFCURVE",
"556 791 CURVE SMOOTH",
"533 802 OFFCURVE",
"498 807 OFFCURVE",
"451 807 CURVE SMOOTH",
"328 807 OFFCURVE",
"242 778 OFFCURVE",
"146 739 CURVE",
"145 739 LINE",
"76 887 LINE",
"120 922 OFFCURVE",
"211 970 OFFCURVE",
"339 1003 CURVE SMOOTH",
"403 1019 OFFCURVE",
"470 1027 OFFCURVE",
"541 1027 CURVE SMOOTH",
"744 1027 OFFCURVE",
"852 977 OFFCURVE",
"900 869 CURVE SMOOTH",
"924 815 OFFCURVE",
"936 742 OFFCURVE",
"936 649 CURVE SMOOTH",
"936 134 LINE",
"1024 134 LINE",
"1024 4 LINE",
"971 -7 OFFCURVE",
"835 -23 OFFCURVE",
"758 -23 CURVE SMOOTH",
"686 -23 OFFCURVE",
"653 -10 OFFCURVE",
"641 20 CURVE",
"634 35 OFFCURVE",
"631 56 OFFCURVE",
"631 84 CURVE SMOOTH",
"631 118 LINE",
"575 42 OFFCURVE",
"477 -20 OFFCURVE",
"342 -20 CURVE SMOOTH",
"230 -20 OFFCURVE",
"132 32 OFFCURVE",
"77 125 CURVE SMOOTH",
"49 172 OFFCURVE",
"35 227 OFFCURVE",
"35 290 CURVE SMOOTH",
"35 503 OFFCURVE",
"230 624 OFFCURVE",
"614 625 CURVE"
);
},
{
closed = 1;
nodes = (
"614 493 LINE",
"463 492 OFFCURVE",
"399 422 OFFCURVE",
"399 329 CURVE SMOOTH",
"399 232 OFFCURVE",
"441 166 OFFCURVE",
"512 166 CURVE SMOOTH",
"547 166 OFFCURVE",
"590 187 OFFCURVE",
"614 216 CURVE"
);
},
{
closed = 1;
nodes = (
"806 1438 LINE",
"806 1244 LINE",
"215 1244 LINE",
"215 1438 LINE"
);
}
);
width = 1034;
}
);
note = amacron;
unicode = 0101;
},
{
glyphname = aogonek;
layers = (
{
layerId = "ED003BF4-EB5B-4214-9209-77B039A8E9AA";
name = Bold;
paths = (
{
closed = 1;
nodes = (
"614 653 LINE SMOOTH",
"614 729 OFFCURVE",
"602 769 OFFCURVE",
"556 791 CURVE SMOOTH",
"533 802 OFFCURVE",
"498 807 OFFCURVE",
"451 807 CURVE SMOOTH",
"328 807 OFFCURVE",
"242 778 OFFCURVE",
"146 739 CURVE",
"145 739 LINE",
"76 887 LINE",
"120 922 OFFCURVE",
"211 970 OFFCURVE",
"339 1003 CURVE SMOOTH",
"403 1019 OFFCURVE",
"470 1027 OFFCURVE",
"541 1027 CURVE SMOOTH",
"744 1027 OFFCURVE",
"852 977 OFFCURVE",
"900 869 CURVE SMOOTH",
"924 815 OFFCURVE",
"936 742 OFFCURVE",
"936 649 CURVE SMOOTH",
"936 134 LINE",
"1024 134 LINE",
"1024 4 LINE",
"1013 1 LINE",
"934 -24 OFFCURVE",
"871 -69 OFFCURVE",
"838 -116 CURVE SMOOTH",
"821 -139 OFFCURVE",
"813 -161 OFFCURVE",
"813 -180 CURVE SMOOTH",
"813 -235 OFFCURVE",
"851 -270 OFFCURVE",
"922 -270 CURVE SMOOTH",
"963 -270 OFFCURVE",
"978 -267 OFFCURVE",
"1018 -251 CURVE",
"1018 -394 LINE",
"970 -431 OFFCURVE",
"870 -453 OFFCURVE",
"790 -453 CURVE SMOOTH",
"686 -453 OFFCURVE",
"610 -421 OFFCURVE",
"572 -365 CURVE SMOOTH",
"553 -337 OFFCURVE",
"543 -305 OFFCURVE",
"543 -268 CURVE SMOOTH",
"543 -175 OFFCURVE",
"632 -86 OFFCURVE",
"776 -23 CURVE",
"758 -23 LINE SMOOTH",
"686 -23 OFFCURVE",
"653 -10 OFFCURVE",
"641 20 CURVE",
"634 35 OFFCURVE",
"631 56 OFFCURVE",
"631 84 CURVE SMOOTH",
"631 118 LINE",
"575 42 OFFCURVE",
"477 -20 OFFCURVE",
"342 -20 CURVE SMOOTH",
"230 -20 OFFCURVE",
"132 32 OFFCURVE",
"77 125 CURVE SMOOTH",
"49 172 OFFCURVE",
"35 227 OFFCURVE",
"35 290 CURVE SMOOTH",
"35 503 OFFCURVE",
"230 624 OFFCURVE",
"614 625 CURVE"
);
},
{
closed = 1;
nodes = (
"614 493 LINE",
"463 492 OFFCURVE",
"399 422 OFFCURVE",
"399 329 CURVE SMOOTH",
"399 232 OFFCURVE",
"441 166 OFFCURVE",
"512 166 CURVE SMOOTH",
"547 166 OFFCURVE",
"590 187 OFFCURVE",
"614 216 CURVE"
);
}
);
width = 1039;
}
);
note = aogonek;
unicode = 0105;
},
{
glyphname = aring;
layers = (
{
layerId = "ED003BF4-EB5B-4214-9209-77B039A8E9AA";
name = Bold;
paths = (
{
closed = 1;
nodes = (
"614 653 LINE SMOOTH",
"614 729 OFFCURVE",
"602 769 OFFCURVE",
"556 791 CURVE SMOOTH",
"533 802 OFFCURVE",
"498 807 OFFCURVE",
"451 807 CURVE SMOOTH",
"328 807 OFFCURVE",
"242 778 OFFCURVE",
"146 739 CURVE",
"145 739 LINE",
"76 887 LINE",
"120 922 OFFCURVE",
"211 970 OFFCURVE",
"339 1003 CURVE SMOOTH",
"403 1019 OFFCURVE",
"470 1027 OFFCURVE",
"541 1027 CURVE SMOOTH",
"744 1027 OFFCURVE",
"852 977 OFFCURVE",
"900 869 CURVE SMOOTH",
"924 815 OFFCURVE",
"936 742 OFFCURVE",
"936 649 CURVE SMOOTH",
"936 134 LINE",
"1024 134 LINE",
"1024 4 LINE",
"971 -7 OFFCURVE",
"835 -23 OFFCURVE",
"758 -23 CURVE SMOOTH",
"686 -23 OFFCURVE",
"653 -10 OFFCURVE",
"641 20 CURVE",
"634 35 OFFCURVE",
"631 56 OFFCURVE",
"631 84 CURVE SMOOTH",
"631 118 LINE",
"575 42 OFFCURVE",
"477 -20 OFFCURVE",
"342 -20 CURVE SMOOTH",
"230 -20 OFFCURVE",
"132 32 OFFCURVE",
"77 125 CURVE SMOOTH",
"49 172 OFFCURVE",
"35 227 OFFCURVE",
"35 290 CURVE SMOOTH",
"35 503 OFFCURVE",
"230 624 OFFCURVE",
"614 625 CURVE"
);
},
{
closed = 1;
nodes = (
"614 493 LINE",
"463 492 OFFCURVE",
"399 422 OFFCURVE",
"399 329 CURVE SMOOTH",
"399 232 OFFCURVE",
"441 166 OFFCURVE",
"512 166 CURVE SMOOTH",
"547 166 OFFCURVE",
"590 187 OFFCURVE",
"614 216 CURVE"
);
},
{
closed = 1;
nodes = (
"177 1510 OFFCURVE",
"243 1594 OFFCURVE",
"347 1636 CURVE SMOOTH",
"399 1657 OFFCURVE",
"456 1667 OFFCURVE",
"517 1667 CURVE SMOOTH",
"518 1667 LINE SMOOTH",
"733 1667 OFFCURVE",
"837 1562 OFFCURVE",
"837 1397 CURVE SMOOTH",
"837 1286 OFFCURVE",
"775 1203 OFFCURVE",
"674 1160 CURVE SMOOTH",
"623 1139 OFFCURVE",
"566 1128 OFFCURVE",
"503 1128 CURVE SMOOTH",
"503 1128 LINE SMOOTH",
"278 1128 OFFCURVE",
"177 1235 OFFCURVE",
"177 1395 CURVE SMOOTH"
);
},
{
closed = 1;
nodes = (
"508 1265 LINE SMOOTH",
"611 1265 OFFCURVE",
"650 1302 OFFCURVE",
"650 1389 CURVE SMOOTH",
"650 1474 OFFCURVE",
"606 1527 OFFCURVE",
"509 1527 CURVE SMOOTH",
"508 1527 LINE SMOOTH",
"407 1527 OFFCURVE",
"364 1485 OFFCURVE",
"364 1401 CURVE SMOOTH",
"364 1322 OFFCURVE",
"412 1265 OFFCURVE",
"507 1265 CURVE SMOOTH"
);
}
);
width = 1034;
}
);
note = aring;
unicode = 00E5;
},
{
glyphname = atilde;
layers = (
{
layerId = "ED003BF4-EB5B-4214-9209-77B039A8E9AA";
name = Bold;
paths = (
{
closed = 1;
nodes = (
"614 653 LINE SMOOTH",
"614 729 OFFCURVE",
"602 769 OFFCURVE",
"556 791 CURVE SMOOTH",
"533 802 OFFCURVE",
"498 807 OFFCURVE",
"451 807 CURVE SMOOTH",
"328 807 OFFCURVE",
"242 778 OFFCURVE",
"146 739 CURVE",
"145 739 LINE",
"76 887 LINE",
"120 922 OFFCURVE",
"211 970 OFFCURVE",
"339 1003 CURVE SMOOTH",
"403 1019 OFFCURVE",
"470 1027 OFFCURVE",
"541 1027 CURVE SMOOTH",
"744 1027 OFFCURVE",
"852 977 OFFCURVE",
"900 869 CURVE SMOOTH",
"924 815 OFFCURVE",
"936 742 OFFCURVE",
"936 649 CURVE SMOOTH",
"936 134 LINE",
"1024 134 LINE",
"1024 4 LINE",
"971 -7 OFFCURVE",
"835 -23 OFFCURVE",
"758 -23 CURVE SMOOTH",
"686 -23 OFFCURVE",
"653 -10 OFFCURVE",
"641 20 CURVE",
"634 35 OFFCURVE",
"631 56 OFFCURVE",
"631 84 CURVE SMOOTH",
"631 118 LINE",
"575 42 OFFCURVE",
"477 -20 OFFCURVE",
"342 -20 CURVE SMOOTH",
"230 -20 OFFCURVE",
"132 32 OFFCURVE",
"77 125 CURVE SMOOTH",
"49 172 OFFCURVE",
"35 227 OFFCURVE",
"35 290 CURVE SMOOTH",
"35 503 OFFCURVE",
"230 624 OFFCURVE",
"614 625 CURVE"
);
},
{
closed = 1;
nodes = (
"614 493 LINE",
"463 492 OFFCURVE",
"399 422 OFFCURVE",
"399 329 CURVE SMOOTH",
"399 232 OFFCURVE",
"441 166 OFFCURVE",
"512 166 CURVE SMOOTH",
"547 166 OFFCURVE",
"590 187 OFFCURVE",
"614 216 CURVE"
);
},
{
closed = 1;
nodes = (
"92 1307 LINE",
"155 1418 OFFCURVE",
"237 1509 OFFCURVE",
"378 1509 CURVE SMOOTH",
"455 1509 OFFCURVE",
"504 1482 OFFCURVE",
"573 1430 CURVE SMOOTH",
"628 1390 OFFCURVE",
"660 1370 OFFCURVE",
"704 1370 CURVE SMOOTH",
"765 1370 OFFCURVE",
"799 1398 OFFCURVE",
"843 1442 CURVE",
"937 1359 LINE",
"894 1286 OFFCURVE",
"854 1231 OFFCURVE",
"783 1189 CURVE SMOOTH",
"747 1168 OFFCURVE",
"705 1157 OFFCURVE",
"657 1157 CURVE SMOOTH",
"582 1157 OFFCURVE",
"535 1185 OFFCURVE",
"467 1234 CURVE SMOOTH",
"410 1275 OFFCURVE",
"374 1296 OFFCURVE",
"326 1296 CURVE SMOOTH",
"266 1296 OFFCURVE",
"230 1269 OFFCURVE",
"185 1224 CURVE"
);
}
);
width = 1034;
}
);
note = atilde;
unicode = 00E3;
},
{
glyphname = ae;
layers = (
{
layerId = "ED003BF4-EB5B-4214-9209-77B039A8E9AA";
name = Bold;
paths = (
{
closed = 1;
nodes = (
"634 48 OFFCURVE",
"488 -20 OFFCURVE",
"341 -20 CURVE SMOOTH",
"228 -20 OFFCURVE",
"132 26 OFFCURVE",
"77 117 CURVE SMOOTH",
"50 162 OFFCURVE",
"36 217 OFFCURVE",
"36 280 CURVE SMOOTH",
"36 499 OFFCURVE",
"235 624 OFFCURVE",
"620 625 CURVE",
"620 649 LINE SMOOTH",
"620 717 OFFCURVE",
"605 759 OFFCURVE",
"554 783 CURVE SMOOTH",
"529 794 OFFCURVE",
"492 800 OFFCURVE",
"444 800 CURVE SMOOTH",
"321 800 OFFCURVE",
"236 776 OFFCURVE",
"135 737 CURVE",
"64 886 LINE",
"105 922 OFFCURVE",
"202 971 OFFCURVE",
"332 1003 CURVE SMOOTH",
"397 1019 OFFCURVE",
"465 1027 OFFCURVE",
"538 1027 CURVE SMOOTH",
"679 1027 OFFCURVE",
"766 1002 OFFCURVE",
"815 947 CURVE",
"895 1000 OFFCURVE",
"994 1027 OFFCURVE",
"1111 1027 CURVE SMOOTH",
"1378 1027 OFFCURVE",
"1517 892 OFFCURVE",
"1520 657 CURVE SMOOTH",
"1520 578 OFFCURVE",
"1515 514 OFFCURVE",
"1505 464 CURVE",
"959 464 LINE",
"976 275 OFFCURVE",
"1052 189 OFFCURVE",
"1195 189 CURVE SMOOTH",
"1282 189 OFFCURVE",
"1388 223 OFFCURVE",
"1456 256 CURVE",
"1510 134 LINE",
"1474 93 OFFCURVE",
"1386 40 OFFCURVE",
"1275 6 CURVE SMOOTH",
"1220 -11 OFFCURVE",
"1164 -20 OFFCURVE",
"1108 -20 CURVE SMOOTH",
"919 -20 OFFCURVE",
"784 38 OFFCURVE",
"703 153 CURVE"
);
},
{
closed = 1;
nodes = (
"1183 595 LINE",
"1184 616 OFFCURVE",
"1184 641 OFFCURVE",
"1184 669 CURVE SMOOTH",
"1184 814 OFFCURVE",
"1159 890 OFFCURVE",
"1083 890 CURVE SMOOTH",
"1028 890 OFFCURVE",
"992 867 OFFCURVE",
"972 781 CURVE SMOOTH",
"961 738 OFFCURVE",
"956 676 OFFCURVE",
"955 595 CURVE"
);
},
{
closed = 1;
nodes = (
"626 317 OFFCURVE",
"612 401 OFFCURVE",
"612 498 CURVE",
"467 494 OFFCURVE",
"412 420 OFFCURVE",
"412 327 CURVE SMOOTH",
"412 219 OFFCURVE",
"450 166 OFFCURVE",
"515 166 CURVE SMOOTH",
"567 166 OFFCURVE",
"622 200 OFFCURVE",
"653 247 CURVE"
);
}
);
width = 1564;
}
);
note = ae;
unicode = 00E6;
},
{
glyphname = aeacute;
layers = (
{
layerId = "ED003BF4-EB5B-4214-9209-77B039A8E9AA";
name = Bold;
paths = (
{
closed = 1;
nodes = (
"918 1632 LINE",
"919 1632 LINE",
"1109 1457 LINE",
"1065 1381 OFFCURVE",
"960 1283 OFFCURVE",
"853 1209 CURVE SMOOTH",
"799 1172 OFFCURVE",
"753 1146 OFFCURVE",
"716 1132 CURVE",
"714 1132 LINE",
"582 1235 LINE"
);
},
{
closed = 1;
nodes = (
"634 48 OFFCURVE",
"488 -20 OFFCURVE",
"341 -20 CURVE SMOOTH",
"228 -20 OFFCURVE",
"132 26 OFFCURVE",
"77 117 CURVE SMOOTH",
"50 162 OFFCURVE",
"36 217 OFFCURVE",
"36 280 CURVE SMOOTH",
"36 499 OFFCURVE",
"235 624 OFFCURVE",
"620 625 CURVE",
"620 649 LINE SMOOTH",
"620 717 OFFCURVE",
"605 759 OFFCURVE",
"554 783 CURVE SMOOTH",
"529 794 OFFCURVE",
"492 800 OFFCURVE",
"444 800 CURVE SMOOTH",
"321 800 OFFCURVE",
"236 776 OFFCURVE",
"135 737 CURVE",
"64 886 LINE",
"105 922 OFFCURVE",
"202 971 OFFCURVE",
"332 1003 CURVE SMOOTH",
"397 1019 OFFCURVE",
"465 1027 OFFCURVE",
"538 1027 CURVE SMOOTH",
"679 1027 OFFCURVE",
"766 1002 OFFCURVE",
"815 947 CURVE",
"895 1000 OFFCURVE",
"994 1027 OFFCURVE",
"1111 1027 CURVE SMOOTH",
"1378 1027 OFFCURVE",
"1517 892 OFFCURVE",
"1520 657 CURVE SMOOTH",
"1520 578 OFFCURVE",
"1515 514 OFFCURVE",
"1505 464 CURVE",
"959 464 LINE",
"976 275 OFFCURVE",
"1052 189 OFFCURVE",
"1195 189 CURVE SMOOTH",
"1282 189 OFFCURVE",
"1388 223 OFFCURVE",
"1456 256 CURVE",
"1510 134 LINE",
"1474 93 OFFCURVE",
"1386 40 OFFCURVE",
"1275 6 CURVE SMOOTH",
"1220 -11 OFFCURVE",
"1164 -20 OFFCURVE",
"1108 -20 CURVE SMOOTH",
"919 -20 OFFCURVE",
"784 38 OFFCURVE",
"703 153 CURVE"
);
},
{
closed = 1;
nodes = (
"1183 595 LINE",
"1184 616 OFFCURVE",
"1184 641 OFFCURVE",
"1184 669 CURVE SMOOTH",
"1184 814 OFFCURVE",
"1159 890 OFFCURVE",
"1083 890 CURVE SMOOTH",
"1028 890 OFFCURVE",
"992 867 OFFCURVE",
"972 781 CURVE SMOOTH",
"961 738 OFFCURVE",
"956 676 OFFCURVE",
"955 595 CURVE"
);
},
{
closed = 1;
nodes = (
"626 317 OFFCURVE",
"612 401 OFFCURVE",
"612 498 CURVE",
"467 494 OFFCURVE",
"412 420 OFFCURVE",
"412 327 CURVE SMOOTH",
"412 219 OFFCURVE",
"450 166 OFFCURVE",
"515 166 CURVE SMOOTH",
"567 166 OFFCURVE",
"622 200 OFFCURVE",
"653 247 CURVE"
);
}
);
width = 1573;
}
);
note = aeacute;
unicode = 01FD;
},
{
glyphname = b;
layers = (
{
layerId = "ED003BF4-EB5B-4214-9209-77B039A8E9AA";
name = Bold;
paths = (
{
closed = 1;
nodes = (
"4 1313 LINE",
"4 1432 LINE",
"391 1478 LINE",
"395 1478 LINE",
"462 1438 LINE",
"462 920 LINE",
"518 981 OFFCURVE",
"610 1028 OFFCURVE",
"707 1028 CURVE SMOOTH",
"859 1028 OFFCURVE",
"978 963 OFFCURVE",
"1043 815 CURVE SMOOTH",
"1076 741 OFFCURVE",
"1092 647 OFFCURVE",
"1092 532 CURVE SMOOTH",
"1092 321 OFFCURVE",
"1001 147 OFFCURVE",
"834 52 CURVE SMOOTH",
"751 4 OFFCURVE",
"653 -20 OFFCURVE",
"540 -20 CURVE SMOOTH",
"383 -20 OFFCURVE",
"261 1 OFFCURVE",
"194 22 CURVE SMOOTH",
"160 33 OFFCURVE",
"136 42 OFFCURVE",
"122 49 CURVE",
"122 1287 LINE"
);
},
{
closed = 1;
nodes = (
"462 129 LINE",
"471 113 OFFCURVE",
"507 99 OFFCURVE",
"548 99 CURVE SMOOTH",
"603 99 OFFCURVE",
"646 134 OFFCURVE",
"677 203 CURVE SMOOTH",
"708 272 OFFCURVE",
"724 375 OFFCURVE",
"724 510 CURVE SMOOTH",
"724 621 OFFCURVE",
"711 702 OFFCURVE",
"686 753 CURVE SMOOTH",
"661 803 OFFCURVE",
"624 828 OFFCURVE",
"576 828 CURVE SMOOTH",
"531 828 OFFCURVE",
"486 805 OFFCURVE",
"462 776 CURVE"
);
}
);
width = 1143;
}
);
note = b;
unicode = 0062;
},
{
glyphname = c;
layers = (
{
layerId = "ED003BF4-EB5B-4214-9209-77B039A8E9AA";
name = Bold;
paths = (
{
closed = 1;
nodes = (
"684 1028 OFFCURVE",
"747 1014 OFFCURVE",
"830 990 CURVE SMOOTH",
"858 982 OFFCURVE",
"885 974 OFFCURVE",
"905 973 CURVE",
"890 622 LINE",
"676 622 LINE",
"626 841 LINE",
"618 869 OFFCURVE",
"591 882 OFFCURVE",
"560 882 CURVE SMOOTH",
"504 882 OFFCURVE",
"466 850 OFFCURVE",
"443 751 CURVE SMOOTH",
"432 701 OFFCURVE",
"426 632 OFFCURVE",
"426 544 CURVE SMOOTH",
"426 311 OFFCURVE",
"495 184 OFFCURVE",
"612 184 CURVE SMOOTH",
"713 184 OFFCURVE",
"783 208 OFFCURVE",
"852 247 CURVE",
"907 125 LINE",
"876 89 OFFCURVE",
"806 38 OFFCURVE",
"703 5 CURVE SMOOTH",
"651 -12 OFFCURVE",
"594 -20 OFFCURVE",
"533 -20 CURVE SMOOTH",
"206 -20 OFFCURVE",
"55 179 OFFCURVE",
"54 495 CURVE",
"54 716 OFFCURVE",
"150 880 OFFCURVE",
"308 965 CURVE SMOOTH",
"387 1007 OFFCURVE",
"476 1028 OFFCURVE",
"577 1028 CURVE SMOOTH"
);
}
);
width = 952;
}
);
note = c;
unicode = 0063;
},
{
glyphname = cacute;
layers = (
{
layerId = "ED003BF4-EB5B-4214-9209-77B039A8E9AA";
name = Bold;
paths = (
{
closed = 1;
nodes = (
"689 1630 LINE",
"690 1630 LINE",
"880 1455 LINE",
"836 1379 OFFCURVE",
"731 1281 OFFCURVE",
"624 1207 CURVE SMOOTH",
"570 1170 OFFCURVE",
"524 1144 OFFCURVE",
"487 1130 CURVE",
"485 1130 LINE",
"353 1233 LINE"
);
},
{
closed = 1;
nodes = (
"680 1028 OFFCURVE",
"743 1014 OFFCURVE",
"826 990 CURVE SMOOTH",
"854 982 OFFCURVE",
"881 974 OFFCURVE",
"901 973 CURVE",
"886 622 LINE",
"672 622 LINE",
"622 841 LINE",
"614 869 OFFCURVE",
"587 882 OFFCURVE",
"556 882 CURVE SMOOTH",
"500 882 OFFCURVE",
"462 850 OFFCURVE",
"439 751 CURVE SMOOTH",
"428 701 OFFCURVE",
"422 632 OFFCURVE",
"422 544 CURVE SMOOTH",
"422 311 OFFCURVE",
"491 184 OFFCURVE",
"608 184 CURVE SMOOTH",
"709 184 OFFCURVE",
"779 208 OFFCURVE",
"848 247 CURVE",
"903 125 LINE",
"872 89 OFFCURVE",
"802 38 OFFCURVE",
"699 5 CURVE SMOOTH",
"647 -12 OFFCURVE",
"590 -20 OFFCURVE",
"529 -20 CURVE SMOOTH",
"202 -20 OFFCURVE",
"51 179 OFFCURVE",
"50 495 CURVE",
"50 716 OFFCURVE",
"146 880 OFFCURVE",
"304 965 CURVE SMOOTH",
"383 1007 OFFCURVE",
"472 1028 OFFCURVE",
"573 1028 CURVE SMOOTH"
);
}
);
width = 947;
}
);
note = cacute;
unicode = 0107;
},
